<?xml version="1.0" encoding="UTF-8" standalone="no"?>
<svg xmlns:ffdec="https://www.free-decompiler.com/flash" xmlns:xlink="http://www.w3.org/1999/xlink" ffdec:objectType="shape" height="60.0px" width="150.0px" xmlns="http://www.w3.org/2000/svg">
  <g transform="matrix(1.0, 0.0, 0.0, 1.0, -64.0, -24.0)">
    <path d="M81.0 33.0 L87.0 33.0 87.0 32.0 88.0 32.0 88.0 84.0 87.0 84.0 87.0 82.0 81.0 82.0 81.0 84.0 80.0 84.0 80.0 32.0 81.0 32.0 81.0 33.0 M81.0 78.0 L81.0 81.0 87.0 81.0 87.0 78.0 81.0 78.0 M87.0 69.0 L87.0 66.0 81.0 66.0 81.0 69.0 87.0 69.0 M87.0 74.0 L81.0 74.0 81.0 77.0 87.0 77.0 87.0 74.0 M81.0 70.0 L81.0 73.0 87.0 73.0 87.0 70.0 81.0 70.0 M87.0 65.0 L87.0 62.0 81.0 62.0 81.0 65.0 87.0 65.0 M87.0 54.0 L81.0 54.0 81.0 57.0 87.0 57.0 87.0 54.0 M81.0 58.0 L81.0 61.0 87.0 61.0 87.0 58.0 81.0 58.0 M87.0 53.0 L87.0 50.0 81.0 50.0 81.0 53.0 87.0 53.0 M87.0 45.0 L87.0 42.0 81.0 42.0 81.0 45.0 87.0 45.0 M81.0 46.0 L81.0 49.0 87.0 49.0 87.0 46.0 81.0 46.0 M87.0 41.0 L87.0 38.0 81.0 38.0 81.0 41.0 87.0 41.0 M81.0 34.0 L81.0 37.0 87.0 37.0 87.0 34.0 81.0 34.0 M71.0 32.0 L72.0 32.0 72.0 84.0 71.0 84.0 71.0 82.0 65.0 82.0 65.0 84.0 64.0 84.0 64.0 32.0 65.0 32.0 65.0 33.0 71.0 33.0 71.0 32.0 M71.0 81.0 L71.0 78.0 65.0 78.0 65.0 81.0 71.0 81.0 M71.0 74.0 L65.0 74.0 65.0 77.0 71.0 77.0 71.0 74.0 M65.0 62.0 L65.0 65.0 71.0 65.0 71.0 62.0 65.0 62.0 M65.0 70.0 L65.0 73.0 71.0 73.0 71.0 70.0 65.0 70.0 M65.0 66.0 L65.0 69.0 71.0 69.0 71.0 66.0 65.0 66.0 M71.0 57.0 L71.0 54.0 65.0 54.0 65.0 57.0 71.0 57.0 M71.0 53.0 L71.0 50.0 65.0 50.0 65.0 53.0 71.0 53.0 M71.0 61.0 L71.0 58.0 65.0 58.0 65.0 61.0 71.0 61.0 M65.0 38.0 L65.0 41.0 71.0 41.0 71.0 38.0 65.0 38.0 M65.0 46.0 L65.0 49.0 71.0 49.0 71.0 46.0 65.0 46.0 M65.0 42.0 L65.0 45.0 71.0 45.0 71.0 42.0 65.0 42.0 M71.0 37.0 L71.0 34.0 65.0 34.0 65.0 37.0 71.0 37.0" fill="#00ffff" fill-rule="evenodd" stroke="none"/>
    <path d="M210.0 40.0 L213.0 40.0 213.0 41.0 214.0 41.0 214.0 58.0 213.0 58.0 213.0 59.0 172.0 59.0 172.0 58.0 171.0 58.0 171.0 41.0 172.0 41.0 172.0 40.0 175.0 40.0 175.0 41.0 172.0 41.0 172.0 58.0 213.0 58.0 213.0 41.0 210.0 41.0 210.0 40.0" fill="#00ffff" fill-rule="evenodd" stroke="none"/>
    <path d="M209.0 41.0 L206.0 41.0 206.0 42.0 209.0 42.0 209.0 44.0 208.0 44.0 208.0 45.0 204.0 45.0 204.0 44.0 207.0 44.0 207.0 43.0 204.0 43.0 204.0 41.0 205.0 41.0 205.0 40.0 209.0 40.0 209.0 41.0 M203.0 44.0 L202.0 44.0 202.0 45.0 198.0 45.0 198.0 44.0 197.0 44.0 197.0 40.0 200.0 40.0 200.0 44.0 202.0 44.0 202.0 40.0 203.0 40.0 203.0 44.0 M179.0 42.0 L181.0 42.0 181.0 41.0 179.0 41.0 179.0 42.0 M182.0 41.0 L182.0 42.0 181.0 42.0 181.0 43.0 182.0 43.0 182.0 44.0 181.0 44.0 181.0 45.0 176.0 45.0 176.0 40.0 181.0 40.0 181.0 41.0 182.0 41.0 M179.0 43.0 L179.0 44.0 181.0 44.0 181.0 43.0 179.0 43.0 M192.0 40.0 L192.0 41.0 193.0 41.0 193.0 42.0 194.0 42.0 194.0 43.0 195.0 43.0 195.0 40.0 196.0 40.0 196.0 45.0 195.0 45.0 195.0 44.0 194.0 44.0 194.0 43.0 193.0 43.0 193.0 45.0 190.0 45.0 190.0 40.0 192.0 40.0 M188.0 41.0 L189.0 41.0 189.0 44.0 188.0 44.0 188.0 45.0 184.0 45.0 184.0 44.0 183.0 44.0 183.0 41.0 184.0 41.0 184.0 40.0 188.0 40.0 188.0 41.0 186.0 41.0 186.0 44.0 188.0 44.0 188.0 41.0 M211.0 56.0 L211.0 47.0 174.0 47.0 174.0 56.0 211.0 56.0 M173.0 46.0 L212.0 46.0 212.0 57.0 173.0 57.0 173.0 46.0" fill="#ff2155" fill-rule="evenodd" stroke="none"/>
    <path d="M172.0 24.0 L172.0 30.0 176.0 30.0 176.0 31.0 170.0 31.0 170.0 24.0 172.0 24.0 M177.0 26.0 L183.0 26.0 183.0 27.0 177.0 27.0 177.0 26.0 M177.0 28.0 L183.0 28.0 183.0 29.0 177.0 29.0 177.0 28.0" fill="#0000aa" fill-rule="evenodd" stroke="none"/>
    <path d="M179.0 42.0 L179.0 41.0 181.0 41.0 181.0 42.0 179.0 42.0 M179.0 43.0 L181.0 43.0 181.0 44.0 179.0 44.0 179.0 43.0 M188.0 41.0 L188.0 44.0 186.0 44.0 186.0 41.0 188.0 41.0" fill="#000000" fill-rule="evenodd" stroke="none"/>
  </g>
</svg>
