<?xml version="1.0" encoding="UTF-8" standalone="no"?>
<svg xmlns:ffdec="https://www.free-decompiler.com/flash" xmlns:xlink="http://www.w3.org/1999/xlink" ffdec:objectType="shape" height="8.55px" width="24.3px" xmlns="http://www.w3.org/2000/svg">
  <g transform="matrix(1.0, 0.0, 0.0, 1.0, 12.15, 0.0)">
    <path d="M1.85 2.15 L-2.45 2.15 -5.65 2.15 -9.9 2.15 -12.15 2.15 -12.15 1.1 12.15 1.1 12.15 2.15 10.35 2.15 6.1 2.15 1.85 2.15 M-12.15 7.5 L12.15 7.5 12.15 8.55 -12.15 8.55 -12.15 7.5" fill="#00ffff" fill-rule="evenodd" stroke="none"/>
    <path d="M-2.45 2.15 L-2.45 3.2 -3.5 3.2 -3.5 5.35 -2.45 5.35 -2.45 6.4 1.85 6.4 1.85 5.35 2.9 5.35 2.9 3.2 1.85 3.2 1.85 2.15 6.1 2.15 6.1 3.2 5.05 3.2 5.05 5.35 6.1 5.35 6.1 6.4 10.35 6.4 10.35 5.35 11.45 5.35 11.45 3.2 10.35 3.2 10.35 2.15 12.15 2.15 12.15 7.5 -12.15 7.5 -12.15 2.15 -9.9 2.15 -9.9 3.2 -10.95 3.2 -10.95 5.35 -9.9 5.35 -9.9 6.4 -5.65 6.4 -5.65 5.35 -4.55 5.35 -4.55 3.2 -5.65 3.2 -5.65 2.15 -2.45 2.15" fill="#0000ff" fill-rule="evenodd" stroke="none"/>
    <path d="M-12.15 1.1 L-12.15 0.0 12.15 0.0 12.15 1.1 -12.15 1.1" fill="#0000fc" fill-rule="evenodd" stroke="none"/>
    <path d="M1.85 2.15 L1.85 3.2 2.9 3.2 2.9 5.35 1.85 5.35 1.85 6.4 -2.45 6.4 -2.45 5.35 -3.5 5.35 -3.5 3.2 -2.45 3.2 -2.45 2.15 1.85 2.15 M-5.65 2.15 L-5.65 3.2 -4.55 3.2 -4.55 5.35 -5.65 5.35 -5.65 6.4 -9.9 6.4 -9.9 5.35 -10.95 5.35 -10.95 3.2 -9.9 3.2 -9.9 2.15 -5.65 2.15 M10.35 2.15 L10.35 3.2 11.45 3.2 11.45 5.35 10.35 5.35 10.35 6.4 6.1 6.4 6.1 5.35 5.05 5.35 5.05 3.2 6.1 3.2 6.1 2.15 10.35 2.15" fill="#000000" fill-rule="evenodd" stroke="none"/>
  </g>
</svg>
