<?xml version="1.0" encoding="UTF-8" standalone="no"?>
<svg xmlns:ffdec="https://www.free-decompiler.com/flash" xmlns:xlink="http://www.w3.org/1999/xlink" ffdec:objectType="shape" height="34.65px" width="44.4px" xmlns="http://www.w3.org/2000/svg">
  <g transform="matrix(1.0, 0.0, 0.0, 1.0, -170.0, -24.0)">
    <path d="M210.15 39.45 L213.35 39.45 213.35 40.55 214.4 40.55 214.4 57.6 213.35 57.6 213.35 58.65 171.75 58.65 171.75 57.6 170.7 57.6 170.7 40.55 171.75 40.55 171.75 39.45 174.95 39.45 174.95 40.55 171.75 40.55 171.75 57.6 213.35 57.6 213.35 40.55 210.15 40.55 210.15 39.45" fill="#ffba00" fill-rule="evenodd" stroke="none"/>
    <path d="M209.1 40.55 L205.9 40.55 205.9 41.6 209.1 41.6 209.1 43.75 208.0 43.75 208.0 44.8 203.75 44.8 203.75 43.75 206.95 43.75 206.95 42.65 203.75 42.65 203.75 40.55 204.8 40.55 204.8 39.45 209.1 39.45 209.1 40.55 M202.7 43.75 L201.6 43.75 201.6 44.8 198.4 44.8 198.4 43.75 197.35 43.75 197.35 39.45 199.5 39.45 199.5 43.75 201.6 43.75 201.6 39.45 202.7 39.45 202.7 43.75 M181.35 40.55 L179.2 40.55 179.2 41.6 181.35 41.6 181.35 40.55 182.4 40.55 182.4 41.6 181.35 41.6 181.35 42.65 179.2 42.65 179.2 43.75 181.35 43.75 181.35 44.8 176.0 44.8 176.0 39.45 181.35 39.45 181.35 40.55 M181.35 43.75 L181.35 42.65 182.4 42.65 182.4 43.75 181.35 43.75 M188.8 40.55 L188.8 43.75 187.75 43.75 187.75 44.8 183.5 44.8 183.5 39.45 187.75 39.45 187.75 40.55 188.8 40.55 M192.0 39.45 L192.0 40.55 193.1 40.55 193.1 41.6 194.15 41.6 194.15 42.65 195.2 42.65 195.2 39.45 196.3 39.45 196.3 44.8 195.2 44.8 195.2 43.75 194.15 43.75 194.15 42.65 193.1 42.65 193.1 44.8 189.9 44.8 189.9 39.45 192.0 39.45 M185.6 40.55 L185.6 43.75 187.75 43.75 187.75 40.55 185.6 40.55 M173.9 46.95 L173.9 55.45 211.2 55.45 211.2 46.95 173.9 46.95 M172.8 56.55 L172.8 45.85 212.3 45.85 212.3 56.55 172.8 56.55" fill="#0000ff" fill-rule="evenodd" stroke="none"/>
    <path d="M172.0 24.0 L172.0 30.0 176.0 30.0 176.0 31.0 170.0 31.0 170.0 24.0 172.0 24.0 M177.0 28.0 L183.0 28.0 183.0 29.0 177.0 29.0 177.0 28.0 M177.0 26.0 L183.0 26.0 183.0 27.0 177.0 27.0 177.0 26.0" fill="#0000aa" fill-rule="evenodd" stroke="none"/>
  </g>
</svg>
