<?xml version="1.0" encoding="UTF-8" standalone="no"?>
<svg xmlns:ffdec="https://www.free-decompiler.com/flash" xmlns:xlink="http://www.w3.org/1999/xlink" ffdec:objectType="shape" height="8.55px" width="96.25px" xmlns="http://www.w3.org/2000/svg">
  <g transform="matrix(1.0, 0.0, 0.0, 1.0, 48.1, 0.0)">
    <path d="M6.4 2.15 L2.15 2.15 -2.1 2.15 -6.4 2.15 -9.6 2.15 -13.85 2.15 -18.1 2.15 -22.4 2.15 -25.6 2.15 -29.85 2.15 -34.1 2.15 -38.4 2.15 -41.6 2.15 -45.85 2.15 -48.1 2.15 -48.1 1.1 48.15 1.1 48.15 2.15 45.9 2.15 41.6 2.15 38.4 2.15 34.15 2.15 29.9 2.15 25.6 2.15 22.4 2.15 18.15 2.15 13.9 2.15 9.6 2.15 6.4 2.15 M-48.1 7.5 L48.15 7.5 48.15 8.55 -48.1 8.55 -48.1 7.5" fill="#00ffff" fill-rule="evenodd" stroke="none"/>
    <path d="M2.15 2.15 L2.15 3.2 1.1 3.2 1.1 5.35 2.15 5.35 2.15 6.4 6.4 6.4 6.4 5.35 7.5 5.35 7.5 3.2 6.4 3.2 6.4 2.15 9.6 2.15 9.6 3.2 8.55 3.2 8.55 5.35 9.6 5.35 9.6 6.4 13.9 6.4 13.9 5.35 14.95 5.35 14.95 3.2 13.9 3.2 13.9 2.15 18.15 2.15 18.15 3.2 17.1 3.2 17.1 5.35 18.15 5.35 18.15 6.4 22.4 6.4 22.4 5.35 23.5 5.35 23.5 3.2 22.4 3.2 22.4 2.15 25.6 2.15 25.6 3.2 24.55 3.2 24.55 5.35 25.6 5.35 25.6 6.4 29.9 6.4 29.9 5.35 30.95 5.35 30.95 3.2 29.9 3.2 29.9 2.15 34.15 2.15 34.15 3.2 33.1 3.2 33.1 5.35 34.15 5.35 34.15 6.4 38.4 6.4 38.4 5.35 39.5 5.35 39.5 3.2 38.4 3.2 38.4 2.15 41.6 2.15 41.6 3.2 40.55 3.2 40.55 5.35 41.6 5.35 41.6 6.4 45.9 6.4 45.9 5.35 46.95 5.35 46.95 3.2 45.9 3.2 45.9 2.15 48.15 2.15 48.15 7.5 -48.1 7.5 -48.1 2.15 -45.85 2.15 -45.85 3.2 -46.9 3.2 -46.9 5.35 -45.85 5.35 -45.85 6.4 -41.6 6.4 -41.6 5.35 -40.5 5.35 -40.5 3.2 -41.6 3.2 -41.6 2.15 -38.4 2.15 -38.4 3.2 -39.45 3.2 -39.45 5.35 -38.4 5.35 -38.4 6.4 -34.1 6.4 -34.1 5.35 -33.05 5.35 -33.05 3.2 -34.1 3.2 -34.1 2.15 -29.85 2.15 -29.85 3.2 -30.9 3.2 -30.9 5.35 -29.85 5.35 -29.85 6.4 -25.6 6.4 -25.6 5.35 -24.5 5.35 -24.5 3.2 -25.6 3.2 -25.6 2.15 -22.4 2.15 -22.4 3.2 -23.45 3.2 -23.45 5.35 -22.4 5.35 -22.4 6.4 -18.1 6.4 -18.1 5.35 -17.05 5.35 -17.05 3.2 -18.1 3.2 -18.1 2.15 -13.85 2.15 -13.85 3.2 -14.9 3.2 -14.9 5.35 -13.85 5.35 -13.85 6.4 -9.6 6.4 -9.6 5.35 -8.5 5.35 -8.5 3.2 -9.6 3.2 -9.6 2.15 -6.4 2.15 -6.4 3.2 -7.45 3.2 -7.45 5.35 -6.4 5.35 -6.4 6.4 -2.1 6.4 -2.1 5.35 -1.05 5.35 -1.05 3.2 -2.1 3.2 -2.1 2.15 2.15 2.15" fill="#0000ff" fill-rule="evenodd" stroke="none"/>
    <path d="M48.15 1.1 L-48.1 1.1 -48.1 0.0 48.15 0.0 48.15 1.1" fill="#0000fc" fill-rule="evenodd" stroke="none"/>
    <path d="M6.4 2.15 L6.4 3.2 7.5 3.2 7.5 5.35 6.4 5.35 6.4 6.4 2.15 6.4 2.15 5.35 1.1 5.35 1.1 3.2 2.15 3.2 2.15 2.15 6.4 2.15 M-2.1 2.15 L-2.1 3.2 -1.05 3.2 -1.05 5.35 -2.1 5.35 -2.1 6.4 -6.4 6.4 -6.4 5.35 -7.45 5.35 -7.45 3.2 -6.4 3.2 -6.4 2.15 -2.1 2.15 M-9.6 2.15 L-9.6 3.2 -8.5 3.2 -8.5 5.35 -9.6 5.35 -9.6 6.4 -13.85 6.4 -13.85 5.35 -14.9 5.35 -14.9 3.2 -13.85 3.2 -13.85 2.15 -9.6 2.15 M-18.1 2.15 L-18.1 3.2 -17.05 3.2 -17.05 5.35 -18.1 5.35 -18.1 6.4 -22.4 6.4 -22.4 5.35 -23.45 5.35 -23.45 3.2 -22.4 3.2 -22.4 2.15 -18.1 2.15 M-25.6 2.15 L-25.6 3.2 -24.5 3.2 -24.5 5.35 -25.6 5.35 -25.6 6.4 -29.85 6.4 -29.85 5.35 -30.9 5.35 -30.9 3.2 -29.85 3.2 -29.85 2.15 -25.6 2.15 M-34.1 2.15 L-34.1 3.2 -33.05 3.2 -33.05 5.35 -34.1 5.35 -34.1 6.4 -38.4 6.4 -38.4 5.35 -39.45 5.35 -39.45 3.2 -38.4 3.2 -38.4 2.15 -34.1 2.15 M-41.6 2.15 L-41.6 3.2 -40.5 3.2 -40.5 5.35 -41.6 5.35 -41.6 6.4 -45.85 6.4 -45.85 5.35 -46.9 5.35 -46.9 3.2 -45.85 3.2 -45.85 2.15 -41.6 2.15 M45.9 2.15 L45.9 3.2 46.95 3.2 46.95 5.35 45.9 5.35 45.9 6.4 41.6 6.4 41.6 5.35 40.55 5.35 40.55 3.2 41.6 3.2 41.6 2.15 45.9 2.15 M38.4 2.15 L38.4 3.2 39.5 3.2 39.5 5.35 38.4 5.35 38.4 6.4 34.15 6.4 34.15 5.35 33.1 5.35 33.1 3.2 34.15 3.2 34.15 2.15 38.4 2.15 M29.9 2.15 L29.9 3.2 30.95 3.2 30.95 5.35 29.9 5.35 29.9 6.4 25.6 6.4 25.6 5.35 24.55 5.35 24.55 3.2 25.6 3.2 25.6 2.15 29.9 2.15 M22.4 2.15 L22.4 3.2 23.5 3.2 23.5 5.35 22.4 5.35 22.4 6.4 18.15 6.4 18.15 5.35 17.1 5.35 17.1 3.2 18.15 3.2 18.15 2.15 22.4 2.15 M13.9 2.15 L13.9 3.2 14.95 3.2 14.95 5.35 13.9 5.35 13.9 6.4 9.6 6.4 9.6 5.35 8.55 5.35 8.55 3.2 9.6 3.2 9.6 2.15 13.9 2.15" fill="#000000" fill-rule="evenodd" stroke="none"/>
  </g>
</svg>
