<?xml version="1.0" encoding="UTF-8" standalone="no"?>
<svg xmlns:ffdec="https://www.free-decompiler.com/flash" xmlns:xlink="http://www.w3.org/1999/xlink" ffdec:objectType="shape" height="8.55px" width="42.1px" xmlns="http://www.w3.org/2000/svg">
  <g transform="matrix(1.0, 0.0, 0.0, 1.0, 21.05, 0.0)">
    <path d="M-21.05 1.1 L-21.05 0.0 21.05 0.0 21.05 1.1 -21.05 1.1" fill="#0000fc" fill-rule="evenodd" stroke="none"/>
    <path d="M8.95 2.15 L4.65 2.15 1.45 2.15 -2.8 2.15 -7.05 2.15 -11.35 2.15 -14.55 2.15 -18.8 2.15 -21.05 2.15 -21.05 1.1 21.05 1.1 21.05 2.15 20.65 2.15 17.45 2.15 13.2 2.15 8.95 2.15 M-21.05 7.5 L21.05 7.5 21.05 8.55 -21.05 8.55 -21.05 7.5" fill="#00ffff" fill-rule="evenodd" stroke="none"/>
    <path d="M8.95 2.15 L8.95 3.2 10.0 3.2 10.0 5.35 8.95 5.35 8.95 6.4 4.65 6.4 4.65 5.35 3.6 5.35 3.6 3.2 4.65 3.2 4.65 2.15 8.95 2.15 M1.45 2.15 L1.45 3.2 2.55 3.2 2.55 5.35 1.45 5.35 1.45 6.4 -2.8 6.4 -2.8 5.35 -3.85 5.35 -3.85 3.2 -2.8 3.2 -2.8 2.15 1.45 2.15 M-7.05 2.15 L-7.05 3.2 -6.0 3.2 -6.0 5.35 -7.05 5.35 -7.05 6.4 -11.35 6.4 -11.35 5.35 -12.4 5.35 -12.4 3.2 -11.35 3.2 -11.35 2.15 -7.05 2.15 M-14.55 2.15 L-14.55 3.2 -13.45 3.2 -13.45 5.35 -14.55 5.35 -14.55 6.4 -18.8 6.4 -18.8 5.35 -19.85 5.35 -19.85 3.2 -18.8 3.2 -18.8 2.15 -14.55 2.15 M21.05 6.4 L20.65 6.4 20.65 5.35 19.6 5.35 19.6 3.2 20.65 3.2 20.65 2.15 21.05 2.15 21.05 6.4 M17.45 2.15 L17.45 3.2 18.55 3.2 18.55 5.35 17.45 5.35 17.45 6.4 13.2 6.4 13.2 5.35 12.15 5.35 12.15 3.2 13.2 3.2 13.2 2.15 17.45 2.15" fill="#000000" fill-rule="evenodd" stroke="none"/>
    <path d="M4.65 2.15 L4.65 3.2 3.6 3.2 3.6 5.35 4.65 5.35 4.65 6.4 8.95 6.4 8.95 5.35 10.0 5.35 10.0 3.2 8.95 3.2 8.95 2.15 13.2 2.15 13.2 3.2 12.15 3.2 12.15 5.35 13.2 5.35 13.2 6.4 17.45 6.4 17.45 5.35 18.55 5.35 18.55 3.2 17.45 3.2 17.45 2.15 20.65 2.15 20.65 3.2 19.6 3.2 19.6 5.35 20.65 5.35 20.65 6.4 21.05 6.4 21.05 7.5 -21.05 7.5 -21.05 2.15 -18.8 2.15 -18.8 3.2 -19.85 3.2 -19.85 5.35 -18.8 5.35 -18.8 6.4 -14.55 6.4 -14.55 5.35 -13.45 5.35 -13.45 3.2 -14.55 3.2 -14.55 2.15 -11.35 2.15 -11.35 3.2 -12.4 3.2 -12.4 5.35 -11.35 5.35 -11.35 6.4 -7.05 6.4 -7.05 5.35 -6.0 5.35 -6.0 3.2 -7.05 3.2 -7.05 2.15 -2.8 2.15 -2.8 3.2 -3.85 3.2 -3.85 5.35 -2.8 5.35 -2.8 6.4 1.45 6.4 1.45 5.35 2.55 5.35 2.55 3.2 1.45 3.2 1.45 2.15 4.65 2.15" fill="#0000ff" fill-rule="evenodd" stroke="none"/>
  </g>
</svg>
