<?xml version="1.0" encoding="UTF-8" standalone="no"?>
<svg xmlns:ffdec="https://www.free-decompiler.com/flash" xmlns:xlink="http://www.w3.org/1999/xlink" ffdec:objectType="shape" height="8.55px" width="64.25px" xmlns="http://www.w3.org/2000/svg">
  <g transform="matrix(1.0, 0.0, 0.0, 1.0, 32.15, 0.0)">
    <path d="M-32.15 1.1 L-32.15 0.0 32.1 0.0 32.1 1.1 -32.15 1.1" fill="#0000fc" fill-rule="evenodd" stroke="none"/>
    <path d="M-32.15 1.1 L32.1 1.1 32.1 2.15 29.85 2.15 25.55 2.15 22.35 2.15 18.1 2.15 13.85 2.15 9.55 2.15 6.35 2.15 2.1 2.15 -2.15 2.15 -6.45 2.15 -9.65 2.15 -13.9 2.15 -18.15 2.15 -22.45 2.15 -25.65 2.15 -29.9 2.15 -32.15 2.15 -32.15 1.1 M32.1 7.5 L32.1 8.55 -32.15 8.55 -32.15 7.5 32.1 7.5" fill="#00ffff" fill-rule="evenodd" stroke="none"/>
    <path d="M32.1 2.15 L32.1 7.5 -32.15 7.5 -32.15 2.15 -29.9 2.15 -29.9 3.2 -30.95 3.2 -30.95 5.35 -29.9 5.35 -29.9 6.4 -25.65 6.4 -25.65 5.35 -24.55 5.35 -24.55 3.2 -25.65 3.2 -25.65 2.15 -22.45 2.15 -22.45 3.2 -23.5 3.2 -23.5 5.35 -22.45 5.35 -22.45 6.4 -18.15 6.4 -18.15 5.35 -17.1 5.35 -17.1 3.2 -18.15 3.2 -18.15 2.15 -13.9 2.15 -13.9 3.2 -14.95 3.2 -14.95 5.35 -13.9 5.35 -13.9 6.4 -9.65 6.4 -9.65 5.35 -8.55 5.35 -8.55 3.2 -9.65 3.2 -9.65 2.15 -6.45 2.15 -6.45 3.2 -7.5 3.2 -7.5 5.35 -6.45 5.35 -6.45 6.4 -2.15 6.4 -2.15 5.35 -1.1 5.35 -1.1 3.2 -2.15 3.2 -2.15 2.15 2.1 2.15 2.1 3.2 1.05 3.2 1.05 5.35 2.1 5.35 2.1 6.4 6.35 6.4 6.35 5.35 7.45 5.35 7.45 3.2 6.35 3.2 6.35 2.15 9.55 2.15 9.55 3.2 8.5 3.2 8.5 5.35 9.55 5.35 9.55 6.4 13.85 6.4 13.85 5.35 14.9 5.35 14.9 3.2 13.85 3.2 13.85 2.15 18.1 2.15 18.1 3.2 17.05 3.2 17.05 5.35 18.1 5.35 18.1 6.4 22.35 6.4 22.35 5.35 23.45 5.35 23.45 3.2 22.35 3.2 22.35 2.15 25.55 2.15 25.55 3.2 24.5 3.2 24.5 5.35 25.55 5.35 25.55 6.4 29.85 6.4 29.85 5.35 30.9 5.35 30.9 3.2 29.85 3.2 29.85 2.15 32.1 2.15" fill="#0000ff" fill-rule="evenodd" stroke="none"/>
    <path d="M29.85 2.15 L29.85 3.2 30.9 3.2 30.9 5.35 29.85 5.35 29.85 6.4 25.55 6.4 25.55 5.35 24.5 5.35 24.5 3.2 25.55 3.2 25.55 2.15 29.85 2.15 M22.35 2.15 L22.35 3.2 23.45 3.2 23.45 5.35 22.35 5.35 22.35 6.4 18.1 6.4 18.1 5.35 17.05 5.35 17.05 3.2 18.1 3.2 18.1 2.15 22.35 2.15 M13.85 2.15 L13.85 3.2 14.9 3.2 14.9 5.35 13.85 5.35 13.85 6.4 9.55 6.4 9.55 5.35 8.5 5.35 8.5 3.2 9.55 3.2 9.55 2.15 13.85 2.15 M6.35 2.15 L6.35 3.2 7.45 3.2 7.45 5.35 6.35 5.35 6.35 6.4 2.1 6.4 2.1 5.35 1.05 5.35 1.05 3.2 2.1 3.2 2.1 2.15 6.35 2.15 M-2.15 2.15 L-2.15 3.2 -1.1 3.2 -1.1 5.35 -2.15 5.35 -2.15 6.4 -6.45 6.4 -6.45 5.35 -7.5 5.35 -7.5 3.2 -6.45 3.2 -6.45 2.15 -2.15 2.15 M-9.65 2.15 L-9.65 3.2 -8.55 3.2 -8.55 5.35 -9.65 5.35 -9.65 6.4 -13.9 6.4 -13.9 5.35 -14.95 5.35 -14.95 3.2 -13.9 3.2 -13.9 2.15 -9.65 2.15 M-18.15 2.15 L-18.15 3.2 -17.1 3.2 -17.1 5.35 -18.15 5.35 -18.15 6.4 -22.45 6.4 -22.45 5.35 -23.5 5.35 -23.5 3.2 -22.45 3.2 -22.45 2.15 -18.15 2.15 M-25.65 2.15 L-25.65 3.2 -24.55 3.2 -24.55 5.35 -25.65 5.35 -25.65 6.4 -29.9 6.4 -29.9 5.35 -30.95 5.35 -30.95 3.2 -29.9 3.2 -29.9 2.15 -25.65 2.15" fill="#000000" fill-rule="evenodd" stroke="none"/>
  </g>
</svg>
