<?xml version="1.0" encoding="UTF-8" standalone="no"?>
<svg xmlns:ffdec="https://www.free-decompiler.com/flash" xmlns:xlink="http://www.w3.org/1999/xlink" ffdec:objectType="shape" height="10.0px" width="11.0px" xmlns="http://www.w3.org/2000/svg">
  <g transform="matrix(1.0, 0.0, 0.0, 1.0, 5.5, 5.0)">
    <path d="M-4.5 -2.0 L-4.5 -3.0 -3.5 -3.0 -3.5 -4.0 -1.5 -4.0 -1.5 -5.0 1.5 -5.0 1.5 -4.0 3.5 -4.0 3.5 -3.0 4.5 -3.0 4.5 -2.0 5.5 -2.0 5.5 2.0 4.5 2.0 4.5 3.0 3.5 3.0 3.5 4.0 1.5 4.0 1.5 5.0 -1.5 5.0 -1.5 4.0 -3.5 4.0 -3.5 3.0 -4.5 3.0 -4.5 2.0 -5.5 2.0 -5.5 -2.0 -4.5 -2.0 -4.5 2.0 -3.5 2.0 -3.5 3.0 -1.5 3.0 -1.5 4.0 1.5 4.0 1.5 3.0 3.5 3.0 3.5 2.0 4.5 2.0 4.5 -2.0 3.5 -2.0 3.5 -3.0 1.5 -3.0 1.5 -4.0 -1.5 -4.0 -1.5 -3.0 -3.5 -3.0 -3.5 -2.0 -4.5 -2.0" fill="#00ffff" fill-rule="evenodd" stroke="none"/>
    <path d="M1.5 -3.0 L1.5 -2.0 2.5 -2.0 2.5 1.0 1.5 1.0 1.5 2.0 -2.5 2.0 -2.5 1.0 -3.5 1.0 -3.5 0.0 -2.5 0.0 -2.5 -2.0 -1.5 -2.0 -1.5 -3.0 1.5 -3.0 M-2.5 1.0 L0.5 1.0 0.5 -1.0 -0.5 -1.0 -0.5 0.0 -2.5 0.0 -2.5 1.0 M-0.5 -1.0 L-0.5 -2.0 -1.5 -2.0 -1.5 -1.0 -0.5 -1.0" fill="#ffffff" fill-rule="evenodd" stroke="none"/>
    <path d="M-4.5 -2.0 L-3.5 -2.0 -3.5 -3.0 -1.5 -3.0 -1.5 -4.0 1.5 -4.0 1.5 -3.0 3.5 -3.0 3.5 -2.0 4.5 -2.0 4.5 2.0 3.5 2.0 3.5 3.0 1.5 3.0 1.5 4.0 -1.5 4.0 -1.5 3.0 -3.5 3.0 -3.5 2.0 -4.5 2.0 -4.5 -2.0 M-0.5 -1.0 L-1.5 -1.0 -1.5 -2.0 -0.5 -2.0 -0.5 -1.0 0.5 -1.0 0.5 1.0 -2.5 1.0 -2.5 0.0 -0.5 0.0 -0.5 -1.0 M1.5 -3.0 L-1.5 -3.0 -1.5 -2.0 -2.5 -2.0 -2.5 0.0 -3.5 0.0 -3.5 1.0 -2.5 1.0 -2.5 2.0 1.5 2.0 1.5 1.0 2.5 1.0 2.5 -2.0 1.5 -2.0 1.5 -3.0" fill="#0000ff" fill-rule="evenodd" stroke="none"/>
  </g>
</svg>
