<?xml version="1.0" encoding="UTF-8" standalone="no"?>
<svg xmlns:ffdec="https://www.free-decompiler.com/flash" xmlns:xlink="http://www.w3.org/1999/xlink" ffdec:objectType="shape" height="13.0px" width="15.0px" xmlns="http://www.w3.org/2000/svg">
  <g transform="matrix(1.0, 0.0, 0.0, 1.0, 7.0, 6.5)">
    <path d="M2.0 -1.5 L3.0 -1.5 3.0 -2.5 2.0 -2.5 2.0 -3.5 1.0 -3.5 1.0 -4.5 2.0 -4.5 2.0 -5.5 3.0 -5.5 3.0 -6.5 7.0 -6.5 7.0 -4.5 8.0 -4.5 8.0 -0.5 7.0 -0.5 7.0 2.5 6.0 2.5 6.0 3.5 4.0 3.5 4.0 4.5 3.0 4.5 3.0 5.5 2.0 5.5 2.0 4.5 3.0 4.5 3.0 3.5 2.0 3.5 2.0 2.5 1.0 2.5 1.0 1.5 0.0 1.5 0.0 0.5 1.0 0.5 1.0 -0.5 2.0 -0.5 2.0 -1.5 M-7.0 -4.5 L-6.0 -4.5 -6.0 -5.5 -5.0 -5.5 -5.0 -6.5 -1.0 -6.5 -1.0 -5.5 0.0 -5.5 0.0 -4.5 -1.0 -4.5 -1.0 -3.5 0.0 -3.5 0.0 -2.5 1.0 -2.5 1.0 -1.5 0.0 -1.5 0.0 -0.5 -1.0 -0.5 -1.0 0.5 -2.0 0.5 -2.0 1.5 -1.0 1.5 -1.0 2.5 0.0 2.5 0.0 3.5 1.0 3.5 1.0 4.5 0.0 4.5 0.0 5.5 1.0 5.5 1.0 6.5 0.0 6.5 0.0 5.5 -1.0 5.5 -1.0 4.5 -2.0 4.5 -2.0 3.5 -4.0 3.5 -4.0 2.5 -5.0 2.5 -5.0 1.5 -6.0 1.5 -6.0 -0.5 -7.0 -0.5 -7.0 -4.5" fill="#ff45ad" fill-rule="evenodd" stroke="none"/>
  </g>
</svg>
