<?xml version="1.0" encoding="UTF-8" standalone="no"?>
<svg xmlns:ffdec="https://www.free-decompiler.com/flash" xmlns:xlink="http://www.w3.org/1999/xlink" ffdec:objectType="shape" height="32.0px" width="40.0px" xmlns="http://www.w3.org/2000/svg">
  <g transform="matrix(1.0, 0.0, 0.0, 1.0, 20.0, 32.0)">
    <path d="M-7.0 -28.0 L-6.0 -28.0 -6.0 -29.0 -5.0 -29.0 -5.0 -30.0 -4.0 -30.0 -4.0 -31.0 -3.0 -31.0 -3.0 -32.0 4.0 -32.0 4.0 -31.0 5.0 -31.0 5.0 -30.0 6.0 -30.0 6.0 -29.0 7.0 -29.0 7.0 -28.0 7.0 -25.0 5.0 -25.0 5.0 -27.0 6.0 -27.0 6.0 -28.0 5.0 -28.0 5.0 -29.0 4.0 -29.0 4.0 -30.0 2.0 -30.0 2.0 -29.0 1.0 -29.0 1.0 -28.0 0.0 -28.0 0.0 -29.0 -1.0 -29.0 -1.0 -30.0 -3.0 -30.0 -3.0 -29.0 -4.0 -29.0 -4.0 -28.0 -5.0 -28.0 -5.0 -27.0 -4.0 -27.0 -4.0 -25.0 -7.0 -25.0 -7.0 -28.0 M10.0 -25.0 L11.0 -25.0 11.0 -24.0 12.0 -24.0 12.0 -23.0 14.0 -23.0 14.0 -22.0 15.0 -22.0 15.0 -21.0 17.0 -21.0 17.0 -20.0 18.0 -20.0 19.0 -20.0 19.0 -16.0 18.0 -16.0 18.0 -15.0 17.0 -15.0 17.0 -14.0 16.0 -14.0 16.0 -13.0 13.0 -13.0 13.0 -12.0 12.0 -12.0 12.0 -11.0 13.0 -11.0 13.0 -10.0 14.0 -10.0 14.0 -9.0 15.0 -9.0 15.0 -8.0 16.0 -8.0 16.0 -5.0 16.0 -3.0 17.0 -3.0 17.0 -2.0 16.0 -2.0 16.0 -3.0 14.0 -3.0 14.0 -2.0 15.0 -2.0 15.0 -1.0 14.0 -1.0 14.0 -2.0 11.0 -2.0 11.0 -3.0 9.0 -3.0 9.0 -2.0 10.0 -2.0 10.0 -1.0 9.0 -1.0 9.0 -2.0 8.0 -2.0 8.0 -3.0 7.0 -3.0 6.0 -3.0 6.0 -4.0 5.0 -4.0 5.0 -5.0 4.0 -5.0 4.0 -6.0 3.0 -6.0 3.0 -7.0 4.0 -7.0 5.0 -7.0 5.0 -6.0 6.0 -6.0 6.0 -7.0 5.0 -7.0 5.0 -8.0 6.0 -8.0 6.0 -10.0 7.0 -10.0 7.0 -11.0 8.0 -11.0 8.0 -10.0 9.0 -10.0 9.0 -11.0 10.0 -11.0 10.0 -12.0 9.0 -12.0 9.0 -11.0 8.0 -11.0 8.0 -12.0 7.0 -12.0 6.0 -12.0 6.0 -13.0 5.0 -13.0 5.0 -14.0 6.0 -14.0 6.0 -15.0 7.0 -15.0 7.0 -17.0 4.0 -17.0 4.0 -16.0 2.0 -16.0 1.0 -16.0 1.0 -15.0 -1.0 -15.0 -1.0 -16.0 -2.0 -16.0 -4.0 -16.0 -4.0 -17.0 -7.0 -17.0 -7.0 -15.0 -6.0 -15.0 -6.0 -14.0 -5.0 -14.0 -5.0 -13.0 -6.0 -13.0 -6.0 -12.0 -7.0 -12.0 -8.0 -12.0 -8.0 -11.0 -9.0 -11.0 -9.0 -12.0 -10.0 -12.0 -10.0 -11.0 -9.0 -11.0 -9.0 -10.0 -8.0 -10.0 -8.0 -11.0 -7.0 -11.0 -7.0 -10.0 -6.0 -10.0 -6.0 -8.0 -5.0 -8.0 -5.0 -7.0 -6.0 -7.0 -6.0 -6.0 -5.0 -6.0 -5.0 -7.0 -4.0 -7.0 -3.0 -7.0 -3.0 -6.0 -4.0 -6.0 -4.0 -5.0 -5.0 -5.0 -5.0 -4.0 -6.0 -4.0 -6.0 -3.0 -7.0 -3.0 -8.0 -3.0 -8.0 -2.0 -9.0 -2.0 -9.0 -1.0 -10.0 -1.0 -10.0 -2.0 -9.0 -2.0 -9.0 -3.0 -11.0 -3.0 -11.0 -2.0 -14.0 -2.0 -14.0 -1.0 -15.0 -1.0 -15.0 -2.0 -14.0 -2.0 -14.0 -3.0 -16.0 -3.0 -16.0 -2.0 -17.0 -2.0 -17.0 -3.0 -16.0 -3.0 -16.0 -5.0 -16.0 -8.0 -15.0 -8.0 -15.0 -9.0 -14.0 -9.0 -14.0 -10.0 -13.0 -10.0 -13.0 -11.0 -12.0 -11.0 -12.0 -12.0 -13.0 -12.0 -13.0 -13.0 -16.0 -13.0 -16.0 -14.0 -17.0 -14.0 -17.0 -15.0 -18.0 -15.0 -18.0 -16.0 -19.0 -16.0 -19.0 -20.0 -18.0 -20.0 -17.0 -20.0 -17.0 -21.0 -15.0 -21.0 -15.0 -22.0 -14.0 -22.0 -14.0 -23.0 -12.0 -23.0 -12.0 -24.0 -11.0 -24.0 -11.0 -25.0 -10.0 -25.0 -8.0 -25.0 -8.0 -24.0 -9.0 -24.0 -9.0 -21.0 -6.0 -21.0 -6.0 -19.0 -4.0 -19.0 -4.0 -18.0 5.0 -18.0 5.0 -19.0 7.0 -19.0 7.0 -21.0 9.0 -21.0 9.0 -24.0 8.0 -24.0 8.0 -25.0 10.0 -25.0 M2.0 -6.0 L0.0 -6.0 0.0 -7.0 1.0 -7.0 1.0 -8.0 2.0 -8.0 2.0 -6.0 M-1.0 -6.0 L-2.0 -6.0 -2.0 -7.0 -1.0 -7.0 -1.0 -6.0 M1.0 -27.0 L2.0 -27.0 2.0 -26.0 1.0 -26.0 1.0 -27.0 M-1.0 -26.0 L-1.0 -27.0 0.0 -27.0 0.0 -26.0 -1.0 -26.0 M2.0 -24.0 L-1.0 -24.0 -1.0 -25.0 2.0 -25.0 2.0 -24.0 M9.0 -18.0 L9.0 -17.0 8.0 -17.0 8.0 -16.0 11.0 -16.0 11.0 -17.0 12.0 -17.0 12.0 -18.0 13.0 -18.0 13.0 -19.0 14.0 -19.0 14.0 -20.0 13.0 -20.0 13.0 -19.0 11.0 -19.0 11.0 -18.0 9.0 -18.0 M6.0 -21.0 L6.0 -22.0 7.0 -22.0 7.0 -21.0 6.0 -21.0 M-6.0 -21.0 L-6.0 -22.0 -5.0 -22.0 -5.0 -23.0 6.0 -23.0 6.0 -22.0 -5.0 -22.0 -5.0 -21.0 -6.0 -21.0 M-13.0 -20.0 L-14.0 -20.0 -14.0 -19.0 -13.0 -19.0 -13.0 -18.0 -12.0 -18.0 -12.0 -17.0 -11.0 -17.0 -11.0 -16.0 -8.0 -16.0 -8.0 -17.0 -9.0 -17.0 -9.0 -18.0 -11.0 -18.0 -11.0 -19.0 -13.0 -19.0 -13.0 -20.0 M-5.0 -14.0 L-5.0 -15.0 -4.0 -15.0 -4.0 -14.0 -5.0 -14.0 M-5.0 -13.0 L-4.0 -13.0 -4.0 -12.0 -5.0 -12.0 -5.0 -13.0 M5.0 -13.0 L5.0 -12.0 4.0 -12.0 4.0 -13.0 5.0 -13.0 M5.0 -14.0 L4.0 -14.0 4.0 -15.0 5.0 -15.0 5.0 -14.0" fill="#b80000" fill-rule="evenodd" stroke="none"/>
    <path d="M-7.0 -28.0 L-7.0 -25.0 -4.0 -25.0 -4.0 -27.0 -5.0 -27.0 -5.0 -28.0 -4.0 -28.0 -4.0 -29.0 -3.0 -29.0 -3.0 -30.0 -1.0 -30.0 -1.0 -29.0 0.0 -29.0 0.0 -28.0 1.0 -28.0 1.0 -29.0 2.0 -29.0 2.0 -30.0 4.0 -30.0 4.0 -29.0 5.0 -29.0 5.0 -28.0 6.0 -28.0 6.0 -27.0 5.0 -27.0 5.0 -25.0 7.0 -25.0 7.0 -28.0 9.0 -28.0 9.0 -27.0 10.0 -27.0 10.0 -25.0 8.0 -25.0 8.0 -24.0 9.0 -24.0 9.0 -21.0 7.0 -21.0 7.0 -19.0 5.0 -19.0 5.0 -18.0 -4.0 -18.0 -4.0 -19.0 -6.0 -19.0 -6.0 -21.0 -9.0 -21.0 -9.0 -24.0 -8.0 -24.0 -8.0 -25.0 -10.0 -25.0 -10.0 -27.0 -9.0 -27.0 -9.0 -28.0 -7.0 -28.0 M17.0 -3.0 L18.0 -3.0 18.0 -2.0 19.0 -2.0 19.0 -1.0 20.0 -1.0 20.0 0.0 19.0 0.0 19.0 -1.0 18.0 -1.0 18.0 -2.0 17.0 -2.0 17.0 -1.0 18.0 -1.0 18.0 0.0 8.0 0.0 8.0 -1.0 7.0 -1.0 7.0 -3.0 8.0 -3.0 8.0 -2.0 9.0 -2.0 9.0 -1.0 10.0 -1.0 10.0 -2.0 9.0 -2.0 9.0 -3.0 11.0 -3.0 11.0 -2.0 14.0 -2.0 14.0 -1.0 15.0 -1.0 15.0 -2.0 14.0 -2.0 14.0 -3.0 16.0 -3.0 16.0 -2.0 17.0 -2.0 17.0 -3.0 M-7.0 -3.0 L-7.0 -1.0 -8.0 -1.0 -8.0 0.0 -18.0 0.0 -18.0 -1.0 -17.0 -1.0 -17.0 -2.0 -16.0 -2.0 -16.0 -3.0 -14.0 -3.0 -14.0 -2.0 -15.0 -2.0 -15.0 -1.0 -14.0 -1.0 -14.0 -2.0 -11.0 -2.0 -11.0 -3.0 -9.0 -3.0 -9.0 -2.0 -10.0 -2.0 -10.0 -1.0 -9.0 -1.0 -9.0 -2.0 -8.0 -2.0 -8.0 -3.0 -7.0 -3.0 M-19.0 0.0 L-20.0 0.0 -20.0 -1.0 -19.0 -1.0 -19.0 -2.0 -18.0 -2.0 -18.0 -3.0 -17.0 -3.0 -17.0 -2.0 -18.0 -2.0 -18.0 -1.0 -19.0 -1.0 -19.0 0.0 M2.0 -26.0 L3.0 -26.0 3.0 -28.0 1.0 -28.0 1.0 -27.0 1.0 -26.0 2.0 -26.0 M0.0 -27.0 L0.0 -28.0 -2.0 -28.0 -2.0 -26.0 -1.0 -26.0 0.0 -26.0 0.0 -27.0 M2.0 -24.0 L2.0 -25.0 -1.0 -25.0 -1.0 -24.0 2.0 -24.0 M6.0 -21.0 L7.0 -21.0 7.0 -22.0 6.0 -22.0 6.0 -21.0 M-6.0 -21.0 L-5.0 -21.0 -5.0 -22.0 6.0 -22.0 6.0 -23.0 -5.0 -23.0 -5.0 -22.0 -6.0 -22.0 -6.0 -21.0 M2.0 -16.0 L4.0 -16.0 4.0 -17.0 7.0 -17.0 7.0 -15.0 6.0 -15.0 6.0 -14.0 5.0 -14.0 5.0 -13.0 6.0 -13.0 6.0 -12.0 7.0 -12.0 7.0 -11.0 2.0 -11.0 2.0 -12.0 1.0 -12.0 1.0 -15.0 2.0 -15.0 2.0 -16.0 M4.0 -7.0 L3.0 -7.0 3.0 -8.0 4.0 -8.0 4.0 -7.0 M-7.0 -12.0 L-6.0 -12.0 -6.0 -13.0 -5.0 -13.0 -5.0 -14.0 -6.0 -14.0 -6.0 -15.0 -7.0 -15.0 -7.0 -17.0 -4.0 -17.0 -4.0 -16.0 -2.0 -16.0 -2.0 -15.0 -1.0 -15.0 -1.0 -12.0 -2.0 -12.0 -2.0 -11.0 -7.0 -11.0 -7.0 -12.0 M-5.0 -13.0 L-5.0 -12.0 -4.0 -12.0 -4.0 -13.0 -5.0 -13.0 M-5.0 -14.0 L-4.0 -14.0 -4.0 -15.0 -5.0 -15.0 -5.0 -14.0 M0.0 -7.0 L0.0 -8.0 -1.0 -8.0 -1.0 -9.0 -2.0 -9.0 -2.0 -8.0 -3.0 -8.0 -3.0 -9.0 -4.0 -9.0 -4.0 -8.0 -5.0 -8.0 -5.0 -10.0 -2.0 -10.0 -2.0 -11.0 -1.0 -11.0 -1.0 -12.0 1.0 -12.0 1.0 -11.0 2.0 -11.0 2.0 -10.0 5.0 -10.0 5.0 -8.0 4.0 -8.0 4.0 -9.0 3.0 -9.0 3.0 -8.0 2.0 -8.0 2.0 -9.0 1.0 -9.0 1.0 -8.0 1.0 -7.0 0.0 -7.0 M-1.0 -7.0 L-2.0 -7.0 -2.0 -8.0 -1.0 -8.0 -1.0 -7.0 M-4.0 -7.0 L-4.0 -8.0 -3.0 -8.0 -3.0 -7.0 -4.0 -7.0 M5.0 -14.0 L5.0 -15.0 4.0 -15.0 4.0 -14.0 5.0 -14.0 M5.0 -13.0 L4.0 -13.0 4.0 -12.0 5.0 -12.0 5.0 -13.0" fill="#ffb855" fill-rule="evenodd" stroke="none"/>
    <path d="M11.0 -25.0 L12.0 -25.0 12.0 -24.0 14.0 -24.0 14.0 -23.0 15.0 -23.0 15.0 -22.0 17.0 -22.0 17.0 -21.0 18.0 -21.0 18.0 -20.0 17.0 -20.0 17.0 -21.0 15.0 -21.0 15.0 -22.0 14.0 -22.0 14.0 -23.0 12.0 -23.0 12.0 -24.0 11.0 -24.0 11.0 -25.0 M13.0 -12.0 L13.0 -11.0 14.0 -11.0 14.0 -10.0 15.0 -10.0 15.0 -9.0 16.0 -9.0 16.0 -8.0 17.0 -8.0 17.0 -5.0 16.0 -5.0 16.0 -8.0 15.0 -8.0 15.0 -9.0 14.0 -9.0 14.0 -10.0 13.0 -10.0 13.0 -11.0 12.0 -11.0 12.0 -12.0 13.0 -12.0 M19.0 0.0 L18.0 0.0 18.0 -1.0 17.0 -1.0 17.0 -2.0 18.0 -2.0 18.0 -1.0 19.0 -1.0 19.0 0.0 M3.0 -6.0 L2.0 -6.0 2.0 -8.0 1.0 -8.0 1.0 -9.0 2.0 -9.0 2.0 -8.0 3.0 -8.0 3.0 -9.0 4.0 -9.0 4.0 -8.0 5.0 -8.0 5.0 -10.0 2.0 -10.0 2.0 -11.0 1.0 -11.0 1.0 -12.0 -1.0 -12.0 -1.0 -11.0 -2.0 -11.0 -2.0 -10.0 -5.0 -10.0 -5.0 -8.0 -4.0 -8.0 -4.0 -9.0 -3.0 -9.0 -3.0 -8.0 -2.0 -8.0 -2.0 -9.0 -1.0 -9.0 -1.0 -8.0 0.0 -8.0 0.0 -7.0 0.0 -6.0 -1.0 -6.0 -1.0 -7.0 -1.0 -8.0 -2.0 -8.0 -2.0 -7.0 -2.0 -6.0 -3.0 -6.0 -3.0 -7.0 -3.0 -8.0 -4.0 -8.0 -4.0 -7.0 -5.0 -7.0 -5.0 -6.0 -6.0 -6.0 -6.0 -7.0 -5.0 -7.0 -5.0 -8.0 -6.0 -8.0 -6.0 -10.0 -7.0 -10.0 -7.0 -11.0 -8.0 -11.0 -8.0 -10.0 -9.0 -10.0 -9.0 -11.0 -10.0 -11.0 -10.0 -12.0 -9.0 -12.0 -9.0 -11.0 -8.0 -11.0 -8.0 -12.0 -7.0 -12.0 -7.0 -11.0 -2.0 -11.0 -2.0 -12.0 -1.0 -12.0 -1.0 -15.0 -2.0 -15.0 -2.0 -16.0 -1.0 -16.0 -1.0 -15.0 1.0 -15.0 1.0 -16.0 2.0 -16.0 2.0 -15.0 1.0 -15.0 1.0 -12.0 2.0 -12.0 2.0 -11.0 7.0 -11.0 7.0 -12.0 8.0 -12.0 8.0 -11.0 9.0 -11.0 9.0 -12.0 10.0 -12.0 10.0 -11.0 9.0 -11.0 9.0 -10.0 8.0 -10.0 8.0 -11.0 7.0 -11.0 7.0 -10.0 6.0 -10.0 6.0 -8.0 5.0 -8.0 5.0 -7.0 6.0 -7.0 6.0 -6.0 5.0 -6.0 5.0 -7.0 4.0 -7.0 4.0 -8.0 3.0 -8.0 3.0 -7.0 3.0 -6.0 M-18.0 0.0 L-19.0 0.0 -19.0 -1.0 -18.0 -1.0 -18.0 -2.0 -17.0 -2.0 -17.0 -1.0 -18.0 -1.0 -18.0 0.0 M-16.0 -5.0 L-17.0 -5.0 -17.0 -8.0 -16.0 -8.0 -16.0 -9.0 -15.0 -9.0 -15.0 -10.0 -14.0 -10.0 -14.0 -11.0 -13.0 -11.0 -13.0 -12.0 -12.0 -12.0 -12.0 -11.0 -13.0 -11.0 -13.0 -10.0 -14.0 -10.0 -14.0 -9.0 -15.0 -9.0 -15.0 -8.0 -16.0 -8.0 -16.0 -5.0 M-18.0 -20.0 L-18.0 -21.0 -17.0 -21.0 -17.0 -22.0 -15.0 -22.0 -15.0 -23.0 -14.0 -23.0 -14.0 -24.0 -12.0 -24.0 -12.0 -25.0 -11.0 -25.0 -11.0 -24.0 -12.0 -24.0 -12.0 -23.0 -14.0 -23.0 -14.0 -22.0 -15.0 -22.0 -15.0 -21.0 -17.0 -21.0 -17.0 -20.0 -18.0 -20.0 M9.0 -18.0 L11.0 -18.0 11.0 -19.0 13.0 -19.0 13.0 -20.0 14.0 -20.0 14.0 -19.0 13.0 -19.0 13.0 -18.0 12.0 -18.0 12.0 -17.0 11.0 -17.0 11.0 -16.0 8.0 -16.0 8.0 -17.0 9.0 -17.0 9.0 -18.0 M-13.0 -20.0 L-13.0 -19.0 -11.0 -19.0 -11.0 -18.0 -9.0 -18.0 -9.0 -17.0 -8.0 -17.0 -8.0 -16.0 -11.0 -16.0 -11.0 -17.0 -12.0 -17.0 -12.0 -18.0 -13.0 -18.0 -13.0 -19.0 -14.0 -19.0 -14.0 -20.0 -13.0 -20.0" fill="#ff6800" fill-rule="evenodd" stroke="none"/>
    <path d="M1.0 -27.0 L1.0 -28.0 3.0 -28.0 3.0 -26.0 2.0 -26.0 2.0 -27.0 1.0 -27.0 M-1.0 -26.0 L-2.0 -26.0 -2.0 -28.0 0.0 -28.0 0.0 -27.0 -1.0 -27.0 -1.0 -26.0" fill="#ffffff" fill-rule="evenodd" stroke="none"/>
  </g>
</svg>
