<?xml version="1.0" encoding="UTF-8" standalone="no"?>
<svg xmlns:ffdec="https://www.free-decompiler.com/flash" xmlns:xlink="http://www.w3.org/1999/xlink" ffdec:objectType="shape" height="15.0px" width="13.0px" xmlns="http://www.w3.org/2000/svg">
  <g transform="matrix(1.0, 0.0, 0.0, 1.0, 6.5, 7.5)">
    <path d="M5.5 -3.5 L4.5 -3.5 4.5 -4.5 5.5 -4.5 5.5 -5.5 6.5 -5.5 6.5 -4.5 5.5 -4.5 5.5 -3.5 M-4.5 6.5 L-4.5 7.5 -5.5 7.5 -5.5 6.5 -4.5 6.5 M-2.5 -6.5 L-1.5 -6.5 -1.5 -5.5 -2.5 -5.5 -2.5 -6.5 M1.5 -0.5 L1.5 0.5 2.5 0.5 2.5 4.5 1.5 4.5 1.5 5.5 -3.5 5.5 -3.5 4.5 -4.5 4.5 -4.5 0.5 -3.5 0.5 -3.5 -0.5 -2.5 -0.5 -2.5 -1.5 -1.5 -1.5 -1.5 -0.5 -0.5 -0.5 -0.5 -1.5 0.5 -1.5 0.5 -0.5 1.5 -0.5 M-0.5 3.5 L0.5 3.5 0.5 1.5 0.5 0.5 -1.5 0.5 -1.5 1.5 -2.5 1.5 -3.5 1.5 -3.5 3.5 -2.5 3.5 -2.5 4.5 -0.5 4.5 -0.5 3.5" fill="#ffb800" fill-rule="evenodd" stroke="none"/>
    <path d="M5.5 -3.5 L6.5 -3.5 6.5 -2.5 5.5 -2.5 5.5 -1.5 4.5 -1.5 4.5 -0.5 3.5 -0.5 3.5 0.5 4.5 0.5 4.5 4.5 3.5 4.5 3.5 6.5 2.5 6.5 2.5 7.5 -3.5 7.5 -3.5 6.5 -4.5 6.5 -5.5 6.5 -5.5 5.5 -6.5 5.5 -6.5 1.5 -5.5 1.5 -5.5 -0.5 -4.5 -0.5 -4.5 -1.5 -3.5 -1.5 -3.5 -2.5 -2.5 -2.5 -2.5 -3.5 -3.5 -3.5 -3.5 -5.5 -4.5 -5.5 -4.5 -6.5 -3.5 -6.5 -3.5 -7.5 -2.5 -7.5 -2.5 -6.5 -3.5 -6.5 -3.5 -5.5 -2.5 -5.5 -2.5 -4.5 -1.5 -4.5 -1.5 -2.5 -0.5 -2.5 -0.5 -3.5 0.5 -3.5 0.5 -4.5 -0.5 -4.5 -0.5 -5.5 0.5 -5.5 0.5 -4.5 1.5 -4.5 1.5 -2.5 2.5 -2.5 2.5 -3.5 3.5 -3.5 3.5 -2.5 2.5 -2.5 2.5 -1.5 4.5 -1.5 4.5 -2.5 5.5 -2.5 5.5 -3.5 M1.5 -0.5 L0.5 -0.5 0.5 -1.5 -0.5 -1.5 -0.5 -0.5 -1.5 -0.5 -1.5 -1.5 -2.5 -1.5 -2.5 -0.5 -3.5 -0.5 -3.5 0.5 -4.5 0.5 -4.5 4.5 -3.5 4.5 -3.5 5.5 1.5 5.5 1.5 4.5 2.5 4.5 2.5 0.5 1.5 0.5 1.5 -0.5 M0.5 1.5 L0.5 3.5 -0.5 3.5 -0.5 1.5 0.5 1.5 M-2.5 3.5 L-3.5 3.5 -3.5 1.5 -2.5 1.5 -2.5 3.5 M6.5 6.5 L6.5 7.5 5.5 7.5 5.5 6.5 6.5 6.5" fill="#ff0000" fill-rule="evenodd" stroke="none"/>
    <path d="M-0.5 3.5 L-0.5 4.5 -2.5 4.5 -2.5 3.5 -2.5 1.5 -1.5 1.5 -1.5 0.5 0.5 0.5 0.5 1.5 -0.5 1.5 -0.5 3.5" fill="#ffffff" fill-rule="evenodd" stroke="none"/>
  </g>
</svg>
