<?xml version="1.0" encoding="UTF-8" standalone="no"?>
<svg xmlns:ffdec="https://www.free-decompiler.com/flash" xmlns:xlink="http://www.w3.org/1999/xlink" ffdec:objectType="shape" height="22.0px" width="174.0px" xmlns="http://www.w3.org/2000/svg">
  <g transform="matrix(1.0, 0.0, 0.0, 1.0, -25.1, -225.0)">
    <path d="M139.1 241.0 L142.1 241.0 142.1 246.0 139.1 246.0 139.1 241.0 M109.1 241.0 L109.1 242.0 110.1 242.0 110.1 244.0 107.1 244.0 107.1 242.0 108.1 242.0 108.1 241.0 109.1 241.0 M38.1 246.0 L35.1 246.0 35.1 241.0 38.1 241.0 38.1 246.0" fill="#030303" fill-rule="evenodd" stroke="none"/>
    <path d="M130.1 242.0 L130.1 240.0 132.1 240.0 132.1 243.0 134.1 243.0 134.1 240.0 136.1 240.0 136.1 242.0 135.1 242.0 135.1 244.0 134.1 244.0 134.1 247.0 132.1 247.0 132.1 244.0 131.1 244.0 131.1 242.0 130.1 242.0 M138.1 240.0 L143.1 240.0 143.1 241.0 144.1 241.0 144.1 246.0 143.1 246.0 143.1 247.0 138.1 247.0 138.1 246.0 137.1 246.0 137.1 241.0 138.1 241.0 138.1 240.0 M139.1 241.0 L139.1 246.0 142.1 246.0 142.1 241.0 139.1 241.0 M146.1 246.0 L145.1 246.0 145.1 240.0 147.1 240.0 147.1 246.0 150.1 246.0 150.1 240.0 152.1 240.0 152.1 246.0 151.1 246.0 151.1 247.0 146.1 247.0 146.1 246.0 M161.1 242.0 L162.1 242.0 162.1 241.0 163.1 241.0 163.1 240.0 168.1 240.0 168.1 241.0 164.1 241.0 164.1 242.0 163.1 242.0 163.1 245.0 164.1 245.0 164.1 246.0 166.1 246.0 166.1 244.0 165.1 244.0 165.1 243.0 168.1 243.0 168.1 247.0 163.1 247.0 163.1 246.0 162.1 246.0 162.1 245.0 161.1 245.0 161.1 242.0 M88.1 240.0 L88.1 247.0 86.1 247.0 86.1 244.0 83.1 244.0 83.1 247.0 81.1 247.0 81.1 240.0 83.1 240.0 83.1 243.0 86.1 243.0 86.1 240.0 88.1 240.0 M99.1 241.0 L99.1 240.0 103.1 240.0 103.1 241.0 104.1 241.0 104.1 242.0 102.1 242.0 102.1 241.0 100.1 241.0 100.1 242.0 99.1 242.0 99.1 245.0 100.1 245.0 100.1 246.0 102.1 246.0 102.1 245.0 104.1 245.0 104.1 246.0 103.1 246.0 103.1 247.0 99.1 247.0 99.1 246.0 98.1 246.0 98.1 245.0 97.1 245.0 97.1 242.0 98.1 242.0 98.1 241.0 99.1 241.0 M109.1 241.0 L108.1 241.0 108.1 242.0 107.1 242.0 107.1 244.0 110.1 244.0 110.1 242.0 109.1 242.0 109.1 241.0 M110.1 241.0 L111.1 241.0 111.1 242.0 112.1 242.0 112.1 247.0 110.1 247.0 110.1 245.0 107.1 245.0 107.1 247.0 105.1 247.0 105.1 242.0 106.1 242.0 106.1 241.0 107.1 241.0 107.1 240.0 110.1 240.0 110.1 241.0 M120.1 240.0 L120.1 247.0 118.1 247.0 118.1 246.0 117.1 246.0 117.1 245.0 116.1 245.0 116.1 244.0 115.1 244.0 115.1 247.0 113.1 247.0 113.1 240.0 115.1 240.0 115.1 241.0 116.1 241.0 116.1 242.0 117.1 242.0 117.1 243.0 118.1 243.0 118.1 240.0 120.1 240.0 M55.1 226.0 L51.1 226.0 51.1 227.0 54.1 227.0 54.1 228.0 55.1 228.0 55.1 230.0 54.1 230.0 54.1 231.0 50.1 231.0 50.1 230.0 49.1 230.0 49.1 229.0 51.1 229.0 51.1 230.0 53.1 230.0 53.1 228.0 49.1 228.0 49.1 225.0 55.1 225.0 55.1 226.0 M47.1 227.0 L46.1 227.0 46.1 228.0 45.1 228.0 45.1 229.0 44.1 229.0 44.1 230.0 47.1 230.0 47.1 231.0 41.1 231.0 41.1 230.0 42.1 230.0 42.1 229.0 43.1 229.0 43.1 228.0 44.1 228.0 44.1 227.0 45.1 227.0 45.1 226.0 43.1 226.0 43.1 227.0 41.1 227.0 41.1 226.0 42.1 226.0 42.1 225.0 46.1 225.0 46.1 226.0 47.1 226.0 47.1 227.0 M48.1 240.0 L48.1 245.0 47.1 245.0 47.1 247.0 46.1 247.0 46.1 246.0 45.1 246.0 45.1 245.0 44.1 245.0 44.1 246.0 43.1 246.0 43.1 247.0 42.1 247.0 42.1 245.0 41.1 245.0 41.1 240.0 43.1 240.0 43.1 243.0 44.1 243.0 44.1 242.0 45.1 242.0 45.1 243.0 46.1 243.0 46.1 240.0 48.1 240.0 M59.1 243.0 L62.1 243.0 62.1 240.0 64.1 240.0 64.1 247.0 62.1 247.0 62.1 244.0 59.1 244.0 59.1 247.0 57.1 247.0 57.1 240.0 59.1 240.0 59.1 243.0 M71.1 227.0 L72.1 227.0 72.1 231.0 71.1 231.0 71.1 227.0 69.1 227.0 69.1 231.0 68.1 231.0 68.1 227.0 66.1 227.0 66.1 231.0 65.1 231.0 65.1 226.0 68.1 226.0 68.1 227.0 69.1 227.0 69.1 226.0 71.1 226.0 71.1 227.0 M66.1 240.0 L72.1 240.0 72.1 241.0 70.1 241.0 70.1 246.0 72.1 246.0 72.1 247.0 66.1 247.0 66.1 246.0 68.1 246.0 68.1 241.0 66.1 241.0 66.1 240.0 M80.1 241.0 L76.1 241.0 76.1 242.0 75.1 242.0 75.1 245.0 76.1 245.0 76.1 246.0 78.1 246.0 78.1 244.0 77.1 244.0 77.1 243.0 80.1 243.0 80.1 247.0 75.1 247.0 75.1 246.0 74.1 246.0 74.1 245.0 73.1 245.0 73.1 242.0 74.1 242.0 74.1 241.0 75.1 241.0 75.1 240.0 80.1 240.0 80.1 241.0 M30.1 243.0 L30.1 240.0 32.1 240.0 32.1 247.0 30.1 247.0 30.1 244.0 27.1 244.0 27.1 247.0 25.1 247.0 25.1 240.0 27.1 240.0 27.1 243.0 30.1 243.0 M39.1 241.0 L40.1 241.0 40.1 246.0 39.1 246.0 39.1 247.0 34.1 247.0 34.1 246.0 33.1 246.0 33.1 241.0 34.1 241.0 34.1 240.0 39.1 240.0 39.1 241.0 M38.1 246.0 L38.1 241.0 35.1 241.0 35.1 246.0 38.1 246.0 M172.1 246.0 L176.1 246.0 176.1 247.0 170.1 247.0 170.1 240.0 176.1 240.0 176.1 241.0 172.1 241.0 172.1 243.0 175.1 243.0 175.1 244.0 172.1 244.0 172.1 246.0 M182.1 247.0 L180.1 247.0 180.1 241.0 178.1 241.0 178.1 240.0 184.1 240.0 184.1 241.0 182.1 241.0 182.1 247.0 M198.1 241.0 L199.1 241.0 199.1 243.0 198.1 243.0 198.1 244.0 196.1 244.0 196.1 245.0 195.1 245.0 195.1 244.0 196.1 244.0 196.1 243.0 198.1 243.0 198.1 241.0 194.1 241.0 194.1 242.0 193.1 242.0 193.1 241.0 194.1 241.0 194.1 240.0 198.1 240.0 198.1 241.0 M196.1 247.0 L195.1 247.0 195.1 246.0 196.1 246.0 196.1 247.0" fill="#fbfbfb" fill-rule="evenodd" stroke="none"/>
  </g>
</svg>
