<?xml version="1.0" encoding="UTF-8" standalone="no"?>
<svg xmlns:ffdec="https://www.free-decompiler.com/flash" xmlns:xlink="http://www.w3.org/1999/xlink" ffdec:objectType="shape" height="132.0px" width="112.0px" xmlns="http://www.w3.org/2000/svg">
  <g transform="matrix(1.0, 0.0, 0.0, 1.0, -64.0, -92.0)">
    <path d="M175.0 122.0 L169.0 122.0 169.0 125.0 175.0 125.0 175.0 122.0 M175.0 120.0 L176.0 120.0 176.0 128.0 175.0 128.0 175.0 126.0 169.0 126.0 169.0 128.0 168.0 128.0 168.0 120.0 169.0 120.0 169.0 121.0 175.0 121.0 175.0 120.0 M89.0 96.0 L88.0 96.0 88.0 92.0 89.0 92.0 89.0 93.0 95.0 93.0 95.0 92.0 96.0 92.0 96.0 96.0 95.0 96.0 95.0 94.0 89.0 94.0 89.0 96.0 M71.0 160.0 L71.0 158.0 65.0 158.0 65.0 160.0 64.0 160.0 64.0 154.0 65.0 154.0 65.0 157.0 71.0 157.0 71.0 154.0 72.0 154.0 72.0 160.0 71.0 160.0 M81.0 222.0 L81.0 224.0 80.0 224.0 80.0 221.0 88.0 221.0 88.0 224.0 87.0 224.0 87.0 222.0 81.0 222.0" fill="#00ffff" fill-rule="evenodd" stroke="none"/>
  </g>
</svg>
