<?xml version="1.0" encoding="UTF-8" standalone="no"?>
<svg xmlns:ffdec="https://www.free-decompiler.com/flash" xmlns:xlink="http://www.w3.org/1999/xlink" ffdec:objectType="shape" height="23.65px" width="20.5px" xmlns="http://www.w3.org/2000/svg">
  <g transform="matrix(1.0, 0.0, 0.0, 1.0, 10.25, 11.85)">
    <path d="M3.95 -10.3 L3.95 -8.7 5.55 -8.7 5.55 -5.55 8.7 -5.55 8.7 -4.0 10.25 -4.0 10.25 -0.85 7.1 -0.85 3.95 -0.85 3.95 -4.0 3.95 -5.55 -5.5 -5.55 -5.5 -4.0 -5.5 -0.85 -8.65 -0.85 -8.65 -4.0 -10.25 -4.0 -10.25 -8.7 -8.65 -8.7 -8.65 -10.3 -5.5 -10.3 -3.95 -10.3 -3.95 -8.7 2.4 -8.7 2.4 -10.3 3.95 -10.3 M5.55 8.65 L5.55 10.2 3.95 10.2 3.95 11.8 -3.95 11.8 -3.95 8.65 -2.35 8.65 -0.75 8.65 -0.75 7.05 3.95 7.05 3.95 8.65 5.55 8.65 M-2.35 7.05 L-8.65 7.05 -8.65 5.5 -2.35 5.5 -2.35 7.05 M2.4 -4.0 L2.4 -0.85 0.8 -0.85 0.8 0.75 -2.35 0.75 -2.35 -0.85 -3.95 -0.85 -3.95 -4.0 2.4 -4.0" fill="#0000aa" fill-rule="evenodd" stroke="none"/>
    <path d="M7.1 -0.85 L7.1 5.5 5.55 5.5 5.55 8.65 3.95 8.65 3.95 7.05 -0.75 7.05 -0.75 5.5 -2.35 5.5 -8.65 5.5 -8.65 3.9 -10.25 3.9 -10.25 0.75 -8.65 0.75 -8.65 -0.85 -5.5 -0.85 -5.5 -4.0 -3.95 -4.0 -3.95 -0.85 -2.35 -0.85 -2.35 0.75 0.8 0.75 0.8 -0.85 2.4 -0.85 2.4 -4.0 3.95 -4.0 3.95 -0.85 7.1 -0.85 M-2.35 8.65 L-2.35 7.05 -0.75 7.05 -0.75 8.65 -2.35 8.65 M-5.5 -10.3 L-5.5 -11.85 3.95 -11.85 3.95 -10.3 2.4 -10.3 2.4 -8.7 -3.95 -8.7 -3.95 -10.3 -5.5 -10.3" fill="#ff0000" fill-rule="evenodd" stroke="none"/>
    <path d="M-3.95 -4.0 L-5.5 -4.0 -5.5 -5.55 3.95 -5.55 3.95 -4.0 2.4 -4.0 -3.95 -4.0" fill="#ffb855" fill-rule="evenodd" stroke="none"/>
  </g>
</svg>
