<?xml version="1.0" encoding="UTF-8" standalone="no"?>
<svg xmlns:ffdec="https://www.free-decompiler.com/flash" xmlns:xlink="http://www.w3.org/1999/xlink" ffdec:objectType="shape" height="22.7px" width="21.25px" xmlns="http://www.w3.org/2000/svg">
  <g transform="matrix(1.0, 0.0, 0.0, 1.0, 12.55, 11.45)">
    <path d="M-6.9 -8.6 L-6.9 -10.05 -5.45 -10.05 -5.45 -11.45 0.2 -11.45 0.2 -10.05 4.45 -10.05 4.45 -8.6 1.6 -8.6 -2.65 -8.6 -6.9 -8.6" fill="#ff0000" fill-rule="evenodd" stroke="none"/>
    <path d="M1.6 -8.6 L1.6 -7.2 1.6 -5.75 1.6 -4.35 0.2 -4.35 0.2 -2.95 4.45 -2.95 4.45 -1.5 1.6 -1.5 -1.2 -1.5 -4.05 -1.5 -5.45 -1.5 -5.45 -2.95 -5.45 -4.35 -6.9 -4.35 -6.9 -7.2 -4.05 -7.2 -4.05 -4.35 -1.2 -4.35 -1.2 -7.2 -2.65 -7.2 -2.65 -8.6 1.6 -8.6 M1.5 -7.2 L-0.1 -7.2 -0.1 -5.85 1.5 -5.85 1.5 -7.2" fill="#f3af58" fill-rule="evenodd" stroke="none"/>
    <path d="M5.9 -4.35 L5.9 -2.95 4.45 -2.95 0.2 -2.95 0.2 -4.35 1.6 -4.35 1.6 -5.75 3.05 -5.75 3.05 -4.35 5.9 -4.35 M1.6 -1.5 L1.6 -0.1 4.45 -0.1 4.45 1.35 0.2 1.35 0.2 -0.1 -1.2 -0.1 -1.2 -1.5 1.6 -1.5 M-6.9 2.75 L-6.9 1.35 -8.3 1.35 -9.75 1.35 -9.75 -0.1 -9.75 -1.5 -5.45 -1.5 -4.05 -1.5 -4.05 2.75 -6.9 2.75 M-5.45 -2.95 L-9.75 -2.95 -9.75 -4.35 -8.3 -4.35 -8.3 -7.2 -6.9 -7.2 -6.9 -8.6 -2.65 -8.6 -2.65 -7.2 -1.2 -7.2 -1.2 -4.35 -4.05 -4.35 -4.05 -7.2 -6.9 -7.2 -6.9 -4.35 -5.45 -4.35 -5.45 -2.95 M1.5 -7.2 L1.5 -5.85 -0.1 -5.85 -0.1 -7.2 1.5 -7.2" fill="#0000aa" fill-rule="evenodd" stroke="none"/>
    <path d="M1.6 -7.2 L5.9 -7.2 5.9 -5.75 7.3 -5.75 7.3 -4.35 5.9 -4.35 3.05 -4.35 3.05 -5.75 1.6 -5.75 1.6 -7.2 M4.45 -0.1 L5.9 -0.1 5.9 -1.5 8.7 -1.5 8.7 2.75 7.3 2.75 5.9 2.75 5.9 1.35 4.45 1.35 4.45 -0.1 M-8.3 1.35 L-8.3 2.75 -9.75 2.75 -9.75 4.15 -12.55 4.15 -12.55 -0.1 -9.75 -0.1 -9.75 1.35 -8.3 1.35" fill="#ffb855" fill-rule="evenodd" stroke="none"/>
    <path d="M4.45 8.4 L0.2 8.4 0.2 7.0 -4.05 7.0 -4.05 8.4 -6.9 8.4 -6.9 7.0 -9.75 7.0 -9.75 5.6 -8.3 5.6 -8.3 4.15 -6.9 4.15 -6.9 2.75 -4.05 2.75 -4.05 -1.5 -1.2 -1.5 -1.2 -0.1 0.2 -0.1 0.2 1.35 4.45 1.35 4.45 8.4" fill="#ff0803" fill-rule="evenodd" stroke="none"/>
    <path d="M-6.9 8.4 L-6.9 9.85 -5.45 9.85 -5.45 11.25 -11.15 11.25 -11.15 7.0 -9.75 7.0 -6.9 7.0 -6.9 8.4" fill="#000099" fill-rule="evenodd" stroke="none"/>
    <path d="M7.3 2.75 L7.3 8.4 4.45 8.4 4.45 1.35 5.9 1.35 5.9 2.75 7.3 2.75" fill="#000097" fill-rule="evenodd" stroke="none"/>
  </g>
</svg>
