<?xml version="1.0" encoding="UTF-8" standalone="no"?>
<svg xmlns:ffdec="https://www.free-decompiler.com/flash" xmlns:xlink="http://www.w3.org/1999/xlink" ffdec:objectType="shape" height="22.5px" width="18.0px" xmlns="http://www.w3.org/2000/svg">
  <g transform="matrix(1.0, 0.0, 0.0, 1.0, 9.0, 11.25)">
    <path d="M-6.0 -8.4 L-6.0 -9.85 -4.5 -9.85 -4.5 -11.25 1.5 -11.25 1.5 -9.85 6.0 -9.85 6.0 -8.4 3.0 -8.4 0.0 -8.4 -6.0 -8.4 M4.5 1.4 L4.5 2.85 6.0 2.85 6.0 7.05 4.5 7.05 4.5 8.45 0.0 8.45 0.0 7.05 -1.5 7.05 -1.5 8.45 -3.0 8.45 -7.5 8.45 -7.5 4.25 -6.0 4.25 -6.0 5.65 -4.5 5.65 -4.5 7.05 -1.5 7.05 -1.5 5.65 0.0 5.65 0.0 4.25 -1.5 4.25 -1.5 2.85 -3.0 2.85 -3.0 1.4 -1.5 1.4 -1.5 0.0 1.5 0.0 1.5 1.4 0.0 1.4 0.0 2.85 1.5 2.85 1.5 1.4 4.5 1.4" fill="#ff0000" fill-rule="evenodd" stroke="none"/>
    <path d="M3.0 -8.4 L3.0 -7.0 7.5 -7.0 7.5 -5.6 9.0 -5.6 9.0 -4.2 7.5 -4.2 4.5 -4.2 4.5 -5.6 3.0 -5.6 3.0 -4.2 1.5 -4.2 1.5 -2.8 6.0 -2.8 6.0 -1.4 3.0 -1.4 -4.5 -1.4 -4.5 -2.8 -4.5 -4.2 -6.0 -4.2 -6.0 -7.0 -3.0 -7.0 -3.0 -4.2 0.0 -4.2 0.0 -5.6 -1.5 -5.6 -1.5 -7.0 0.0 -7.0 0.0 -8.4 3.0 -8.4 M3.0 -7.0 L1.5 -7.0 1.5 -5.6 3.0 -5.6 3.0 -7.0 M-1.5 4.25 L0.0 4.25 0.0 5.65 -1.5 5.65 -1.5 7.05 -4.5 7.05 -4.5 5.65 -4.5 4.25 -1.5 4.25 M1.5 1.4 L1.5 2.85 0.0 2.85 0.0 1.4 1.5 1.4" fill="#ffb855" fill-rule="evenodd" stroke="none"/>
    <path d="M7.5 -4.2 L7.5 -2.8 6.0 -2.8 1.5 -2.8 1.5 -4.2 3.0 -4.2 3.0 -5.6 4.5 -5.6 4.5 -4.2 7.5 -4.2 M3.0 -1.4 L3.0 0.0 4.5 0.0 4.5 1.4 1.5 1.4 1.5 0.0 -1.5 0.0 -1.5 1.4 -3.0 1.4 -3.0 2.85 -1.5 2.85 -1.5 4.25 -4.5 4.25 -4.5 5.65 -6.0 5.65 -6.0 4.25 -7.5 4.25 -7.5 0.0 -6.0 0.0 -6.0 -1.4 -4.5 -1.4 3.0 -1.4 M4.5 8.45 L4.5 9.85 6.0 9.85 6.0 11.25 0.0 11.25 0.0 8.45 4.5 8.45 M-3.0 8.45 L-3.0 9.85 -1.5 9.85 -1.5 11.25 -7.5 11.25 -7.5 8.45 -3.0 8.45 M-4.5 -2.8 L-9.0 -2.8 -9.0 -4.2 -7.5 -4.2 -7.5 -7.0 -6.0 -7.0 -6.0 -8.4 0.0 -8.4 0.0 -7.0 -1.5 -7.0 -1.5 -5.6 0.0 -5.6 0.0 -4.2 -3.0 -4.2 -3.0 -7.0 -6.0 -7.0 -6.0 -4.2 -4.5 -4.2 -4.5 -2.8 M3.0 -7.0 L3.0 -5.6 1.5 -5.6 1.5 -7.0 3.0 -7.0" fill="#0000aa" fill-rule="evenodd" stroke="none"/>
  </g>
</svg>
