<?xml version="1.0" encoding="UTF-8" standalone="no"?>
<svg xmlns:ffdec="https://www.free-decompiler.com/flash" xmlns:xlink="http://www.w3.org/1999/xlink" ffdec:objectType="shape" height="16.0px" width="15.0px" xmlns="http://www.w3.org/2000/svg">
  <g transform="matrix(1.0, 0.0, 0.0, 1.0, 7.5, 8.0)">
    <path d="M7.5 -2.0 L5.5 -2.0 5.5 -3.0 4.5 -3.0 4.5 -4.0 3.5 -4.0 3.5 -6.0 7.5 -6.0 7.5 -2.0 M2.5 -3.0 L1.5 -3.0 1.5 -2.0 -0.5 -2.0 -1.5 -2.0 -1.5 -3.0 -4.5 -3.0 -4.5 -4.0 -3.5 -4.0 -3.5 -5.0 -1.5 -5.0 -1.5 -3.0 -0.5 -3.0 -0.5 -4.0 0.5 -4.0 0.5 -5.0 -0.5 -5.0 -0.5 -6.0 1.5 -6.0 1.5 -4.0 2.5 -4.0 2.5 -3.0 M-0.5 -1.0 L1.5 -1.0 1.5 0.0 2.5 0.0 2.5 1.0 1.5 1.0 1.5 2.0 -0.5 2.0 -0.5 3.0 1.5 3.0 1.5 4.0 2.5 4.0 2.5 5.0 1.5 5.0 1.5 7.0 0.5 7.0 -0.5 7.0 -0.5 6.0 -0.5 4.0 -0.5 3.0 -1.5 3.0 -1.5 2.0 -0.5 2.0 -0.5 1.0 -0.5 -1.0 M4.5 5.0 L5.5 5.0 5.5 4.0 7.5 4.0 7.5 7.0 6.5 7.0 6.5 8.0 3.5 8.0 3.5 6.0 4.5 6.0 4.5 5.0 M-5.5 -3.0 L-4.5 -3.0 -4.5 -2.0 -5.5 -2.0 -5.5 -3.0 M-1.5 -1.0 L-1.5 1.0 -1.5 2.0 -2.5 2.0 -2.5 3.0 -3.5 3.0 -3.5 1.0 -2.5 1.0 -2.5 0.0 -3.5 0.0 -3.5 -2.0 -2.5 -2.0 -2.5 -1.0 -1.5 -1.0 M-5.5 -1.0 L-4.5 -1.0 -4.5 0.0 -5.5 0.0 -5.5 -1.0 M-5.5 1.0 L-4.5 1.0 -4.5 2.0 -5.5 2.0 -5.5 1.0 M-5.5 3.0 L-4.5 3.0 -4.5 4.0 -1.5 4.0 -1.5 6.0 -2.5 6.0 -3.5 6.0 -3.5 5.0 -4.5 5.0 -4.5 4.0 -5.5 4.0 -5.5 3.0" fill="#0000aa" fill-rule="evenodd" stroke="none"/>
    <path d="M7.5 -2.0 L7.5 -1.0 6.5 -1.0 6.5 2.0 7.5 2.0 7.5 4.0 5.5 4.0 5.5 5.0 4.5 5.0 3.5 5.0 3.5 4.0 2.5 4.0 1.5 4.0 1.5 3.0 -0.5 3.0 -0.5 2.0 1.5 2.0 1.5 1.0 2.5 1.0 2.5 0.0 1.5 0.0 1.5 -1.0 -0.5 -1.0 -0.5 -2.0 1.5 -2.0 1.5 -3.0 2.5 -3.0 4.5 -3.0 5.5 -3.0 5.5 -2.0 7.5 -2.0 M-5.5 4.0 L-6.5 4.0 -6.5 3.0 -7.5 3.0 -7.5 -2.0 -6.5 -2.0 -6.5 -3.0 -5.5 -3.0 -5.5 -2.0 -5.5 -1.0 -5.5 0.0 -5.5 1.0 -5.5 2.0 -5.5 3.0 -5.5 4.0 M-0.5 -4.0 L-0.5 -5.0 0.5 -5.0 0.5 -4.0 -0.5 -4.0 M2.5 2.0 L2.5 3.0 3.5 3.0 3.5 2.0 2.5 2.0 M3.5 -1.0 L3.5 -2.0 2.5 -2.0 2.5 -1.0 3.5 -1.0 M-0.5 -1.0 L-0.5 1.0 -1.5 1.0 -1.5 -1.0 -0.5 -1.0" fill="#ff0000" fill-rule="evenodd" stroke="none"/>
    <path d="M-0.5 -2.0 L-0.5 -1.0 -1.5 -1.0 -2.5 -1.0 -2.5 -2.0 -3.5 -2.0 -3.5 0.0 -2.5 0.0 -2.5 1.0 -3.5 1.0 -3.5 3.0 -2.5 3.0 -2.5 2.0 -1.5 2.0 -1.5 3.0 -0.5 3.0 -0.5 4.0 -1.5 4.0 -4.5 4.0 -4.5 3.0 -5.5 3.0 -5.5 2.0 -4.5 2.0 -4.5 1.0 -5.5 1.0 -5.5 0.0 -4.5 0.0 -4.5 -1.0 -5.5 -1.0 -5.5 -2.0 -4.5 -2.0 -4.5 -3.0 -1.5 -3.0 -1.5 -2.0 -0.5 -2.0 M-1.5 -5.0 L-1.5 -6.0 -2.5 -6.0 -2.5 -7.0 -1.5 -7.0 -1.5 -8.0 0.5 -8.0 0.5 -7.0 1.5 -7.0 1.5 -6.0 -0.5 -6.0 -0.5 -5.0 -1.5 -5.0 M3.5 -1.0 L2.5 -1.0 2.5 -2.0 3.5 -2.0 3.5 -1.0 M2.5 2.0 L3.5 2.0 3.5 3.0 2.5 3.0 2.5 2.0 M-0.5 6.0 L-0.5 7.0 0.5 7.0 0.5 8.0 -1.5 8.0 -1.5 7.0 -2.5 7.0 -2.5 6.0 -1.5 6.0 -0.5 6.0" fill="#ffb855" fill-rule="evenodd" stroke="none"/>
    <path d="M-0.5 1.0 L-0.5 2.0 -1.5 2.0 -1.5 1.0 -0.5 1.0" fill="#000000" fill-rule="evenodd" stroke="none"/>
  </g>
</svg>
