<?xml version="1.0" encoding="UTF-8" standalone="no"?>
<svg xmlns:ffdec="https://www.free-decompiler.com/flash" xmlns:xlink="http://www.w3.org/1999/xlink" ffdec:objectType="shape" height="8.55px" width="14.95px" xmlns="http://www.w3.org/2000/svg">
  <g transform="matrix(1.0, 0.0, 0.0, 1.0, 7.45, 4.25)">
    <path d="M4.3 -4.25 L5.35 -4.25 5.35 -3.15 4.3 -3.15 4.3 -2.1 3.2 -2.1 3.2 -3.15 4.3 -3.15 4.3 -4.25 M6.4 1.1 L7.5 1.1 7.5 2.15 6.4 2.15 6.4 3.25 5.35 3.25 5.35 2.15 3.2 2.15 3.2 3.25 2.15 3.25 -1.05 3.25 -1.05 2.15 -4.25 2.15 -4.25 3.25 -5.3 3.25 -6.4 3.25 -6.4 2.15 -7.45 2.15 -7.45 1.1 -6.4 1.1 -6.4 2.15 -4.25 2.15 -4.25 1.1 -1.05 1.1 -1.05 2.15 3.2 2.15 3.2 1.1 5.35 1.1 5.35 2.15 6.4 2.15 6.4 1.1" fill="#ff45ad" fill-rule="evenodd" stroke="none"/>
    <path d="M3.2 -2.1 L3.2 -1.05 -4.25 -1.05 -4.25 -3.15 -3.2 -3.15 -3.2 -4.25 4.3 -4.25 4.3 -3.15 3.2 -3.15 3.2 -2.1 M4.3 0.05 L6.4 0.05 6.4 1.1 6.4 2.15 5.35 2.15 5.35 1.1 3.2 1.1 3.2 2.15 -1.05 2.15 -1.05 1.1 -4.25 1.1 -4.25 2.15 -6.4 2.15 -6.4 1.1 -6.4 0.05 -5.3 0.05 4.3 0.05" fill="#ffffff" fill-rule="evenodd" stroke="none"/>
    <path d="M3.2 -1.05 L4.3 -1.05 4.3 0.05 -5.3 0.05 -5.3 -1.05 -4.25 -1.05 3.2 -1.05" fill="#0000ad" fill-rule="evenodd" stroke="none"/>
    <path d="M3.2 3.25 L3.2 4.3 2.15 4.3 2.15 3.25 3.2 3.25 M-4.25 3.25 L-4.25 4.3 -5.3 4.3 -5.3 3.25 -4.25 3.25" fill="#ffba00" fill-rule="evenodd" stroke="none"/>
  </g>
</svg>
