<?xml version="1.0" encoding="UTF-8" standalone="no"?>
<svg xmlns:ffdec="https://www.free-decompiler.com/flash" xmlns:xlink="http://www.w3.org/1999/xlink" ffdec:objectType="shape" height="21.95px" width="15.0px" xmlns="http://www.w3.org/2000/svg">
  <g transform="matrix(1.0, 0.0, 0.0, 1.0, 7.5, 10.95)">
    <path d="M6.5 -8.95 L2.5 -8.95 2.5 -6.95 1.5 -6.95 1.5 -7.95 0.5 -7.95 0.5 -6.95 1.5 -6.95 1.5 -5.95 0.5 -5.95 0.5 -4.95 -1.5 -4.95 -1.5 -2.95 -3.5 -2.95 -3.5 -1.95 -4.5 -1.95 -4.5 -2.95 -5.5 -2.95 -5.5 -3.95 -6.5 -3.95 -6.5 -4.95 -4.5 -4.95 -4.5 -5.95 -5.5 -5.95 -5.5 -6.95 -6.5 -6.95 -6.5 -7.95 -4.5 -7.95 -4.5 -6.95 -3.5 -6.95 -3.5 -5.95 -0.5 -5.95 -0.5 -6.95 -1.5 -6.95 -1.5 -8.95 -0.5 -8.95 -0.5 -9.95 0.5 -9.95 0.5 -10.95 6.5 -10.95 6.5 -9.95 7.5 -9.95 7.5 -8.95 6.5 -8.95 M5.5 -7.95 L5.5 -6.95 4.5 -6.95 4.5 -7.95 5.5 -7.95 M-5.5 -2.95 L-5.5 -1.95 -6.5 -1.95 -6.5 -2.95 -5.5 -2.95" fill="#ff6800" fill-rule="evenodd" stroke="none"/>
    <path d="M0.5 -4.95 L0.5 -5.95 1.5 -5.95 1.5 -6.95 0.5 -6.95 0.5 -7.95 1.5 -7.95 1.5 -6.95 2.5 -6.95 2.5 -8.95 6.5 -8.95 6.5 -7.95 7.5 -7.95 7.5 -6.95 6.5 -6.95 6.5 -5.95 5.5 -5.95 5.5 -4.95 3.5 -4.95 3.5 -3.95 3.5 -2.95 1.5 -2.95 1.5 -3.95 0.5 -3.95 0.5 -4.95 M5.5 -7.95 L4.5 -7.95 4.5 -6.95 5.5 -6.95 5.5 -7.95 M5.5 8.05 L1.5 8.05 1.5 7.05 -0.5 7.05 -0.5 6.05 -2.5 6.05 -2.5 5.05 -4.5 5.05 -4.5 4.05 -5.5 4.05 -5.5 3.05 -4.5 3.05 -3.5 3.05 -3.5 4.05 -1.5 4.05 -1.5 5.05 -0.5 5.05 -0.5 6.05 2.5 6.05 2.5 7.05 5.5 7.05 5.5 8.05 M5.5 -0.95 L7.5 -0.95 7.5 0.05 6.5 0.05 6.5 1.05 5.5 1.05 5.5 -0.95 M4.5 2.05 L6.5 2.05 6.5 4.05 5.5 4.05 5.5 3.05 4.5 3.05 4.5 2.05" fill="#ffffff" fill-rule="evenodd" stroke="none"/>
    <path d="M-1.5 -2.95 L-1.5 -4.95 0.5 -4.95 0.5 -3.95 1.5 -3.95 1.5 -2.95 3.5 -2.95 3.5 -3.95 4.5 -3.95 4.5 -1.95 3.5 -1.95 3.5 -0.95 5.5 -0.95 5.5 1.05 4.5 1.05 4.5 2.05 4.5 3.05 5.5 3.05 5.5 4.05 5.5 7.05 2.5 7.05 2.5 6.05 -0.5 6.05 -0.5 7.05 1.5 7.05 1.5 8.05 5.5 8.05 5.5 9.05 4.5 9.05 1.5 9.05 0.5 9.05 0.5 8.05 -1.5 8.05 -1.5 7.05 -2.5 7.05 -3.5 7.05 -3.5 6.05 -5.5 6.05 -5.5 5.05 -6.5 5.05 -6.5 4.05 -7.5 4.05 -7.5 3.05 -5.5 3.05 -5.5 4.05 -4.5 4.05 -4.5 5.05 -2.5 5.05 -2.5 6.05 -0.5 6.05 -0.5 5.05 -1.5 5.05 -1.5 4.05 -3.5 4.05 -3.5 3.05 -4.5 3.05 -4.5 2.05 -2.5 2.05 -2.5 1.05 -0.5 1.05 2.5 1.05 2.5 0.05 -0.5 0.05 -0.5 -0.95 -1.5 -0.95 -1.5 -2.95" fill="#ff47aa" fill-rule="evenodd" stroke="none"/>
    <path d="M-5.5 6.05 L-3.5 6.05 -3.5 7.05 -2.5 7.05 -2.5 8.05 -3.5 8.05 -3.5 9.05 -2.5 9.05 -2.5 10.05 -4.5 10.05 -4.5 9.05 -5.5 9.05 -5.5 8.05 -6.5 8.05 -6.5 7.05 -5.5 7.05 -5.5 6.05 M1.5 9.05 L4.5 9.05 4.5 10.05 6.5 10.05 6.5 11.0 3.5 11.0 3.5 10.05 2.5 10.05 2.5 11.0 1.5 11.0 1.5 9.05 M-0.5 1.05 L-0.5 0.05 2.5 0.05 2.5 1.05 -0.5 1.05" fill="#0000aa" fill-rule="evenodd" stroke="none"/>
  </g>
</svg>
