<?xml version="1.0" encoding="UTF-8" standalone="no"?>
<svg xmlns:ffdec="https://www.free-decompiler.com/flash" xmlns:xlink="http://www.w3.org/1999/xlink" ffdec:objectType="shape" height="8.0px" width="16.0px" xmlns="http://www.w3.org/2000/svg">
  <g transform="matrix(1.0, 0.0, 0.0, 1.0, 8.0, 0.0)">
    <path d="M8.0 2.0 L8.0 5.0 7.0 5.0 7.0 4.0 6.0 4.0 6.0 3.0 5.0 3.0 5.0 2.0 8.0 2.0 M-8.0 4.0 L-8.0 2.0 -6.0 2.0 -6.0 3.0 -7.0 3.0 -7.0 4.0 -8.0 4.0 M6.0 6.0 L1.0 6.0 1.0 5.0 2.0 5.0 2.0 4.0 3.0 4.0 3.0 3.0 4.0 3.0 4.0 4.0 5.0 4.0 5.0 5.0 6.0 5.0 6.0 6.0 M2.0 2.0 L2.0 3.0 1.0 3.0 1.0 4.0 0.0 4.0 0.0 5.0 -1.0 5.0 -1.0 4.0 -2.0 4.0 -2.0 3.0 -3.0 3.0 -3.0 2.0 2.0 2.0 M-4.0 3.0 L-4.0 4.0 -3.0 4.0 -3.0 5.0 -2.0 5.0 -2.0 6.0 -7.0 6.0 -7.0 5.0 -6.0 5.0 -6.0 4.0 -5.0 4.0 -5.0 3.0 -4.0 3.0" fill="#000000" fill-rule="evenodd" stroke="none"/>
    <path d="M8.0 5.0 L8.0 7.0 -8.0 7.0 -8.0 4.0 -7.0 4.0 -7.0 3.0 -6.0 3.0 -6.0 2.0 -3.0 2.0 -3.0 3.0 -2.0 3.0 -2.0 4.0 -1.0 4.0 -1.0 5.0 0.0 5.0 0.0 4.0 1.0 4.0 1.0 3.0 2.0 3.0 2.0 2.0 5.0 2.0 5.0 3.0 6.0 3.0 6.0 4.0 7.0 4.0 7.0 5.0 8.0 5.0 M-8.0 1.0 L-8.0 0.0 8.0 0.0 8.0 1.0 -8.0 1.0 M6.0 6.0 L6.0 5.0 5.0 5.0 5.0 4.0 4.0 4.0 4.0 3.0 3.0 3.0 3.0 4.0 2.0 4.0 2.0 5.0 1.0 5.0 1.0 6.0 6.0 6.0 M-4.0 3.0 L-5.0 3.0 -5.0 4.0 -6.0 4.0 -6.0 5.0 -7.0 5.0 -7.0 6.0 -2.0 6.0 -2.0 5.0 -3.0 5.0 -3.0 4.0 -4.0 4.0 -4.0 3.0" fill="#ff2155" fill-rule="evenodd" stroke="none"/>
    <path d="M8.0 1.0 L8.0 2.0 5.0 2.0 2.0 2.0 -3.0 2.0 -6.0 2.0 -8.0 2.0 -8.0 1.0 8.0 1.0 M8.0 7.0 L8.0 8.0 -8.0 8.0 -8.0 7.0 8.0 7.0" fill="#970000" fill-rule="evenodd" stroke="none"/>
  </g>
</svg>
