<?xml version="1.0" encoding="UTF-8" standalone="no"?>
<svg xmlns:ffdec="https://www.free-decompiler.com/flash" xmlns:xlink="http://www.w3.org/1999/xlink" ffdec:objectType="shape" height="40.1px" width="8.5px" xmlns="http://www.w3.org/2000/svg">
  <g transform="matrix(1.0, 0.0, 0.0, 1.0, 4.25, 40.1)">
    <path d="M3.2 -11.7 L3.2 -14.9 -3.2 -14.9 -3.2 -11.7 3.2 -11.7 M3.2 -3.15 L3.2 -6.35 -3.2 -6.35 -3.2 -3.15 3.2 -3.15 M3.2 -7.45 L3.2 -10.65 -3.2 -10.65 -3.2 -7.45 3.2 -7.45 M3.2 -24.55 L3.2 -27.75 -3.2 -27.75 -3.2 -24.55 3.2 -24.55 M3.2 -16.0 L3.2 -19.2 -3.2 -19.2 -3.2 -16.0 3.2 -16.0 M3.2 -20.25 L3.2 -23.45 -3.2 -23.45 -3.2 -20.25 3.2 -20.25 M3.2 -28.8 L3.2 -31.5 4.25 -31.5 4.25 0.0 3.2 0.0 3.2 -2.1 -3.2 -2.1 -3.2 0.0 -4.25 0.0 -4.25 -31.5 -3.2 -31.5 -3.2 -28.8 3.2 -28.8" fill="#ffba00" fill-rule="evenodd" stroke="none"/>
    <path d="M4.1 -31.8 L-4.2 -31.8 -4.2 -40.1 4.1 -40.1 4.1 -31.8" fill="#000000" fill-rule="evenodd" stroke="none"/>
  </g>
</svg>
