<?xml version="1.0" encoding="UTF-8" standalone="no"?>
<svg xmlns:ffdec="https://www.free-decompiler.com/flash" xmlns:xlink="http://www.w3.org/1999/xlink" ffdec:objectType="shape" height="10.0px" width="16.0px" xmlns="http://www.w3.org/2000/svg">
  <g transform="matrix(1.0, 0.0, 0.0, 1.0, 8.0, 5.0)">
    <path d="M-6.0 -4.0 L-5.0 -4.0 -5.0 -5.0 5.0 -5.0 5.0 -4.0 6.0 -4.0 6.0 -3.0 4.0 -3.0 4.0 -4.0 -4.0 -4.0 -4.0 -3.0 -6.0 -3.0 -6.0 -4.0 M7.0 -3.0 L8.0 -3.0 8.0 -2.0 7.0 -2.0 7.0 -3.0 M8.0 -1.0 L8.0 1.0 7.0 1.0 7.0 -1.0 8.0 -1.0 M8.0 2.0 L8.0 3.0 7.0 3.0 7.0 2.0 8.0 2.0 M6.0 4.0 L5.0 4.0 5.0 5.0 -5.0 5.0 -5.0 4.0 -6.0 4.0 -6.0 3.0 -4.0 3.0 -4.0 4.0 4.0 4.0 4.0 3.0 6.0 3.0 6.0 4.0 M-7.0 3.0 L-8.0 3.0 -8.0 2.0 -7.0 2.0 -7.0 3.0 M-8.0 1.0 L-8.0 -1.0 -7.0 -1.0 -7.0 1.0 -8.0 1.0 M-8.0 -2.0 L-8.0 -3.0 -7.0 -3.0 -7.0 -2.0 -8.0 -2.0 M-6.0 -2.0 L6.0 -2.0 6.0 2.0 -6.0 2.0 -6.0 -2.0" fill="#ff6800" fill-rule="evenodd" stroke="none"/>
    <path d="M8.0 -2.0 L8.0 -1.0 7.0 -1.0 7.0 -2.0 8.0 -2.0 M8.0 1.0 L8.0 2.0 7.0 2.0 7.0 1.0 8.0 1.0 M-8.0 2.0 L-8.0 1.0 -7.0 1.0 -7.0 2.0 -8.0 2.0 M-8.0 -1.0 L-8.0 -2.0 -7.0 -2.0 -7.0 -1.0 -8.0 -1.0 M-6.0 -3.0 L-4.0 -3.0 -4.0 -4.0 4.0 -4.0 4.0 -3.0 6.0 -3.0 6.0 -2.0 -6.0 -2.0 -6.0 -3.0 M6.0 2.0 L6.0 3.0 4.0 3.0 4.0 4.0 -4.0 4.0 -4.0 3.0 -6.0 3.0 -6.0 2.0 6.0 2.0" fill="#ffb855" fill-rule="evenodd" stroke="none"/>
    <path d="M6.0 -4.0 L7.0 -4.0 7.0 -3.0 7.0 -2.0 7.0 -1.0 7.0 1.0 7.0 2.0 7.0 3.0 7.0 4.0 6.0 4.0 6.0 3.0 6.0 2.0 6.0 -2.0 6.0 -3.0 6.0 -4.0 M-6.0 4.0 L-7.0 4.0 -7.0 3.0 -7.0 2.0 -7.0 1.0 -7.0 -1.0 -7.0 -2.0 -7.0 -3.0 -7.0 -4.0 -6.0 -4.0 -6.0 -3.0 -6.0 -2.0 -6.0 2.0 -6.0 3.0 -6.0 4.0" fill="#0000ff" fill-rule="evenodd" stroke="none"/>
  </g>
</svg>
