<?xml version="1.0" encoding="UTF-8" standalone="no"?>
<svg xmlns:ffdec="https://www.free-decompiler.com/flash" xmlns:xlink="http://www.w3.org/1999/xlink" ffdec:objectType="shape" height="8.55px" width="48.1px" xmlns="http://www.w3.org/2000/svg">
  <g transform="matrix(1.0, 0.0, 0.0, 1.0, 24.05, 0.0)">
    <path d="M24.05 1.1 L-24.05 1.1 -24.05 0.0 24.05 0.0 24.05 1.1" fill="#0000fc" fill-rule="evenodd" stroke="none"/>
    <path d="M5.95 2.15 L1.65 2.15 -1.55 2.15 -5.8 2.15 -10.05 2.15 -14.35 2.15 -17.55 2.15 -21.8 2.15 -24.05 2.15 -24.05 1.1 24.05 1.1 24.05 2.15 21.95 2.15 17.65 2.15 14.45 2.15 10.2 2.15 5.95 2.15 M24.05 7.5 L24.05 8.55 -24.05 8.55 -24.05 7.5 24.05 7.5" fill="#00ffff" fill-rule="evenodd" stroke="none"/>
    <path d="M1.65 2.15 L1.65 3.2 0.6 3.2 0.6 5.35 1.65 5.35 1.65 6.4 5.95 6.4 5.95 5.35 7.0 5.35 7.0 3.2 5.95 3.2 5.95 2.15 10.2 2.15 10.2 3.2 9.15 3.2 9.15 5.35 10.2 5.35 10.2 6.4 14.45 6.4 14.45 5.35 15.55 5.35 15.55 3.2 14.45 3.2 14.45 2.15 17.65 2.15 17.65 3.2 16.6 3.2 16.6 5.35 17.65 5.35 17.65 6.4 21.95 6.4 21.95 5.35 23.0 5.35 23.0 3.2 21.95 3.2 21.95 2.15 24.05 2.15 24.05 7.5 -24.05 7.5 -24.05 2.15 -21.8 2.15 -21.8 3.2 -22.85 3.2 -22.85 5.35 -21.8 5.35 -21.8 6.4 -17.55 6.4 -17.55 5.35 -16.45 5.35 -16.45 3.2 -17.55 3.2 -17.55 2.15 -14.35 2.15 -14.35 3.2 -15.4 3.2 -15.4 5.35 -14.35 5.35 -14.35 6.4 -10.05 6.4 -10.05 5.35 -9.0 5.35 -9.0 3.2 -10.05 3.2 -10.05 2.15 -5.8 2.15 -5.8 3.2 -6.85 3.2 -6.85 5.35 -5.8 5.35 -5.8 6.4 -1.55 6.4 -1.55 5.35 -0.45 5.35 -0.45 3.2 -1.55 3.2 -1.55 2.15 1.65 2.15" fill="#0000ff" fill-rule="evenodd" stroke="none"/>
    <path d="M1.65 2.15 L5.95 2.15 5.95 3.2 7.0 3.2 7.0 5.35 5.95 5.35 5.95 6.4 1.65 6.4 1.65 5.35 0.6 5.35 0.6 3.2 1.65 3.2 1.65 2.15 M10.2 2.15 L14.45 2.15 14.45 3.2 15.55 3.2 15.55 5.35 14.45 5.35 14.45 6.4 10.2 6.4 10.2 5.35 9.15 5.35 9.15 3.2 10.2 3.2 10.2 2.15 M17.65 2.15 L21.95 2.15 21.95 3.2 23.0 3.2 23.0 5.35 21.95 5.35 21.95 6.4 17.65 6.4 17.65 5.35 16.6 5.35 16.6 3.2 17.65 3.2 17.65 2.15 M-21.8 2.15 L-17.55 2.15 -17.55 3.2 -16.45 3.2 -16.45 5.35 -17.55 5.35 -17.55 6.4 -21.8 6.4 -21.8 5.35 -22.85 5.35 -22.85 3.2 -21.8 3.2 -21.8 2.15 M-14.35 2.15 L-10.05 2.15 -10.05 3.2 -9.0 3.2 -9.0 5.35 -10.05 5.35 -10.05 6.4 -14.35 6.4 -14.35 5.35 -15.4 5.35 -15.4 3.2 -14.35 3.2 -14.35 2.15 M-5.8 2.15 L-1.55 2.15 -1.55 3.2 -0.45 3.2 -0.45 5.35 -1.55 5.35 -1.55 6.4 -5.8 6.4 -5.8 5.35 -6.85 5.35 -6.85 3.2 -5.8 3.2 -5.8 2.15" fill="#000000" fill-rule="evenodd" stroke="none"/>
  </g>
</svg>
