<?xml version="1.0" encoding="UTF-8" standalone="no"?>
<svg xmlns:ffdec="https://www.free-decompiler.com/flash" xmlns:xlink="http://www.w3.org/1999/xlink" ffdec:objectType="shape" height="8.55px" width="33.85px" xmlns="http://www.w3.org/2000/svg">
  <g transform="matrix(1.0, 0.0, 0.0, 1.0, 16.9, 0.0)">
    <path d="M16.95 1.1 L-16.9 1.1 -16.9 0.0 16.95 0.0 16.95 1.1" fill="#0000fc" fill-rule="evenodd" stroke="none"/>
    <path d="M8.8 2.15 L5.6 2.15 1.35 2.15 -2.9 2.15 -7.2 2.15 -10.4 2.15 -14.65 2.15 -16.9 2.15 -16.9 1.1 16.95 1.1 16.95 2.15 13.1 2.15 8.8 2.15 M16.95 7.5 L16.95 8.55 -16.9 8.55 -16.9 7.5 16.95 7.5" fill="#00ffff" fill-rule="evenodd" stroke="none"/>
    <path d="M5.6 2.15 L8.8 2.15 8.8 3.2 7.75 3.2 7.75 5.35 8.8 5.35 8.8 6.4 13.1 6.4 13.1 5.35 14.15 5.35 14.15 3.2 13.1 3.2 13.1 2.15 16.95 2.15 16.95 3.2 16.3 3.2 16.3 5.35 16.95 5.35 16.95 7.5 -16.9 7.5 -16.9 2.15 -14.65 2.15 -14.65 3.2 -15.7 3.2 -15.7 5.35 -14.65 5.35 -14.65 6.4 -10.4 6.4 -10.4 5.35 -9.3 5.35 -9.3 3.2 -10.4 3.2 -10.4 2.15 -7.2 2.15 -7.2 3.2 -8.25 3.2 -8.25 5.35 -7.2 5.35 -7.2 6.4 -2.9 6.4 -2.9 5.35 -1.85 5.35 -1.85 3.2 -2.9 3.2 -2.9 2.15 1.35 2.15 1.35 3.2 0.3 3.2 0.3 5.35 1.35 5.35 1.35 6.4 5.6 6.4 5.6 5.35 6.7 5.35 6.7 3.2 5.6 3.2 5.6 2.15" fill="#0000ff" fill-rule="evenodd" stroke="none"/>
    <path d="M8.8 2.15 L13.1 2.15 13.1 3.2 14.15 3.2 14.15 5.35 13.1 5.35 13.1 6.4 8.8 6.4 8.8 5.35 7.75 5.35 7.75 3.2 8.8 3.2 8.8 2.15 M-14.65 2.15 L-10.4 2.15 -10.4 3.2 -9.3 3.2 -9.3 5.35 -10.4 5.35 -10.4 6.4 -14.65 6.4 -14.65 5.35 -15.7 5.35 -15.7 3.2 -14.65 3.2 -14.65 2.15 M-7.2 2.15 L-2.9 2.15 -2.9 3.2 -1.85 3.2 -1.85 5.35 -2.9 5.35 -2.9 6.4 -7.2 6.4 -7.2 5.35 -8.25 5.35 -8.25 3.2 -7.2 3.2 -7.2 2.15 M1.35 2.15 L5.6 2.15 5.6 3.2 6.7 3.2 6.7 5.35 5.6 5.35 5.6 6.4 1.35 6.4 1.35 5.35 0.3 5.35 0.3 3.2 1.35 3.2 1.35 2.15 M16.95 5.35 L16.3 5.35 16.3 3.2 16.95 3.2 16.95 5.35" fill="#000000" fill-rule="evenodd" stroke="none"/>
  </g>
</svg>
