<?xml version="1.0" encoding="UTF-8" standalone="no"?>
<svg xmlns:ffdec="https://www.free-decompiler.com/flash" xmlns:xlink="http://www.w3.org/1999/xlink" ffdec:objectType="shape" height="9.4px" width="15.05px" xmlns="http://www.w3.org/2000/svg">
  <g transform="matrix(1.0, 0.0, 0.0, 1.0, 7.55, 4.7)">
    <path d="M-5.7 -3.75 L-4.75 -3.75 -4.75 -4.7 4.65 -4.7 4.65 -3.75 5.6 -3.75 5.6 -2.8 3.7 -2.8 3.7 -3.75 -3.8 -3.75 -3.8 -2.8 -5.7 -2.8 -5.7 -3.75 M6.55 -2.8 L7.5 -2.8 7.5 -1.85 6.55 -1.85 6.55 -2.8 M7.5 -0.95 L7.5 0.95 6.55 0.95 6.55 -0.95 7.5 -0.95 M7.5 1.9 L7.5 2.85 6.55 2.85 6.55 1.9 7.5 1.9 M5.6 3.75 L4.65 3.75 4.65 4.7 -4.75 4.7 -4.75 3.75 -5.7 3.75 -5.7 2.85 -3.8 2.85 -3.8 3.75 3.7 3.75 3.7 2.85 5.6 2.85 5.6 3.75 M-6.6 2.85 L-7.55 2.85 -7.55 1.9 -6.6 1.9 -6.6 2.85 M-7.55 0.95 L-7.55 -0.95 -6.6 -0.95 -6.6 0.95 -7.55 0.95 M-7.55 -1.85 L-7.55 -2.8 -6.6 -2.8 -6.6 -1.85 -7.55 -1.85 M5.6 -1.85 L5.6 1.9 -5.7 1.9 -5.7 -1.85 5.6 -1.85" fill="#00ffff" fill-rule="evenodd" stroke="none"/>
    <path d="M-5.7 -3.75 L-5.7 -2.8 -5.7 -1.85 -5.7 1.9 -5.7 2.85 -5.7 3.75 -6.6 3.75 -6.6 2.85 -6.6 1.9 -6.6 0.95 -6.6 -0.95 -6.6 -1.85 -6.6 -2.8 -6.6 -3.75 -5.7 -3.75 M5.6 -2.8 L5.6 -3.75 6.55 -3.75 6.55 -2.8 6.55 -1.85 6.55 -0.95 6.55 0.95 6.55 1.9 6.55 2.85 6.55 3.75 5.6 3.75 5.6 2.85 5.6 1.9 5.6 -1.85 5.6 -2.8" fill="#ffffff" fill-rule="evenodd" stroke="none"/>
    <path d="M-5.7 -2.8 L-3.8 -2.8 -3.8 -3.75 3.7 -3.75 3.7 -2.8 5.6 -2.8 5.6 -1.85 -5.7 -1.85 -5.7 -2.8 M7.5 -1.85 L7.5 -0.95 6.55 -0.95 6.55 -1.85 7.5 -1.85 M7.5 0.95 L7.5 1.9 6.55 1.9 6.55 0.95 7.5 0.95 M-7.55 1.9 L-7.55 0.95 -6.6 0.95 -6.6 1.9 -7.55 1.9 M-7.55 -0.95 L-7.55 -1.85 -6.6 -1.85 -6.6 -0.95 -7.55 -0.95 M5.6 1.9 L5.6 2.85 3.7 2.85 3.7 3.75 -3.8 3.75 -3.8 2.85 -5.7 2.85 -5.7 1.9 5.6 1.9" fill="#0000ff" fill-rule="evenodd" stroke="none"/>
  </g>
</svg>
