<?xml version="1.0" encoding="UTF-8" standalone="no"?>
<svg xmlns:ffdec="https://www.free-decompiler.com/flash" xmlns:xlink="http://www.w3.org/1999/xlink" ffdec:objectType="shape" height="32.0px" width="43.0px" xmlns="http://www.w3.org/2000/svg">
  <g transform="matrix(1.0, 0.0, 0.0, 1.0, 21.5, 16.0)">
    <path d="M-15.5 -14.0 L-15.5 -13.0 -16.5 -13.0 -16.5 -11.0 -16.5 -10.0 -18.5 -10.0 -19.5 -10.0 -19.5 -9.0 -20.5 -9.0 -20.5 -7.0 -21.5 -7.0 -21.5 -5.0 -20.5 -5.0 -20.5 -4.0 -19.5 -4.0 -19.5 -3.0 -18.5 -3.0 -18.5 -2.0 -15.5 -2.0 -15.5 -1.0 -12.5 -1.0 -11.5 -1.0 -11.5 -2.0 -10.5 -2.0 -10.5 -4.0 -9.5 -4.0 -9.5 -5.0 -8.5 -5.0 -8.5 -6.0 -7.5 -6.0 -7.5 -8.0 -5.5 -8.0 -5.5 -10.0 -6.5 -10.0 -6.5 -11.0 -8.5 -11.0 -8.5 -10.0 -9.5 -10.0 -9.5 -8.0 -8.5 -8.0 -8.5 -7.0 -9.5 -7.0 -9.5 -6.0 -10.5 -6.0 -10.5 -5.0 -11.5 -5.0 -11.5 -6.0 -12.5 -6.0 -12.5 -7.0 -13.5 -7.0 -13.5 -8.0 -12.5 -8.0 -12.5 -9.0 -11.5 -9.0 -11.5 -10.0 -10.5 -10.0 -10.5 -11.0 -9.5 -11.0 -9.5 -12.0 -10.5 -12.0 -10.5 -13.0 -12.5 -13.0 -12.5 -14.0 -15.5 -14.0 M-17.5 8.0 L-21.5 8.0 -21.5 10.0 -19.5 10.0 -19.5 12.0 -20.5 12.0 -20.5 13.0 -21.5 13.0 -21.5 15.0 -20.5 15.0 -20.5 16.0 -17.5 16.0 -17.5 15.0 -15.5 15.0 -15.5 14.0 -14.5 14.0 -14.5 13.0 -14.5 12.0 -16.5 12.0 -16.5 11.0 -17.5 11.0 -17.5 10.0 -16.5 10.0 -16.5 9.0 -17.5 9.0 -17.5 8.0 M-9.5 13.0 L-10.5 13.0 -10.5 14.0 -11.5 14.0 -11.5 13.0 -12.5 13.0 -12.5 14.0 -13.5 14.0 -13.5 16.0 -12.5 16.0 -12.5 14.0 -11.5 14.0 -11.5 16.0 -0.5 16.0 -0.5 15.0 -1.5 15.0 -1.5 14.0 -2.5 14.0 -2.5 13.0 -4.5 13.0 -4.5 14.0 -6.5 14.0 -6.5 13.0 -7.5 13.0 -7.5 14.0 -9.5 14.0 -9.5 13.0 M14.5 14.0 L13.5 14.0 13.5 15.0 12.5 15.0 12.5 16.0 13.5 16.0 13.5 15.0 14.5 15.0 14.5 16.0 15.5 16.0 15.5 15.0 16.5 15.0 16.5 16.0 19.5 16.0 19.5 15.0 20.5 15.0 20.5 13.0 20.5 9.0 20.5 8.0 19.5 8.0 19.5 10.0 18.5 10.0 18.5 12.0 19.5 12.0 19.5 14.0 18.5 14.0 18.5 13.0 17.5 13.0 17.5 15.0 16.5 15.0 16.5 14.0 14.5 14.0 M-5.5 3.0 L-5.5 4.0 -6.5 4.0 -6.5 5.0 -7.5 5.0 -7.5 6.0 -7.5 7.0 -6.5 7.0 -6.5 8.0 -3.5 8.0 -3.5 9.0 -2.5 9.0 -2.5 8.0 -3.5 8.0 -3.5 7.0 -5.5 7.0 -5.5 6.0 -6.5 6.0 -6.5 5.0 -5.5 5.0 -5.5 6.0 -4.5 6.0 -4.5 5.0 -3.5 5.0 -3.5 3.0 -5.5 3.0 M-15.5 -11.0 L-15.5 -12.0 -13.5 -12.0 -13.5 -10.0 -14.5 -10.0 -15.5 -10.0 -15.5 -11.0 M-14.5 -4.0 L-15.5 -4.0 -15.5 -5.0 -14.5 -5.0 -14.5 -4.0 -13.5 -4.0 -13.5 -3.0 -14.5 -3.0 -14.5 -4.0 M-15.5 -5.0 L-20.5 -5.0 -20.5 -6.0 -15.5 -6.0 -15.5 -5.0 M-9.5 15.0 L-10.5 15.0 -10.5 14.0 -9.5 14.0 -9.5 15.0 M-19.5 14.0 L-18.5 14.0 -18.5 13.0 -17.5 13.0 -17.5 14.0 -18.5 14.0 -18.5 15.0 -19.5 15.0 -19.5 14.0" fill="#ffb855" fill-rule="evenodd" stroke="none"/>
    <path d="M-16.5 -11.0 L-18.5 -11.0 -18.5 -10.0 -16.5 -10.0 -16.5 -11.0 M-12.5 -1.0 L-12.5 0.0 -13.5 0.0 -13.5 2.0 -14.5 2.0 -14.5 4.0 -15.5 4.0 -15.5 5.0 -16.5 5.0 -16.5 7.0 -17.5 7.0 -17.5 8.0 -17.5 9.0 -16.5 9.0 -16.5 10.0 -17.5 10.0 -17.5 11.0 -16.5 11.0 -16.5 12.0 -14.5 12.0 -14.5 13.0 -13.5 13.0 -13.5 12.0 -12.5 12.0 -12.5 10.0 -11.5 10.0 -11.5 9.0 -10.5 9.0 -10.5 8.0 -9.5 8.0 -9.5 10.0 -10.5 10.0 -10.5 12.0 -9.5 12.0 -9.5 13.0 -9.5 14.0 -7.5 14.0 -7.5 13.0 -6.5 13.0 -6.5 14.0 -4.5 14.0 -4.5 13.0 -2.5 13.0 -2.5 14.0 -1.5 14.0 -1.5 15.0 -0.5 15.0 -0.5 13.0 -1.5 13.0 -1.5 11.0 0.5 11.0 0.5 10.0 -1.5 10.0 -1.5 9.0 -2.5 9.0 -3.5 9.0 -3.5 8.0 -6.5 8.0 -6.5 7.0 -7.5 7.0 -8.5 7.0 -8.5 8.0 -9.5 8.0 -9.5 7.0 -8.5 7.0 -8.5 6.0 -7.5 6.0 -7.5 5.0 -6.5 5.0 -6.5 4.0 -5.5 4.0 -5.5 3.0 -5.5 2.0 -4.5 2.0 -4.5 1.0 -3.5 1.0 -3.5 0.0 -2.5 0.0 -2.5 -1.0 -1.5 -1.0 -1.5 -3.0 -0.5 -3.0 -0.5 -8.0 -1.5 -8.0 -1.5 -9.0 0.5 -9.0 0.5 -2.0 -0.5 -2.0 -0.5 0.0 -1.5 0.0 -1.5 1.0 -2.5 1.0 -2.5 2.0 -3.5 2.0 -3.5 3.0 -3.5 5.0 -1.5 5.0 -1.5 6.0 0.5 6.0 0.5 7.0 2.5 7.0 2.5 8.0 4.5 8.0 4.5 9.0 5.5 9.0 5.5 11.0 6.5 11.0 6.5 12.0 7.5 12.0 7.5 13.0 14.5 13.0 14.5 14.0 16.5 14.0 16.5 15.0 17.5 15.0 17.5 13.0 18.5 13.0 18.5 14.0 19.5 14.0 19.5 12.0 18.5 12.0 18.5 10.0 19.5 10.0 19.5 8.0 17.5 8.0 17.5 9.0 15.5 9.0 15.5 8.0 14.5 8.0 14.5 7.0 14.5 4.0 13.5 4.0 13.5 3.0 12.5 3.0 12.5 2.0 11.5 2.0 10.5 2.0 10.5 1.0 9.5 1.0 9.5 0.0 7.5 0.0 7.5 -2.0 6.5 -2.0 6.5 -6.0 5.5 -6.0 5.5 -8.0 4.5 -8.0 4.5 -9.0 3.5 -9.0 3.5 -10.0 1.5 -10.0 1.5 -11.0 -2.5 -11.0 -2.5 -12.0 -1.5 -12.0 -1.5 -13.0 -2.5 -13.0 -2.5 -12.0 -5.5 -12.0 -5.5 -13.0 -5.5 -14.0 -6.5 -14.0 -6.5 -15.0 -8.5 -15.0 -8.5 -16.0 -14.5 -16.0 -14.5 -15.0 -15.5 -15.0 -15.5 -14.0 -12.5 -14.0 -12.5 -13.0 -10.5 -13.0 -10.5 -12.0 -9.5 -12.0 -9.5 -11.0 -10.5 -11.0 -10.5 -10.0 -11.5 -10.0 -11.5 -9.0 -12.5 -9.0 -12.5 -8.0 -13.5 -8.0 -13.5 -7.0 -12.5 -7.0 -12.5 -6.0 -11.5 -6.0 -11.5 -5.0 -10.5 -5.0 -10.5 -6.0 -9.5 -6.0 -9.5 -7.0 -8.5 -7.0 -8.5 -8.0 -9.5 -8.0 -9.5 -10.0 -8.5 -10.0 -8.5 -11.0 -6.5 -11.0 -6.5 -10.0 -5.5 -10.0 -5.5 -8.0 -7.5 -8.0 -7.5 -6.0 -8.5 -6.0 -8.5 -5.0 -9.5 -5.0 -9.5 -4.0 -10.5 -4.0 -10.5 -2.0 -11.5 -2.0 -11.5 -1.0 -12.5 -1.0 M-15.5 -11.0 L-15.5 -10.0 -14.5 -10.0 -14.5 -11.0 -15.5 -11.0 M-14.5 -4.0 L-14.5 -5.0 -15.5 -5.0 -15.5 -4.0 -14.5 -4.0 -14.5 -3.0 -13.5 -3.0 -13.5 -4.0 -14.5 -4.0 M-15.5 -5.0 L-15.5 -6.0 -20.5 -6.0 -20.5 -5.0 -15.5 -5.0 M-9.5 15.0 L-9.5 14.0 -10.5 14.0 -10.5 15.0 -9.5 15.0" fill="#b80000" fill-rule="evenodd" stroke="none"/>
    <path d="M-10.5 13.0 L-11.5 13.0 -11.5 14.0 -10.5 14.0 -10.5 13.0 M-12.5 16.0 L-11.5 16.0 -11.5 14.0 -12.5 14.0 -12.5 16.0 M0.5 11.0 L5.5 11.0 5.5 9.0 4.5 9.0 4.5 8.0 2.5 8.0 2.5 7.0 0.5 7.0 0.5 6.0 -1.5 6.0 -1.5 5.0 -3.5 5.0 -4.5 5.0 -4.5 6.0 -5.5 6.0 -5.5 5.0 -6.5 5.0 -6.5 6.0 -5.5 6.0 -5.5 7.0 -3.5 7.0 -3.5 8.0 -2.5 8.0 -2.5 9.0 -1.5 9.0 -1.5 10.0 0.5 10.0 0.5 11.0 M13.5 16.0 L14.5 16.0 14.5 15.0 13.5 15.0 13.5 16.0 M15.5 16.0 L16.5 16.0 16.5 15.0 15.5 15.0 15.5 16.0 M20.5 13.0 L21.5 13.0 21.5 9.0 20.5 9.0 20.5 13.0 M17.5 8.0 L16.5 8.0 16.5 7.0 14.5 7.0 14.5 8.0 15.5 8.0 15.5 9.0 17.5 9.0 17.5 8.0 M11.5 2.0 L11.5 1.0 10.5 1.0 10.5 0.0 9.5 0.0 9.5 -1.0 8.5 -1.0 8.5 -3.0 7.5 -3.0 7.5 -6.0 6.5 -6.0 6.5 -8.0 5.5 -8.0 5.5 -9.0 4.5 -9.0 4.5 -10.0 3.5 -10.0 3.5 -11.0 1.5 -11.0 1.5 -12.0 -1.5 -12.0 -2.5 -12.0 -2.5 -11.0 1.5 -11.0 1.5 -10.0 3.5 -10.0 3.5 -9.0 4.5 -9.0 4.5 -8.0 5.5 -8.0 5.5 -6.0 6.5 -6.0 6.5 -2.0 7.5 -2.0 7.5 0.0 9.5 0.0 9.5 1.0 10.5 1.0 10.5 2.0 11.5 2.0 M-2.5 -13.0 L-5.5 -13.0 -5.5 -12.0 -2.5 -12.0 -2.5 -13.0 M-3.5 3.0 L-3.5 2.0 -2.5 2.0 -2.5 1.0 -1.5 1.0 -1.5 0.0 -0.5 0.0 -0.5 -2.0 0.5 -2.0 0.5 -9.0 -1.5 -9.0 -1.5 -8.0 -0.5 -8.0 -0.5 -3.0 -1.5 -3.0 -1.5 -1.0 -2.5 -1.0 -2.5 0.0 -3.5 0.0 -3.5 1.0 -4.5 1.0 -4.5 2.0 -5.5 2.0 -5.5 3.0 -3.5 3.0 M-19.5 14.0 L-19.5 15.0 -18.5 15.0 -18.5 14.0 -17.5 14.0 -17.5 13.0 -18.5 13.0 -18.5 14.0 -19.5 14.0" fill="#ff6800" fill-rule="evenodd" stroke="none"/>
    <path d="M-14.5 -10.0 L-13.5 -10.0 -13.5 -12.0 -15.5 -12.0 -15.5 -11.0 -14.5 -11.0 -14.5 -10.0" fill="#ffffff" fill-rule="evenodd" stroke="none"/>
  </g>
</svg>
