<?xml version="1.0" encoding="UTF-8" standalone="no"?>
<svg xmlns:ffdec="https://www.free-decompiler.com/flash" xmlns:xlink="http://www.w3.org/1999/xlink" ffdec:objectType="shape" height="34.0px" width="31.0px" xmlns="http://www.w3.org/2000/svg">
  <g transform="matrix(1.0, 0.0, 0.0, 1.0, 15.5, 17.0)">
    <path d="M-7.5 2.0 L-7.5 0.0 -6.5 0.0 -6.5 -1.0 -7.5 -1.0 -7.5 -2.0 -10.5 -2.0 -10.5 -3.0 -12.5 -3.0 -12.5 -4.0 -13.5 -4.0 -13.5 -5.0 -14.5 -5.0 -14.5 -6.0 -15.5 -6.0 -15.5 -9.0 -14.5 -9.0 -14.5 -10.0 -13.5 -10.0 -13.5 -11.0 -11.5 -11.0 -11.5 -12.0 -8.5 -12.0 -8.5 -13.0 -6.5 -13.0 -6.5 -12.0 -4.5 -12.0 -4.5 -11.0 -3.5 -11.0 -3.5 -10.0 -3.5 -9.0 -4.5 -9.0 -4.5 -8.0 -5.5 -8.0 -5.5 -7.0 -6.5 -7.0 -9.5 -7.0 -9.5 -8.0 -11.5 -8.0 -11.5 -7.0 -10.5 -7.0 -10.5 -6.0 -6.5 -6.0 -5.5 -6.0 -1.5 -6.0 -1.5 -5.0 -0.5 -5.0 -0.5 -6.0 -1.5 -6.0 -1.5 -7.0 -2.5 -7.0 -2.5 -8.0 -1.5 -8.0 -1.5 -11.0 0.5 -11.0 0.5 -12.0 1.5 -12.0 1.5 -13.0 4.5 -13.0 4.5 -12.0 5.5 -12.0 5.5 -11.0 7.5 -11.0 7.5 -9.0 8.5 -9.0 8.5 -8.0 9.5 -8.0 9.5 -7.0 7.5 -7.0 7.5 -6.0 9.5 -6.0 9.5 -7.0 10.5 -7.0 10.5 -8.0 9.5 -8.0 9.5 -9.0 8.5 -9.0 8.5 -11.0 7.5 -11.0 7.5 -12.0 7.5 -13.0 7.5 -14.0 8.5 -14.0 8.5 -15.0 7.5 -15.0 7.5 -16.0 9.5 -16.0 9.5 -17.0 10.5 -17.0 10.5 -16.0 11.5 -16.0 12.5 -16.0 12.5 -14.0 13.5 -14.0 13.5 -12.0 14.5 -12.0 14.5 -10.0 15.5 -10.0 15.5 -6.0 14.5 -6.0 14.5 -4.0 13.5 -4.0 13.5 -1.0 12.5 -1.0 12.5 0.0 13.5 0.0 13.5 0.6 13.45 0.6 13.45 2.0 12.5 2.0 12.5 3.0 13.5 3.0 13.5 5.0 13.5 7.0 14.5 7.0 14.5 8.0 15.5 8.0 15.5 9.0 13.5 9.0 13.5 12.0 12.5 12.0 12.5 14.0 13.5 14.0 13.5 15.0 11.5 15.0 11.5 14.0 9.5 14.0 9.5 13.0 4.5 13.0 4.5 14.0 3.5 14.0 3.5 12.0 4.5 12.0 4.5 11.0 5.5 11.0 5.5 9.0 7.5 9.0 7.5 8.0 8.5 8.0 8.5 7.0 9.5 7.0 9.5 6.0 10.5 6.0 10.5 5.0 11.5 5.0 11.5 4.0 10.5 4.0 10.5 5.0 9.5 5.0 9.5 6.0 8.5 6.0 8.5 7.0 4.5 7.0 4.5 6.0 2.5 6.0 2.5 7.0 -2.5 7.0 -2.5 6.0 -3.5 6.0 -3.5 5.0 -4.5 5.0 -4.5 4.0 -5.5 4.0 -5.5 5.0 -4.5 5.0 -4.5 6.0 -3.5 6.0 -3.5 7.0 -2.5 7.0 -2.5 8.0 -1.5 8.0 -1.5 9.0 -2.5 9.0 -5.5 9.0 -7.5 9.0 -7.5 10.0 -8.5 10.0 -8.5 9.0 -10.5 9.0 -10.5 8.0 -11.5 8.0 -11.5 7.0 -10.5 7.0 -10.5 5.0 -9.5 5.0 -9.5 4.0 -8.5 4.0 -8.5 3.0 -7.5 3.0 -7.5 2.0 M6.5 -6.0 L5.5 -6.0 5.5 -5.0 6.5 -5.0 6.5 -6.0 M12.5 -6.0 L13.5 -6.0 13.5 -8.0 12.5 -8.0 12.5 -6.0" fill="#bb0000" fill-rule="evenodd" stroke="none"/>
    <path d="M-1.5 -12.0 L-0.5 -12.0 -0.5 -13.0 1.5 -13.0 1.5 -12.0 0.5 -12.0 0.5 -11.0 -1.5 -11.0 -1.5 -8.0 -2.5 -8.0 -2.5 -7.0 -1.5 -7.0 -1.5 -6.0 -0.5 -6.0 -0.5 -5.0 -1.5 -5.0 -1.5 -6.0 -5.5 -6.0 -5.5 -7.0 -4.5 -7.0 -4.5 -8.0 -3.5 -8.0 -3.5 -9.0 -2.5 -9.0 -2.5 -10.0 -2.5 -11.0 -1.5 -11.0 -1.5 -12.0 M4.5 -13.0 L5.5 -13.0 5.5 -12.0 7.5 -12.0 7.5 -11.0 8.5 -11.0 8.5 -9.0 9.5 -9.0 9.5 -8.0 10.5 -8.0 10.5 -7.0 9.5 -7.0 9.5 -6.0 7.5 -6.0 7.5 -7.0 9.5 -7.0 9.5 -8.0 8.5 -8.0 8.5 -9.0 7.5 -9.0 7.5 -11.0 5.5 -11.0 5.5 -12.0 4.5 -12.0 4.5 -13.0 M13.45 2.0 L13.45 2.05 13.5 2.05 13.5 3.0 12.5 3.0 12.5 2.0 13.45 2.0 M13.5 5.0 L14.5 5.0 14.5 6.0 15.5 6.0 15.5 8.0 14.5 8.0 14.5 7.0 13.5 7.0 13.5 5.0 M11.5 17.0 L6.5 17.0 6.5 16.0 5.5 16.0 5.5 15.0 5.5 14.0 8.5 14.0 8.5 15.0 10.5 15.0 10.5 16.0 11.5 16.0 11.5 17.0 M5.5 9.0 L4.5 9.0 4.5 8.0 2.5 8.0 2.5 9.0 -1.5 9.0 -1.5 8.0 -2.5 8.0 -2.5 7.0 -3.5 7.0 -3.5 6.0 -4.5 6.0 -4.5 5.0 -5.5 5.0 -5.5 4.0 -4.5 4.0 -4.5 5.0 -3.5 5.0 -3.5 6.0 -2.5 6.0 -2.5 7.0 2.5 7.0 2.5 6.0 4.5 6.0 4.5 7.0 8.5 7.0 8.5 6.0 9.5 6.0 9.5 5.0 10.5 5.0 10.5 4.0 11.5 4.0 11.5 5.0 10.5 5.0 10.5 6.0 9.5 6.0 9.5 7.0 8.5 7.0 8.5 8.0 7.5 8.0 7.5 9.0 5.5 9.0 M-1.5 10.0 L-1.5 11.0 -2.5 11.0 -2.5 12.0 -3.5 12.0 -3.5 13.0 -8.5 13.0 -8.5 12.0 -7.5 12.0 -7.5 11.0 -6.5 11.0 -6.5 10.0 -5.5 10.0 -5.5 9.0 -2.5 9.0 -2.5 10.0 -1.5 10.0 M-11.5 7.0 L-11.5 5.0 -10.5 5.0 -10.5 4.0 -9.5 4.0 -9.5 3.0 -8.5 3.0 -8.5 2.0 -7.5 2.0 -7.5 3.0 -8.5 3.0 -8.5 4.0 -9.5 4.0 -9.5 5.0 -10.5 5.0 -10.5 7.0 -11.5 7.0 M-6.5 -7.0 L-6.5 -6.0 -10.5 -6.0 -10.5 -7.0 -11.5 -7.0 -11.5 -8.0 -9.5 -8.0 -9.5 -7.0 -6.5 -7.0 M6.5 -14.0 L6.5 -15.0 7.5 -15.0 7.5 -14.0 6.5 -14.0 M12.5 -6.0 L12.5 -8.0 13.5 -8.0 13.5 -6.0 12.5 -6.0 M6.5 -6.0 L6.5 -5.0 5.5 -5.0 5.5 -6.0 6.5 -6.0" fill="#ff6900" fill-rule="evenodd" stroke="none"/>
    <path d="M-6.5 -13.0 L-4.5 -13.0 -4.5 -12.0 -3.5 -12.0 -3.5 -13.0 -1.5 -13.0 -1.5 -12.0 -2.5 -12.0 -2.5 -11.0 -2.5 -10.0 -3.5 -10.0 -3.5 -11.0 -4.5 -11.0 -4.5 -12.0 -6.5 -12.0 -6.5 -13.0 M7.5 -13.0 L6.5 -13.0 6.5 -14.0 5.5 -14.0 5.5 -16.0 6.5 -16.0 6.5 -17.0 9.5 -17.0 9.5 -16.0 7.5 -16.0 7.5 -15.0 8.5 -15.0 8.5 -14.0 7.5 -14.0 7.5 -13.0 M10.5 -17.0 L11.5 -17.0 11.5 -16.0 10.5 -16.0 10.5 -17.0 M13.5 15.0 L13.5 17.0 11.5 17.0 11.5 16.0 10.5 16.0 10.5 15.0 8.5 15.0 8.5 14.0 5.5 14.0 5.5 15.0 4.5 15.0 4.5 14.0 4.5 13.0 9.5 13.0 9.5 14.0 11.5 14.0 11.5 15.0 13.5 15.0 M-1.5 9.0 L-1.5 10.0 -2.5 10.0 -2.5 9.0 -1.5 9.0 M-8.5 13.0 L-10.5 13.0 -10.5 12.0 -9.5 12.0 -9.5 10.0 -8.5 10.0 -7.5 10.0 -7.5 9.0 -5.5 9.0 -5.5 10.0 -6.5 10.0 -6.5 11.0 -7.5 11.0 -7.5 12.0 -8.5 12.0 -8.5 13.0 M6.5 -14.0 L7.5 -14.0 7.5 -15.0 6.5 -15.0 6.5 -14.0" fill="#ffba52" fill-rule="evenodd" stroke="none"/>
    <path d="M-4.5 -13.0 L-3.5 -13.0 -3.5 -12.0 -4.5 -12.0 -4.5 -13.0" fill="#bd0000" fill-rule="evenodd" stroke="none"/>
  </g>
</svg>
