<?xml version="1.0" encoding="UTF-8" standalone="no"?>
<svg xmlns:ffdec="https://www.free-decompiler.com/flash" xmlns:xlink="http://www.w3.org/1999/xlink" ffdec:objectType="shape" height="32.0px" width="43.0px" xmlns="http://www.w3.org/2000/svg">
  <g transform="matrix(1.0, 0.0, 0.0, 1.0, 22.75, 18.0)">
    <path d="M-10.75 -18.0 L-8.75 -18.0 -8.75 -17.0 -9.75 -17.0 -9.75 -16.0 -9.75 -15.0 -10.75 -15.0 -10.75 -16.0 -11.75 -16.0 -11.75 -17.0 -13.75 -17.0 -13.75 -18.0 -11.75 -18.0 -11.75 -17.0 -10.75 -17.0 -10.75 -18.0 M8.25 13.0 L8.25 14.0 5.25 14.0 5.25 13.0 4.25 13.0 4.25 12.0 2.25 12.0 2.25 11.0 -0.75 11.0 -0.75 12.0 -1.75 12.0 -1.75 11.0 -1.75 10.0 3.25 10.0 3.25 11.0 5.25 11.0 5.25 12.0 7.25 12.0 7.25 13.0 8.25 13.0 M-8.75 6.0 L-8.75 7.0 -9.75 7.0 -9.75 6.0 -12.75 6.0 -12.75 7.0 -13.75 7.0 -13.75 8.0 -14.75 8.0 -14.75 9.0 -15.75 9.0 -15.75 10.0 -17.75 10.0 -17.75 9.0 -16.75 9.0 -16.75 7.0 -15.75 7.0 -14.75 7.0 -14.75 6.0 -12.75 6.0 -12.75 5.0 -9.75 5.0 -9.75 6.0 -8.75 6.0" fill="#fbbb53" fill-rule="evenodd" stroke="none"/>
    <path d="M-11.75 -18.0 L-10.75 -18.0 -10.75 -17.0 -11.75 -17.0 -11.75 -18.0 M8.25 6.0 L8.25 8.0 7.25 8.0 7.25 9.0 6.25 9.0 6.25 11.0 7.25 11.0 7.25 12.0 8.25 12.0 8.25 13.0 7.25 13.0 7.25 12.0 5.25 12.0 5.25 11.0 3.25 11.0 3.25 10.0 -1.75 10.0 -1.75 11.0 -2.75 11.0 -2.75 9.0 -1.75 9.0 -1.75 8.0 -0.75 8.0 -0.75 5.0 1.25 5.0 1.25 4.0 2.25 4.0 2.25 3.0 3.25 3.0 3.25 2.0 4.25 2.0 4.25 1.0 5.25 1.0 5.25 4.0 6.25 4.0 6.25 6.0 8.25 6.0" fill="#bb0303" fill-rule="evenodd" stroke="none"/>
    <path d="M-4.75 -18.0 L-1.75 -18.0 -1.75 -17.0 -0.75 -17.0 -0.75 -16.0 1.25 -16.0 1.25 -14.0 2.25 -14.0 2.25 -13.0 3.25 -13.0 3.25 -12.0 10.25 -12.0 10.25 -11.0 13.25 -11.0 13.25 -10.0 16.25 -10.0 16.25 -9.0 18.25 -9.0 18.25 -8.0 19.25 -8.0 19.25 -7.0 20.25 -7.0 20.25 -6.0 19.25 -6.0 19.25 -5.0 18.25 -5.0 18.25 -4.0 17.25 -4.0 17.25 -5.0 15.25 -5.0 15.25 -6.0 14.25 -6.0 14.25 -7.0 7.25 -7.0 7.25 -6.0 6.25 -6.0 6.25 -5.0 5.25 -5.0 5.25 -3.0 4.25 -3.0 4.25 -2.0 4.25 -1.0 3.25 -1.0 3.25 0.0 3.25 1.0 3.25 2.0 2.25 2.0 2.25 3.0 -1.75 3.0 -1.75 2.0 -3.75 2.0 -3.75 3.0 -9.75 3.0 -9.75 2.0 -10.75 2.0 -10.75 1.0 -11.75 1.0 -11.75 0.0 -12.75 0.0 -12.75 1.0 -11.75 1.0 -11.75 2.0 -10.75 2.0 -10.75 3.0 -9.75 3.0 -9.75 4.0 -7.75 4.0 -7.75 5.0 -7.75 6.0 -8.75 6.0 -9.75 6.0 -9.75 5.0 -12.75 5.0 -12.75 6.0 -14.75 6.0 -14.75 7.0 -15.75 7.0 -15.75 6.0 -16.75 6.0 -16.75 5.0 -17.75 5.0 -17.75 4.0 -18.75 4.0 -18.75 3.0 -17.75 3.0 -17.75 1.0 -16.75 1.0 -16.75 0.0 -15.75 0.0 -15.75 -1.0 -14.75 -1.0 -14.75 -2.0 -14.75 -4.0 -13.75 -4.0 -13.75 -5.0 -14.75 -5.0 -14.75 -6.0 -17.75 -6.0 -17.75 -7.0 -20.75 -7.0 -20.75 -9.0 -21.75 -9.0 -21.75 -10.0 -22.75 -10.0 -22.75 -14.0 -21.75 -14.0 -21.75 -15.0 -20.75 -15.0 -20.75 -16.0 -18.75 -16.0 -18.75 -17.0 -15.75 -17.0 -15.75 -18.0 -13.75 -18.0 -13.75 -17.0 -11.75 -17.0 -11.75 -16.0 -10.75 -16.0 -10.75 -15.0 -10.75 -14.0 -11.75 -14.0 -11.75 -13.0 -12.75 -13.0 -12.75 -12.0 -13.75 -12.0 -16.75 -12.0 -16.75 -13.0 -18.75 -13.0 -18.75 -12.0 -17.75 -12.0 -17.75 -11.0 -13.75 -11.0 -13.75 -10.0 -10.75 -10.0 -10.75 -11.0 -8.75 -11.0 -8.75 -12.0 -9.75 -12.0 -9.75 -13.0 -8.75 -13.0 -8.75 -15.0 -7.75 -15.0 -7.75 -16.0 -5.75 -16.0 -5.75 -17.0 -4.75 -17.0 -4.75 -18.0 M-8.75 -11.0 L-8.75 -10.0 -7.75 -10.0 -7.75 -9.0 -6.75 -9.0 -6.75 -10.0 -7.75 -10.0 -7.75 -11.0 -8.75 -11.0 M14.25 -7.0 L15.25 -7.0 15.25 -8.0 14.25 -8.0 14.25 -7.0 M3.25 -12.0 L1.25 -12.0 1.25 -11.0 3.25 -11.0 3.25 -12.0 M0.25 -10.0 L-0.75 -10.0 -0.75 -9.0 0.25 -9.0 0.25 -10.0 1.25 -10.0 1.25 -11.0 0.25 -11.0 0.25 -10.0" fill="#af0303" fill-rule="evenodd" stroke="none"/>
    <path d="M-8.75 -17.0 L-6.75 -17.0 -6.75 -18.0 -4.75 -18.0 -4.75 -17.0 -5.75 -17.0 -5.75 -16.0 -7.75 -16.0 -7.75 -15.0 -8.75 -15.0 -8.75 -13.0 -9.75 -13.0 -9.75 -12.0 -8.75 -12.0 -8.75 -11.0 -10.75 -11.0 -10.75 -10.0 -13.75 -10.0 -13.75 -11.0 -17.75 -11.0 -17.75 -12.0 -18.75 -12.0 -18.75 -13.0 -16.75 -13.0 -16.75 -12.0 -13.75 -12.0 -13.75 -11.0 -12.75 -11.0 -12.75 -12.0 -11.75 -12.0 -11.75 -13.0 -10.75 -13.0 -10.75 -14.0 -9.75 -14.0 -9.75 -15.0 -9.75 -16.0 -8.75 -16.0 -8.75 -17.0 M-1.75 -18.0 L-0.75 -18.0 -0.75 -17.0 1.25 -17.0 1.25 -16.0 2.25 -16.0 2.25 -14.0 3.25 -14.0 3.25 -13.0 10.25 -13.0 10.25 -12.0 13.25 -12.0 13.25 -11.0 10.25 -11.0 10.25 -12.0 3.25 -12.0 3.25 -13.0 2.25 -13.0 2.25 -14.0 1.25 -14.0 1.25 -16.0 -0.75 -16.0 -0.75 -17.0 -1.75 -17.0 -1.75 -18.0 M14.25 -11.0 L16.25 -11.0 16.25 -10.0 18.25 -10.0 18.25 -9.0 19.25 -9.0 19.25 -8.0 20.25 -8.0 20.25 -7.0 19.25 -7.0 19.25 -8.0 18.25 -8.0 18.25 -9.0 16.25 -9.0 16.25 -10.0 13.25 -10.0 13.25 -11.0 14.25 -11.0 M9.25 1.0 L9.25 2.0 10.25 2.0 10.25 4.0 9.25 4.0 9.25 3.0 8.25 3.0 8.25 2.0 8.25 1.0 9.25 1.0 M5.25 14.0 L0.25 14.0 0.25 13.0 -0.75 13.0 -0.75 12.0 -0.75 11.0 2.25 11.0 2.25 12.0 4.25 12.0 4.25 13.0 5.25 13.0 5.25 14.0 M-0.75 5.0 L-1.75 5.0 -1.75 4.0 -3.75 4.0 -3.75 5.0 -7.75 5.0 -7.75 4.0 -9.75 4.0 -9.75 3.0 -10.75 3.0 -10.75 2.0 -11.75 2.0 -11.75 1.0 -12.75 1.0 -12.75 0.0 -11.75 0.0 -11.75 1.0 -10.75 1.0 -10.75 2.0 -9.75 2.0 -9.75 3.0 -3.75 3.0 -3.75 2.0 -1.75 2.0 -1.75 3.0 2.25 3.0 2.25 2.0 3.25 2.0 3.25 1.0 4.25 1.0 4.25 2.0 3.25 2.0 3.25 3.0 2.25 3.0 2.25 4.0 1.25 4.0 1.25 5.0 -0.75 5.0 M-8.75 7.0 L-8.75 8.0 -9.75 8.0 -9.75 9.0 -10.75 9.0 -10.75 10.0 -15.75 10.0 -15.75 9.0 -14.75 9.0 -14.75 8.0 -13.75 8.0 -13.75 7.0 -12.75 7.0 -12.75 6.0 -9.75 6.0 -9.75 7.0 -8.75 7.0 M-18.75 3.0 L-18.75 1.0 -17.75 1.0 -17.75 0.0 -16.75 0.0 -16.75 -1.0 -15.75 -1.0 -15.75 -2.0 -14.75 -2.0 -14.75 -1.0 -15.75 -1.0 -15.75 0.0 -16.75 0.0 -16.75 1.0 -17.75 1.0 -17.75 3.0 -18.75 3.0 M-8.75 -11.0 L-7.75 -11.0 -7.75 -10.0 -6.75 -10.0 -6.75 -9.0 -7.75 -9.0 -7.75 -10.0 -8.75 -10.0 -8.75 -11.0 M14.25 -7.0 L14.25 -8.0 15.25 -8.0 15.25 -7.0 14.25 -7.0 M3.25 -12.0 L3.25 -11.0 1.25 -11.0 1.25 -12.0 3.25 -12.0 M0.25 -10.0 L0.25 -9.0 -0.75 -9.0 -0.75 -10.0 0.25 -10.0 0.25 -11.0 1.25 -11.0 1.25 -10.0 0.25 -10.0" fill="#fa6b03" fill-rule="evenodd" stroke="none"/>
    <path d="M18.25 -4.0 L18.25 -3.0 19.25 -3.0 19.25 -2.0 17.25 -2.0 17.25 -3.0 15.25 -3.0 14.25 -3.0 14.25 -2.0 13.25 -2.0 13.25 -3.0 11.25 -3.0 11.25 -2.0 9.25 -2.0 9.25 0.0 8.25 0.0 8.25 1.0 8.25 2.0 7.25 2.0 7.25 1.0 6.25 1.0 6.25 0.0 3.25 0.0 3.25 -1.0 4.25 -1.0 4.25 -2.0 7.25 -2.0 7.25 -3.0 8.25 -3.0 8.25 -4.0 17.25 -4.0 18.25 -4.0 M5.25 -3.0 L5.25 -5.0 6.25 -5.0 6.25 -6.0 7.25 -6.0 7.25 -7.0 14.25 -7.0 14.25 -6.0 15.25 -6.0 15.25 -5.0 8.25 -5.0 8.25 -4.0 7.25 -4.0 7.25 -3.0 5.25 -3.0" fill="#fb43ab" fill-rule="evenodd" stroke="none"/>
    <path d="M19.25 -2.0 L19.25 -1.0 18.25 -1.0 17.25 -1.0 17.25 -2.0 19.25 -2.0 M14.25 0.0 L13.25 0.0 13.25 1.0 11.25 1.0 11.25 0.0 9.25 0.0 9.25 1.0 8.25 1.0 8.25 0.0 9.25 0.0 9.25 -2.0 11.25 -2.0 11.25 -3.0 13.25 -3.0 13.25 -2.0 14.25 -2.0 14.25 0.0 M3.25 1.0 L3.25 0.0 6.25 0.0 6.25 1.0 5.25 1.0 4.25 1.0 3.25 1.0 M4.25 -2.0 L4.25 -3.0 5.25 -3.0 7.25 -3.0 7.25 -4.0 8.25 -4.0 8.25 -5.0 15.25 -5.0 17.25 -5.0 17.25 -4.0 8.25 -4.0 8.25 -3.0 7.25 -3.0 7.25 -2.0 4.25 -2.0 M15.25 -3.0 L15.25 -2.0 14.25 -2.0 14.25 -3.0 15.25 -3.0" fill="#fbfbfb" fill-rule="evenodd" stroke="none"/>
    <path d="M18.25 -1.0 L18.25 1.0 17.25 1.0 17.25 2.0 15.25 2.0 15.25 1.0 14.25 1.0 14.25 0.0 14.25 -2.0 15.25 -2.0 15.25 -3.0 17.25 -3.0 17.25 -2.0 17.25 -1.0 18.25 -1.0 M10.25 4.0 L10.25 5.0 9.25 5.0 9.25 6.0 8.25 6.0 6.25 6.0 6.25 4.0 5.25 4.0 5.25 1.0 6.25 1.0 7.25 1.0 7.25 2.0 8.25 2.0 8.25 3.0 9.25 3.0 9.25 4.0 10.25 4.0" fill="#0303ab" fill-rule="evenodd" stroke="none"/>
    <path d="M13.25 -12.0 L14.25 -12.0 14.25 -11.0 13.25 -11.0 13.25 -12.0" fill="#fb2353" fill-rule="evenodd" stroke="none"/>
  </g>
</svg>
