<?xml version="1.0" encoding="UTF-8" standalone="no"?>
<svg xmlns:ffdec="https://www.free-decompiler.com/flash" xmlns:xlink="http://www.w3.org/1999/xlink" ffdec:objectType="shape" height="32.0px" width="46.0px" xmlns="http://www.w3.org/2000/svg">
  <g transform="matrix(1.0, 0.0, 0.0, 1.0, 23.0, 16.0)">
    <path d="M12.0 -13.0 L11.0 -13.0 11.0 -14.0 12.0 -14.0 12.0 -15.0 13.0 -15.0 13.0 -16.0 17.0 -16.0 17.0 -15.0 19.0 -15.0 19.0 -14.0 21.0 -14.0 21.0 -12.0 21.0 -11.0 20.0 -11.0 20.0 -12.0 19.0 -12.0 19.0 -11.0 18.0 -11.0 18.0 -10.0 16.0 -10.0 13.0 -10.0 13.0 -11.0 12.0 -11.0 12.0 -12.0 15.0 -12.0 15.0 -11.0 16.0 -11.0 16.0 -12.0 17.0 -12.0 17.0 -13.0 18.0 -13.0 18.0 -14.0 17.0 -14.0 17.0 -13.0 16.0 -13.0 16.0 -12.0 15.0 -12.0 15.0 -13.0 14.0 -13.0 14.0 -14.0 15.0 -14.0 15.0 -15.0 14.0 -15.0 14.0 -14.0 13.0 -14.0 13.0 -13.0 12.0 -13.0 M16.0 13.0 L17.0 13.0 17.0 14.0 18.0 14.0 18.0 15.0 19.0 15.0 19.0 16.0 18.0 16.0 18.0 15.0 17.0 15.0 17.0 14.0 16.0 14.0 16.0 13.0 M17.0 16.0 L7.0 16.0 7.0 15.0 6.0 15.0 6.0 13.0 7.0 13.0 7.0 14.0 8.0 14.0 8.0 15.0 9.0 15.0 9.0 14.0 8.0 14.0 8.0 13.0 10.0 13.0 10.0 14.0 13.0 14.0 13.0 15.0 14.0 15.0 14.0 14.0 13.0 14.0 13.0 13.0 15.0 13.0 15.0 14.0 16.0 14.0 16.0 15.0 17.0 15.0 17.0 16.0 M-12.0 13.0 L-12.0 14.0 -16.0 14.0 -16.0 13.0 -17.0 13.0 -17.0 14.0 -23.0 14.0 -23.0 12.0 -22.0 12.0 -22.0 11.0 -20.0 11.0 -19.0 11.0 -19.0 12.0 -16.0 12.0 -16.0 13.0 -12.0 13.0 M-11.0 -9.0 L-11.0 -11.0 -10.0 -11.0 -10.0 -12.0 -8.0 -12.0 -8.0 -9.0 -5.0 -9.0 -5.0 -11.0 -6.0 -11.0 -6.0 -12.0 -5.0 -12.0 -5.0 -13.0 -4.0 -13.0 -4.0 -14.0 -2.0 -14.0 -2.0 -13.0 -1.0 -13.0 -1.0 -12.0 0.0 -12.0 0.0 -13.0 1.0 -13.0 1.0 -14.0 3.0 -14.0 3.0 -13.0 4.0 -13.0 4.0 -12.0 5.0 -12.0 5.0 -11.0 4.0 -11.0 4.0 -9.0 6.0 -9.0 6.0 -12.0 8.0 -12.0 8.0 -11.0 9.0 -11.0 9.0 -10.0 9.0 -9.0 7.0 -9.0 7.0 -8.0 8.0 -8.0 8.0 -5.0 7.0 -5.0 7.0 -4.0 6.0 -4.0 6.0 -3.0 4.0 -3.0 4.0 -2.0 -5.0 -2.0 -5.0 -3.0 -8.0 -3.0 -8.0 -4.0 -9.0 -4.0 -9.0 -5.0 -10.0 -5.0 -10.0 -8.0 -9.0 -8.0 -9.0 -9.0 -11.0 -9.0 M-2.0 -10.0 L-1.0 -10.0 -1.0 -11.0 -1.0 -12.0 -3.0 -12.0 -3.0 -10.0 -2.0 -10.0 M0.0 -11.0 L0.0 -10.0 1.0 -10.0 2.0 -10.0 2.0 -12.0 0.0 -12.0 0.0 -11.0 M3.0 9.0 L2.0 9.0 2.0 8.0 3.0 8.0 3.0 7.0 2.0 7.0 2.0 8.0 1.0 8.0 1.0 7.0 0.0 7.0 0.0 8.0 0.0 9.0 -1.0 9.0 -1.0 8.0 -2.0 8.0 -2.0 7.0 -3.0 7.0 -3.0 8.0 -4.0 8.0 -4.0 7.0 -5.0 7.0 -5.0 8.0 -6.0 8.0 -6.0 6.0 -3.0 6.0 -3.0 5.0 -2.0 5.0 -2.0 4.0 0.0 4.0 0.0 5.0 1.0 5.0 1.0 4.0 0.0 4.0 0.0 1.0 1.0 1.0 1.0 0.0 2.0 0.0 2.0 1.0 3.0 1.0 3.0 0.0 4.0 0.0 4.0 1.0 5.0 1.0 5.0 0.0 6.0 0.0 6.0 1.0 5.0 1.0 5.0 2.0 6.0 2.0 6.0 5.0 1.0 5.0 1.0 6.0 4.0 6.0 4.0 8.0 3.0 8.0 3.0 9.0 M7.0 -6.0 L7.0 -7.0 6.0 -7.0 6.0 -8.0 4.0 -8.0 4.0 -7.0 3.0 -7.0 0.0 -7.0 -1.0 -7.0 -4.0 -7.0 -5.0 -7.0 -5.0 -8.0 -7.0 -8.0 -7.0 -7.0 -8.0 -7.0 -8.0 -6.0 -8.0 -5.0 -7.0 -5.0 -7.0 -4.0 -5.0 -4.0 -4.0 -4.0 -4.0 -3.0 -1.0 -3.0 -1.0 -4.0 0.0 -4.0 0.0 -3.0 3.0 -3.0 3.0 -4.0 4.0 -4.0 6.0 -4.0 6.0 -5.0 7.0 -5.0 7.0 -6.0 M4.0 3.0 L3.0 3.0 3.0 4.0 4.0 4.0 4.0 3.0 M1.0 -8.0 L1.0 -9.0 -2.0 -9.0 -2.0 -8.0 1.0 -8.0 M-8.0 4.0 L-7.0 4.0 -7.0 3.0 -6.0 3.0 -6.0 2.0 -7.0 2.0 -7.0 1.0 -8.0 1.0 -8.0 -1.0 -5.0 -1.0 -5.0 0.0 -3.0 0.0 -3.0 1.0 -2.0 1.0 -2.0 4.0 -3.0 4.0 -3.0 5.0 -8.0 5.0 -8.0 4.0 M-5.0 9.0 L-5.0 8.0 -4.0 8.0 -4.0 9.0 -5.0 9.0 M-5.0 2.0 L-5.0 1.0 -6.0 1.0 -6.0 2.0 -5.0 2.0 M-6.0 3.0 L-6.0 4.0 -5.0 4.0 -5.0 3.0 -6.0 3.0 M-19.0 12.0 L-20.0 12.0 -20.0 13.0 -19.0 13.0 -19.0 12.0 M-3.0 8.0 L-2.0 8.0 -2.0 9.0 -3.0 9.0 -3.0 8.0" fill="#ffb855" fill-rule="evenodd" stroke="none"/>
    <path d="M12.0 -13.0 L13.0 -13.0 13.0 -14.0 14.0 -14.0 14.0 -15.0 15.0 -15.0 15.0 -14.0 14.0 -14.0 14.0 -13.0 15.0 -13.0 15.0 -12.0 16.0 -12.0 16.0 -13.0 17.0 -13.0 17.0 -14.0 18.0 -14.0 18.0 -13.0 17.0 -13.0 17.0 -12.0 16.0 -12.0 16.0 -11.0 15.0 -11.0 15.0 -12.0 12.0 -12.0 12.0 -13.0 M16.0 -10.0 L18.0 -10.0 18.0 -11.0 19.0 -11.0 19.0 -12.0 20.0 -12.0 20.0 -11.0 20.0 -10.0 18.0 -10.0 18.0 -7.0 19.0 -7.0 19.0 -6.0 18.0 -6.0 18.0 -7.0 17.0 -7.0 17.0 -8.0 16.0 -8.0 16.0 -9.0 16.0 -10.0 M12.0 4.0 L12.0 5.0 13.0 5.0 13.0 6.0 14.0 6.0 14.0 7.0 15.0 7.0 15.0 8.0 16.0 8.0 16.0 11.0 15.0 11.0 15.0 8.0 14.0 8.0 14.0 7.0 13.0 7.0 13.0 6.0 12.0 6.0 12.0 5.0 11.0 5.0 11.0 4.0 12.0 4.0 M18.0 16.0 L17.0 16.0 17.0 15.0 16.0 15.0 16.0 14.0 17.0 14.0 17.0 15.0 18.0 15.0 18.0 16.0 M2.0 10.0 L1.0 10.0 1.0 8.0 0.0 8.0 0.0 7.0 1.0 7.0 1.0 8.0 2.0 8.0 2.0 7.0 3.0 7.0 3.0 8.0 2.0 8.0 2.0 9.0 2.0 10.0 M-1.0 10.0 L-2.0 10.0 -2.0 9.0 -2.0 8.0 -3.0 8.0 -3.0 9.0 -3.0 10.0 -4.0 10.0 -4.0 9.0 -4.0 8.0 -5.0 8.0 -5.0 9.0 -6.0 9.0 -6.0 8.0 -7.0 8.0 -7.0 6.0 -8.0 6.0 -8.0 5.0 -3.0 5.0 -3.0 4.0 -2.0 4.0 -2.0 1.0 -3.0 1.0 -3.0 0.0 -2.0 0.0 -2.0 1.0 0.0 1.0 0.0 0.0 1.0 0.0 1.0 1.0 0.0 1.0 0.0 4.0 1.0 4.0 1.0 5.0 0.0 5.0 0.0 4.0 -2.0 4.0 -2.0 5.0 -3.0 5.0 -3.0 6.0 -6.0 6.0 -6.0 8.0 -5.0 8.0 -5.0 7.0 -4.0 7.0 -4.0 8.0 -3.0 8.0 -3.0 7.0 -2.0 7.0 -2.0 8.0 -1.0 8.0 -1.0 9.0 -1.0 10.0 M-6.0 10.0 L-7.0 10.0 -7.0 9.0 -6.0 9.0 -6.0 10.0 M-19.0 8.0 L-19.0 6.0 -18.0 6.0 -18.0 5.0 -16.0 5.0 -16.0 4.0 -14.0 4.0 -12.0 4.0 -12.0 5.0 -16.0 5.0 -16.0 6.0 -18.0 6.0 -18.0 8.0 -19.0 8.0 M-19.0 -4.0 L-19.0 -5.0 -18.0 -5.0 -18.0 -6.0 -16.0 -6.0 -16.0 -7.0 -15.0 -7.0 -15.0 -8.0 -13.0 -8.0 -13.0 -9.0 -12.0 -9.0 -12.0 -8.0 -13.0 -8.0 -13.0 -7.0 -15.0 -7.0 -15.0 -6.0 -16.0 -6.0 -16.0 -5.0 -18.0 -5.0 -18.0 -4.0 -19.0 -4.0 M6.0 1.0 L6.0 2.0 8.0 2.0 8.0 1.0 7.0 1.0 7.0 0.0 8.0 0.0 8.0 1.0 9.0 1.0 9.0 2.0 8.0 2.0 8.0 4.0 9.0 4.0 9.0 5.0 8.0 5.0 8.0 6.0 7.0 6.0 7.0 5.0 6.0 5.0 6.0 6.0 5.0 6.0 5.0 8.0 4.0 8.0 4.0 9.0 5.0 9.0 5.0 10.0 4.0 10.0 4.0 9.0 3.0 9.0 3.0 8.0 4.0 8.0 4.0 6.0 1.0 6.0 1.0 5.0 6.0 5.0 6.0 2.0 5.0 2.0 5.0 1.0 6.0 1.0 M2.0 0.0 L3.0 0.0 3.0 1.0 2.0 1.0 2.0 0.0 M4.0 0.0 L5.0 0.0 5.0 1.0 4.0 1.0 4.0 0.0 M8.0 4.0 L7.0 4.0 7.0 5.0 8.0 5.0 8.0 4.0 M-9.0 0.0 L-12.0 0.0 -12.0 -1.0 -13.0 -1.0 -13.0 -2.0 -14.0 -2.0 -14.0 -3.0 -15.0 -3.0 -15.0 -4.0 -14.0 -4.0 -14.0 -3.0 -12.0 -3.0 -12.0 -2.0 -10.0 -2.0 -10.0 -1.0 -9.0 -1.0 -9.0 0.0 M-8.0 4.0 L-8.0 5.0 -10.0 5.0 -10.0 4.0 -8.0 4.0 M-10.0 7.0 L-9.0 7.0 -9.0 8.0 -10.0 8.0 -10.0 7.0" fill="#ff6800" fill-rule="evenodd" stroke="none"/>
    <path d="M20.0 -11.0 L21.0 -11.0 21.0 -12.0 22.0 -12.0 22.0 -9.0 23.0 -9.0 23.0 -6.0 22.0 -6.0 22.0 -5.0 21.0 -5.0 21.0 -4.0 19.0 -4.0 19.0 -3.0 18.0 -3.0 18.0 -2.0 16.0 -2.0 16.0 -1.0 14.0 -1.0 14.0 0.0 13.0 0.0 13.0 1.0 12.0 1.0 12.0 4.0 11.0 4.0 11.0 5.0 12.0 5.0 12.0 6.0 13.0 6.0 13.0 7.0 14.0 7.0 14.0 8.0 15.0 8.0 15.0 11.0 15.0 13.0 16.0 13.0 16.0 14.0 15.0 14.0 15.0 13.0 13.0 13.0 13.0 14.0 14.0 14.0 14.0 15.0 13.0 15.0 13.0 14.0 10.0 14.0 10.0 13.0 8.0 13.0 8.0 14.0 9.0 14.0 9.0 15.0 8.0 15.0 8.0 14.0 7.0 14.0 7.0 13.0 6.0 13.0 5.0 13.0 5.0 12.0 4.0 12.0 4.0 11.0 3.0 11.0 3.0 10.0 2.0 10.0 2.0 9.0 3.0 9.0 4.0 9.0 4.0 10.0 5.0 10.0 5.0 9.0 4.0 9.0 4.0 8.0 5.0 8.0 5.0 6.0 6.0 6.0 6.0 5.0 7.0 5.0 7.0 6.0 8.0 6.0 8.0 5.0 9.0 5.0 9.0 4.0 8.0 4.0 8.0 2.0 9.0 2.0 9.0 1.0 8.0 1.0 8.0 0.0 7.0 0.0 7.0 1.0 8.0 1.0 8.0 2.0 6.0 2.0 6.0 1.0 6.0 0.0 5.0 0.0 4.0 0.0 3.0 0.0 2.0 0.0 1.0 0.0 0.0 0.0 0.0 1.0 -2.0 1.0 -2.0 0.0 -3.0 0.0 -5.0 0.0 -5.0 -1.0 -8.0 -1.0 -8.0 1.0 -7.0 1.0 -7.0 2.0 -6.0 2.0 -6.0 3.0 -7.0 3.0 -7.0 4.0 -8.0 4.0 -10.0 4.0 -10.0 5.0 -8.0 5.0 -8.0 6.0 -7.0 6.0 -7.0 8.0 -6.0 8.0 -6.0 9.0 -5.0 9.0 -4.0 9.0 -4.0 10.0 -6.0 10.0 -6.0 9.0 -7.0 9.0 -7.0 10.0 -7.0 11.0 -11.0 11.0 -11.0 12.0 -12.0 12.0 -12.0 13.0 -16.0 13.0 -16.0 12.0 -19.0 12.0 -19.0 11.0 -20.0 11.0 -20.0 10.0 -19.0 10.0 -19.0 8.0 -18.0 8.0 -18.0 6.0 -16.0 6.0 -16.0 5.0 -12.0 5.0 -12.0 4.0 -14.0 4.0 -14.0 3.0 -17.0 3.0 -17.0 2.0 -18.0 2.0 -18.0 1.0 -19.0 1.0 -19.0 0.0 -20.0 0.0 -20.0 -4.0 -19.0 -4.0 -18.0 -4.0 -18.0 -5.0 -16.0 -5.0 -16.0 -6.0 -15.0 -6.0 -15.0 -7.0 -13.0 -7.0 -13.0 -8.0 -12.0 -8.0 -12.0 -9.0 -11.0 -9.0 -9.0 -9.0 -9.0 -8.0 -10.0 -8.0 -10.0 -5.0 -9.0 -5.0 -9.0 -4.0 -8.0 -4.0 -8.0 -3.0 -5.0 -3.0 -5.0 -2.0 4.0 -2.0 4.0 -3.0 6.0 -3.0 6.0 -4.0 7.0 -4.0 7.0 -5.0 8.0 -5.0 8.0 -8.0 7.0 -8.0 7.0 -9.0 9.0 -9.0 9.0 -10.0 10.0 -10.0 10.0 -9.0 16.0 -9.0 16.0 -8.0 17.0 -8.0 17.0 -7.0 18.0 -7.0 18.0 -6.0 19.0 -6.0 19.0 -7.0 18.0 -7.0 18.0 -10.0 20.0 -10.0 20.0 -11.0 M1.0 10.0 L-1.0 10.0 -1.0 9.0 0.0 9.0 0.0 8.0 1.0 8.0 1.0 10.0 M-2.0 10.0 L-3.0 10.0 -3.0 9.0 -2.0 9.0 -2.0 10.0 M-16.0 14.0 L-17.0 14.0 -17.0 13.0 -16.0 13.0 -16.0 14.0 M-8.0 -12.0 L-7.0 -12.0 -7.0 -13.0 -6.0 -13.0 -6.0 -14.0 -5.0 -14.0 -5.0 -15.0 -4.0 -15.0 -4.0 -16.0 3.0 -16.0 3.0 -15.0 4.0 -15.0 4.0 -14.0 5.0 -14.0 5.0 -13.0 6.0 -13.0 6.0 -12.0 6.0 -9.0 4.0 -9.0 4.0 -11.0 5.0 -11.0 5.0 -12.0 4.0 -12.0 4.0 -13.0 3.0 -13.0 3.0 -14.0 1.0 -14.0 1.0 -13.0 0.0 -13.0 0.0 -12.0 -1.0 -12.0 -1.0 -13.0 -2.0 -13.0 -2.0 -14.0 -4.0 -14.0 -4.0 -13.0 -5.0 -13.0 -5.0 -12.0 -6.0 -12.0 -6.0 -11.0 -5.0 -11.0 -5.0 -9.0 -8.0 -9.0 -8.0 -12.0 M-1.0 -11.0 L-1.0 -10.0 -2.0 -10.0 -2.0 -11.0 -1.0 -11.0 M1.0 -10.0 L0.0 -10.0 0.0 -11.0 1.0 -11.0 1.0 -10.0 M6.0 -5.0 L6.0 -6.0 7.0 -6.0 7.0 -5.0 6.0 -5.0 M4.0 -7.0 L4.0 -6.0 5.0 -6.0 5.0 -5.0 4.0 -5.0 4.0 -4.0 3.0 -4.0 3.0 -5.0 2.0 -5.0 2.0 -6.0 3.0 -6.0 3.0 -7.0 4.0 -7.0 M-1.0 -7.0 L0.0 -7.0 0.0 -6.0 1.0 -6.0 1.0 -5.0 0.0 -5.0 0.0 -4.0 -1.0 -4.0 -1.0 -5.0 -2.0 -5.0 -2.0 -6.0 -1.0 -6.0 -1.0 -7.0 M-4.0 -4.0 L-5.0 -4.0 -5.0 -5.0 -6.0 -5.0 -6.0 -6.0 -5.0 -6.0 -5.0 -7.0 -4.0 -7.0 -4.0 -6.0 -3.0 -6.0 -3.0 -5.0 -4.0 -5.0 -4.0 -4.0 M-7.0 -5.0 L-8.0 -5.0 -8.0 -6.0 -7.0 -6.0 -7.0 -5.0 M4.0 3.0 L4.0 4.0 3.0 4.0 3.0 3.0 4.0 3.0 M8.0 4.0 L8.0 5.0 7.0 5.0 7.0 4.0 8.0 4.0 M1.0 -8.0 L-2.0 -8.0 -2.0 -9.0 1.0 -9.0 1.0 -8.0 M-9.0 0.0 L-9.0 -1.0 -10.0 -1.0 -10.0 -2.0 -12.0 -2.0 -12.0 -3.0 -14.0 -3.0 -14.0 -4.0 -15.0 -4.0 -15.0 -3.0 -14.0 -3.0 -14.0 -2.0 -13.0 -2.0 -13.0 -1.0 -12.0 -1.0 -12.0 0.0 -9.0 0.0 M-6.0 3.0 L-5.0 3.0 -5.0 4.0 -6.0 4.0 -6.0 3.0 M-5.0 2.0 L-6.0 2.0 -6.0 1.0 -5.0 1.0 -5.0 2.0 M-19.0 12.0 L-19.0 13.0 -20.0 13.0 -20.0 12.0 -19.0 12.0 M-10.0 7.0 L-10.0 8.0 -9.0 8.0 -9.0 7.0 -10.0 7.0" fill="#b80000" fill-rule="evenodd" stroke="none"/>
    <path d="M-2.0 -10.0 L-3.0 -10.0 -3.0 -12.0 -1.0 -12.0 -1.0 -11.0 -2.0 -11.0 -2.0 -10.0 M0.0 -11.0 L0.0 -12.0 2.0 -12.0 2.0 -10.0 1.0 -10.0 1.0 -11.0 0.0 -11.0 M7.0 -6.0 L6.0 -6.0 6.0 -5.0 6.0 -4.0 4.0 -4.0 4.0 -5.0 5.0 -5.0 5.0 -6.0 4.0 -6.0 4.0 -7.0 4.0 -8.0 6.0 -8.0 6.0 -7.0 7.0 -7.0 7.0 -6.0 M3.0 -7.0 L3.0 -6.0 2.0 -6.0 2.0 -5.0 3.0 -5.0 3.0 -4.0 3.0 -3.0 0.0 -3.0 0.0 -4.0 0.0 -5.0 1.0 -5.0 1.0 -6.0 0.0 -6.0 0.0 -7.0 3.0 -7.0 M-1.0 -7.0 L-1.0 -6.0 -2.0 -6.0 -2.0 -5.0 -1.0 -5.0 -1.0 -4.0 -1.0 -3.0 -4.0 -3.0 -4.0 -4.0 -4.0 -5.0 -3.0 -5.0 -3.0 -6.0 -4.0 -6.0 -4.0 -7.0 -1.0 -7.0 M-5.0 -4.0 L-7.0 -4.0 -7.0 -5.0 -7.0 -6.0 -8.0 -6.0 -8.0 -7.0 -7.0 -7.0 -7.0 -8.0 -5.0 -8.0 -5.0 -7.0 -5.0 -6.0 -6.0 -6.0 -6.0 -5.0 -5.0 -5.0 -5.0 -4.0" fill="#ffffff" fill-rule="evenodd" stroke="none"/>
  </g>
</svg>
