<?xml version="1.0" encoding="UTF-8" standalone="no"?>
<svg xmlns:ffdec="https://www.free-decompiler.com/flash" xmlns:xlink="http://www.w3.org/1999/xlink" ffdec:objectType="shape" height="12.0px" width="15.0px" xmlns="http://www.w3.org/2000/svg">
  <g transform="matrix(1.0, 0.0, 0.0, 1.0, 7.5, 6.0)">
    <path d="M5.5 -1.0 L5.5 -3.0 4.5 -3.0 4.5 -4.0 3.5 -4.0 3.5 -5.0 -0.5 -5.0 -0.5 -6.0 4.5 -6.0 4.5 -5.0 5.5 -5.0 5.5 -4.0 6.5 -4.0 6.5 -1.0 5.5 -1.0 5.5 0.0 6.5 0.0 6.5 1.0 7.5 1.0 7.5 4.0 6.5 4.0 6.5 5.0 4.5 5.0 4.5 6.0 -2.5 6.0 -2.5 5.0 -4.5 5.0 -4.5 3.0 -5.5 3.0 -5.5 2.0 -6.5 2.0 -6.5 1.0 -7.5 1.0 -7.5 0.0 -6.5 0.0 -6.5 -2.0 -5.5 -2.0 -5.5 -3.0 -3.5 -3.0 -3.5 -4.0 -2.5 -4.0 -2.5 -5.0 -0.5 -5.0 -0.5 -4.0 -1.5 -4.0 -1.5 -3.0 -2.5 -3.0 -2.5 -2.0 -3.5 -2.0 -3.5 2.0 -4.5 2.0 -4.5 3.0 -3.5 3.0 -3.5 4.0 -1.5 4.0 -1.5 5.0 3.5 5.0 3.5 4.0 4.5 4.0 4.5 3.0 5.5 3.0 5.5 1.0 4.5 1.0 4.5 -1.0 5.5 -1.0 M0.5 -3.0 L1.5 -3.0 1.5 -1.0 0.5 -1.0 0.5 -3.0 M2.5 -3.0 L3.5 -3.0 3.5 -1.0 2.5 -1.0 2.5 -3.0 M-5.5 -2.0 L-5.5 -1.0 -4.5 -1.0 -4.5 -2.0 -5.5 -2.0 M-5.5 2.0 L-4.5 2.0 -4.5 1.0 -5.5 1.0 -5.5 2.0" fill="#ff0000" fill-rule="evenodd" stroke="none"/>
    <path d="M-0.5 -5.0 L3.5 -5.0 3.5 -4.0 4.5 -4.0 4.5 -3.0 5.5 -3.0 5.5 -1.0 4.5 -1.0 4.5 1.0 5.5 1.0 5.5 3.0 4.5 3.0 4.5 4.0 3.5 4.0 3.5 5.0 -1.5 5.0 -1.5 4.0 -3.5 4.0 -3.5 3.0 -4.5 3.0 -4.5 2.0 -3.5 2.0 -3.5 -2.0 -2.5 -2.0 -2.5 -3.0 -1.5 -3.0 -1.5 -4.0 -0.5 -4.0 -0.5 -5.0 M0.5 -3.0 L-0.5 -3.0 -0.5 -2.0 -1.5 -2.0 -1.5 1.0 -0.5 1.0 -0.5 2.0 2.5 2.0 2.5 1.0 3.5 1.0 3.5 -1.0 4.5 -1.0 4.5 -3.0 3.5 -3.0 2.5 -3.0 1.5 -3.0 0.5 -3.0 M-5.5 2.0 L-5.5 1.0 -4.5 1.0 -4.5 2.0 -5.5 2.0" fill="#ffba00" fill-rule="evenodd" stroke="none"/>
    <path d="M4.5 -1.0 L3.5 -1.0 3.5 1.0 2.5 1.0 2.5 2.0 -0.5 2.0 -0.5 1.0 -1.5 1.0 -1.5 -2.0 -0.5 -2.0 -0.5 -3.0 0.5 -3.0 0.5 -1.0 1.5 -1.0 1.5 -3.0 2.5 -3.0 2.5 -1.0 3.5 -1.0 3.5 -3.0 4.5 -3.0 4.5 -1.0" fill="#ffffff" fill-rule="evenodd" stroke="none"/>
  </g>
</svg>
