<?xml version="1.0" encoding="UTF-8" standalone="no"?>
<svg xmlns:ffdec="https://www.free-decompiler.com/flash" xmlns:xlink="http://www.w3.org/1999/xlink" ffdec:objectType="shape" height="11.9px" width="11.9px" xmlns="http://www.w3.org/2000/svg">
  <g transform="matrix(1.0, 0.0, 0.0, 1.0, 9.95, 24.6)">
    <path d="M1.95 -22.2 L1.95 -21.4 1.15 -21.4 1.15 -22.2 1.95 -22.2 M-0.45 -23.0 L-1.2 -23.0 -1.2 -23.8 -0.45 -23.8 -0.45 -23.0 M0.35 -19.85 L0.35 -19.05 -0.45 -19.05 -0.45 -18.25 -1.2 -18.25 -1.2 -19.05 -0.45 -19.05 -0.45 -19.85 0.35 -19.85 M-0.45 -17.45 L0.35 -17.45 0.35 -16.65 1.15 -16.65 1.15 -15.05 0.35 -15.05 -0.45 -15.05 -1.2 -15.05 -1.2 -15.85 -2.05 -15.85 -2.05 -16.65 -1.2 -16.65 -0.45 -16.65 -0.45 -17.45 M-0.45 -14.25 L-0.45 -12.7 -1.2 -12.7 -1.2 -14.25 -0.45 -14.25 M-2.8 -12.7 L-3.6 -12.7 -3.6 -13.5 -2.8 -13.5 -2.8 -12.7 M-6.8 -12.7 L-9.15 -12.7 -9.15 -13.5 -9.15 -14.25 -8.4 -14.25 -8.4 -15.85 -7.55 -15.85 -7.55 -15.05 -7.55 -14.25 -7.55 -13.5 -6.8 -13.5 -6.8 -12.7 M-9.95 -14.25 L-9.95 -15.05 -9.15 -15.05 -9.15 -14.25 -9.95 -14.25 M-9.15 -15.85 L-9.15 -16.65 -8.4 -16.65 -8.4 -15.85 -9.15 -15.85 M-6.8 -16.65 L-6.0 -16.65 -6.0 -15.85 -5.2 -15.85 -5.2 -16.65 -3.6 -16.65 -3.6 -15.85 -2.8 -15.85 -2.8 -15.05 -3.6 -15.05 -4.4 -15.05 -4.4 -15.85 -5.2 -15.85 -5.2 -15.05 -6.0 -15.05 -6.0 -15.85 -6.8 -15.85 -6.8 -16.65 M-3.6 -19.05 L-3.6 -19.85 -2.8 -19.85 -2.8 -19.05 -3.6 -19.05 M-3.6 -20.6 L-3.6 -21.4 -4.4 -21.4 -4.4 -22.2 -3.6 -22.2 -3.6 -21.4 -2.8 -21.4 -2.8 -20.6 -3.6 -20.6 M-3.6 -18.25 L-3.6 -17.45 -4.4 -17.45 -4.4 -18.25 -3.6 -18.25 M-2.8 -16.65 L-2.8 -17.45 -2.05 -17.45 -2.05 -16.65 -2.8 -16.65 M-0.45 -20.6 L-1.2 -20.6 -1.2 -21.4 -0.45 -21.4 -0.45 -20.6 M0.35 -16.65 L-0.45 -16.65 -0.45 -15.85 0.35 -15.85 0.35 -16.65 M-8.4 -21.4 L-7.55 -21.4 -7.55 -20.6 -8.4 -20.6 -8.4 -21.4 M-6.0 -14.25 L-5.2 -14.25 -5.2 -13.5 -6.0 -13.5 -6.0 -14.25 M-2.05 -14.25 L-2.8 -14.25 -2.8 -15.05 -2.05 -15.05 -1.2 -15.05 -1.2 -14.25 -2.05 -14.25" fill="#ffb800" fill-rule="evenodd" stroke="none"/>
    <path d="M-0.45 -23.0 L0.35 -23.0 0.35 -22.2 -0.45 -22.2 -0.45 -23.0 M-0.45 -20.6 L0.35 -20.6 0.35 -19.85 -0.45 -19.85 -0.45 -19.05 -1.2 -19.05 -1.2 -18.25 -0.45 -18.25 -0.45 -17.45 -0.45 -16.65 -1.2 -16.65 -1.2 -17.45 -2.05 -17.45 -2.05 -19.05 -1.2 -19.05 -1.2 -19.85 -0.45 -19.85 -0.45 -20.6 M0.35 -15.05 L0.35 -14.25 -0.45 -14.25 -0.45 -15.05 0.35 -15.05 M-3.6 -12.7 L-4.4 -12.7 -4.4 -13.5 -3.6 -13.5 -3.6 -12.7 M-5.2 -12.7 L-6.8 -12.7 -6.8 -13.5 -6.0 -13.5 -5.2 -13.5 -5.2 -12.7 M-9.15 -13.5 L-9.95 -13.5 -9.95 -14.25 -9.15 -14.25 -9.15 -15.05 -9.15 -15.85 -8.4 -15.85 -8.4 -16.65 -8.4 -17.45 -7.55 -17.45 -7.55 -16.65 -7.55 -15.85 -6.8 -15.85 -6.8 -15.05 -6.0 -15.05 -6.0 -14.25 -6.8 -14.25 -6.8 -13.5 -7.55 -13.5 -7.55 -14.25 -6.8 -14.25 -6.8 -15.05 -7.55 -15.05 -7.55 -15.85 -8.4 -15.85 -8.4 -14.25 -9.15 -14.25 -9.15 -13.5 M-6.0 -16.65 L-6.0 -17.45 -5.2 -17.45 -5.2 -18.25 -4.4 -18.25 -4.4 -19.05 -3.6 -19.05 -2.8 -19.05 -2.8 -18.25 -3.6 -18.25 -4.4 -18.25 -4.4 -17.45 -3.6 -17.45 -3.6 -16.65 -2.8 -16.65 -2.8 -15.85 -3.6 -15.85 -3.6 -16.65 -5.2 -16.65 -5.2 -15.85 -6.0 -15.85 -6.0 -16.65 M-3.6 -19.85 L-4.4 -19.85 -4.4 -20.6 -3.6 -20.6 -3.6 -19.85 M-2.8 -20.6 L-2.05 -20.6 -2.05 -19.85 -2.8 -19.85 -2.8 -20.6 M-2.05 -23.0 L-2.8 -23.0 -2.8 -23.8 -2.05 -23.8 -2.05 -23.0 M-6.0 -23.0 L-5.2 -23.0 -5.2 -22.2 -6.0 -22.2 -6.0 -23.0 M-6.0 -19.85 L-6.8 -19.85 -6.8 -20.6 -6.0 -20.6 -6.0 -19.85 M-5.2 -15.05 L-5.2 -15.85 -4.4 -15.85 -4.4 -15.05 -5.2 -15.05 M-3.6 -15.05 L-2.8 -15.05 -2.8 -14.25 -2.05 -14.25 -2.05 -13.5 -2.8 -13.5 -2.8 -14.25 -3.6 -14.25 -3.6 -15.05 M-2.05 -15.85 L-1.2 -15.85 -1.2 -15.05 -2.05 -15.05 -2.05 -15.85" fill="#ff0000" fill-rule="evenodd" stroke="none"/>
    <path d="M-1.2 -12.7 L-2.8 -12.7 -2.8 -13.5 -2.05 -13.5 -2.05 -14.25 -1.2 -14.25 -1.2 -15.05 -0.45 -15.05 -0.45 -14.25 -1.2 -14.25 -1.2 -12.7 M-4.4 -12.7 L-5.2 -12.7 -5.2 -13.5 -5.2 -14.25 -6.0 -14.25 -6.0 -15.05 -5.2 -15.05 -4.4 -15.05 -3.6 -15.05 -3.6 -14.25 -3.6 -13.5 -4.4 -13.5 -4.4 -12.7 M-7.55 -17.45 L-6.8 -17.45 -6.8 -16.65 -7.55 -16.65 -7.55 -17.45 M0.35 -16.65 L0.35 -15.85 -0.45 -15.85 -0.45 -16.65 0.35 -16.65 M-4.4 -23.8 L-5.2 -23.8 -5.2 -24.6 -4.4 -24.6 -4.4 -23.8 M-2.05 -16.65 L-2.05 -17.45 -1.2 -17.45 -1.2 -16.65 -2.05 -16.65" fill="#ffffff" fill-rule="evenodd" stroke="none"/>
    <path d="M-3.6 -20.6 L-2.8 -20.6 -2.8 -19.85 -3.6 -19.85 -3.6 -20.6 M-7.55 -16.65 L-6.8 -16.65 -6.8 -15.85 -7.55 -15.85 -7.55 -16.65 M-2.8 -15.85 L-2.8 -16.65 -2.05 -16.65 -2.05 -15.85 -2.05 -15.05 -2.8 -15.05 -2.8 -15.85 M-6.8 -15.85 L-6.0 -15.85 -6.0 -15.05 -6.8 -15.05 -6.8 -15.85 M-7.55 -15.05 L-6.8 -15.05 -6.8 -14.25 -7.55 -14.25 -7.55 -15.05 M-6.8 -13.5 L-6.8 -14.25 -6.0 -14.25 -6.0 -13.5 -6.8 -13.5 M-3.6 -14.25 L-2.8 -14.25 -2.8 -13.5 -3.6 -13.5 -3.6 -14.25" fill="#000000" fill-rule="evenodd" stroke="none"/>
  </g>
</svg>
