<?xml version="1.0" encoding="UTF-8" standalone="no"?>
<svg xmlns:ffdec="https://www.free-decompiler.com/flash" xmlns:xlink="http://www.w3.org/1999/xlink" ffdec:objectType="shape" height="11.9px" width="11.9px" xmlns="http://www.w3.org/2000/svg">
  <g transform="matrix(1.0, 0.0, 0.0, 1.0, 9.95, 24.6)">
    <path d="M1.15 -22.2 L1.15 -21.4 0.35 -21.4 0.35 -22.2 1.15 -22.2 M-0.45 -23.8 L-0.45 -24.6 0.35 -24.6 0.35 -23.8 -0.45 -23.8 M1.15 -19.85 L1.15 -20.6 1.95 -20.6 1.95 -19.85 1.15 -19.85 M-0.45 -13.5 L-0.45 -12.7 -1.2 -12.7 -1.2 -14.25 -1.2 -15.05 -0.45 -15.05 -0.45 -13.5 M-3.6 -12.7 L-4.4 -12.7 -4.4 -14.25 -3.6 -14.25 -3.6 -12.7 M-7.55 -12.7 L-8.4 -12.7 -8.4 -13.5 -9.15 -13.5 -9.15 -15.05 -8.4 -15.05 -8.4 -14.25 -7.55 -14.25 -7.55 -12.7 M-9.95 -15.85 L-9.95 -16.65 -9.15 -16.65 -9.15 -15.85 -9.95 -15.85 M-6.8 -20.6 L-6.0 -20.6 -6.0 -19.85 -6.8 -19.85 -6.8 -20.6 M-6.8 -18.25 L-6.8 -17.45 -7.55 -17.45 -7.55 -18.25 -6.8 -18.25 M-6.8 -14.25 L-6.0 -14.25 -6.0 -13.5 -6.8 -13.5 -6.8 -14.25 M-4.4 -16.65 L-4.4 -17.45 -4.4 -18.25 -3.6 -18.25 -3.6 -17.45 -2.8 -17.45 -2.8 -15.85 -3.6 -15.85 -3.6 -15.05 -4.4 -15.05 -4.4 -14.25 -5.2 -14.25 -5.2 -15.05 -4.4 -15.05 -4.4 -16.65 M-3.6 -19.05 L-3.6 -19.85 -2.8 -19.85 -2.8 -19.05 -3.6 -19.05 M-2.05 -20.6 L-2.05 -21.4 -1.2 -21.4 -1.2 -20.6 -2.05 -20.6 M-2.05 -16.65 L-1.2 -16.65 -1.2 -15.85 -2.05 -15.85 -2.05 -16.65 M-3.6 -20.6 L-4.4 -20.6 -4.4 -21.4 -5.2 -21.4 -5.2 -22.2 -4.4 -22.2 -4.4 -21.4 -3.6 -21.4 -3.6 -20.6 M-2.8 -13.5 L-2.8 -14.25 -2.05 -14.25 -2.05 -13.5 -2.8 -13.5" fill="#ffb800" fill-rule="evenodd" stroke="none"/>
    <path d="M-0.45 -23.8 L-0.45 -23.0 -1.2 -23.0 -1.2 -23.8 -0.45 -23.8 M-1.2 -12.7 L-2.8 -12.7 -2.8 -13.5 -2.05 -13.5 -2.05 -14.25 -1.2 -14.25 -1.2 -12.7 M-4.4 -12.7 L-5.2 -12.7 -5.2 -14.25 -4.4 -14.25 -4.4 -15.05 -3.6 -15.05 -3.6 -15.85 -2.8 -15.85 -2.8 -15.05 -3.6 -15.05 -3.6 -14.25 -4.4 -14.25 -4.4 -12.7 M-6.8 -12.7 L-7.55 -12.7 -7.55 -14.25 -8.4 -14.25 -8.4 -15.05 -7.55 -15.05 -7.55 -14.25 -6.8 -14.25 -6.8 -13.5 -6.8 -12.7 M-2.05 -23.8 L-2.8 -23.8 -2.8 -24.6 -2.05 -24.6 -2.05 -23.8" fill="#ffffff" fill-rule="evenodd" stroke="none"/>
    <path d="M1.15 -19.85 L1.15 -18.25 0.35 -18.25 0.35 -15.85 -0.45 -15.85 -0.45 -15.05 0.35 -15.05 0.35 -13.5 -0.45 -13.5 -0.45 -15.05 -1.2 -15.05 -1.2 -14.25 -2.05 -14.25 -2.8 -14.25 -2.8 -13.5 -2.8 -12.7 -3.6 -12.7 -3.6 -14.25 -3.6 -15.05 -2.8 -15.05 -2.8 -15.85 -2.8 -17.45 -3.6 -17.45 -3.6 -18.25 -4.4 -18.25 -4.4 -17.45 -5.2 -17.45 -5.2 -18.25 -4.4 -18.25 -4.4 -19.05 -3.6 -19.05 -2.8 -19.05 -2.8 -19.85 -2.8 -20.6 -2.05 -20.6 -2.05 -19.05 -2.8 -19.05 -2.8 -17.45 -2.05 -17.45 -2.05 -16.65 -2.05 -15.85 -1.2 -15.85 -1.2 -16.65 -1.2 -17.45 -0.45 -17.45 -0.45 -19.05 0.35 -19.05 0.35 -19.85 1.15 -19.85 M-5.2 -12.7 L-6.8 -12.7 -6.8 -13.5 -6.0 -13.5 -6.0 -14.25 -6.0 -15.05 -5.2 -15.05 -5.2 -16.65 -4.4 -16.65 -4.4 -15.05 -5.2 -15.05 -5.2 -14.25 -5.2 -12.7 M-9.15 -15.05 L-9.95 -15.05 -9.95 -15.85 -9.15 -15.85 -9.15 -16.65 -9.15 -17.45 -8.4 -17.45 -8.4 -18.25 -7.55 -18.25 -7.55 -19.05 -6.8 -19.05 -6.8 -19.85 -7.55 -19.85 -7.55 -20.6 -6.8 -20.6 -6.8 -19.85 -6.0 -19.85 -6.0 -19.05 -6.8 -19.05 -6.8 -18.25 -7.55 -18.25 -7.55 -17.45 -7.55 -15.85 -6.8 -15.85 -6.8 -14.25 -7.55 -14.25 -7.55 -15.05 -8.4 -15.05 -9.15 -15.05 M-2.8 -22.2 L-3.6 -22.2 -3.6 -23.0 -2.8 -23.0 -2.8 -22.2 M-6.0 -24.6 L-5.2 -24.6 -5.2 -23.8 -6.0 -23.8 -6.0 -23.0 -6.8 -23.0 -6.8 -23.8 -6.0 -23.8 -6.0 -24.6" fill="#ff0000" fill-rule="evenodd" stroke="none"/>
  </g>
</svg>
