<?xml version="1.0" encoding="UTF-8" standalone="no"?>
<svg xmlns:ffdec="https://www.free-decompiler.com/flash" xmlns:xlink="http://www.w3.org/1999/xlink" ffdec:objectType="shape" height="12.7px" width="12.7px" xmlns="http://www.w3.org/2000/svg">
  <g transform="matrix(1.0, 0.0, 0.0, 1.0, 10.75, 25.4)">
    <path d="M-2.05 -21.4 L-0.45 -21.4 -0.45 -22.2 0.35 -22.2 0.35 -23.0 1.15 -23.0 1.15 -22.2 0.35 -22.2 0.35 -21.4 -0.45 -21.4 -0.45 -20.6 -1.2 -20.6 -1.2 -19.85 -2.05 -19.85 -2.05 -17.45 -1.2 -17.45 -1.2 -15.85 -2.05 -15.85 -2.05 -15.05 -2.8 -15.05 -2.8 -16.65 -4.4 -16.65 -4.4 -18.25 -5.2 -18.25 -5.2 -19.05 -6.0 -19.05 -6.0 -18.25 -5.2 -18.25 -5.2 -16.65 -6.0 -16.65 -6.0 -17.45 -6.8 -17.45 -6.8 -16.65 -6.0 -16.65 -6.0 -14.25 -6.8 -14.25 -6.8 -15.05 -7.55 -15.05 -7.55 -15.85 -8.4 -15.85 -8.4 -16.65 -7.55 -16.65 -7.55 -19.05 -6.8 -19.05 -6.8 -19.85 -5.2 -19.85 -5.2 -20.6 -4.4 -20.6 -4.4 -22.2 -3.6 -22.2 -3.6 -19.05 -2.8 -19.05 -2.8 -20.6 -2.05 -20.6 -2.05 -21.4 M1.15 -16.65 L1.15 -17.45 1.95 -17.45 1.95 -16.65 1.15 -16.65 M-0.45 -12.7 L-1.2 -12.7 -1.2 -13.5 -2.05 -13.5 -2.05 -15.05 -1.2 -15.05 -1.2 -14.25 0.35 -14.25 0.35 -15.05 1.15 -15.05 1.15 -14.25 0.35 -14.25 0.35 -13.5 -0.45 -13.5 -0.45 -12.7 M-2.8 -12.7 L-6.0 -12.7 -6.0 -13.5 -5.2 -13.5 -5.2 -15.85 -4.4 -15.85 -4.4 -15.05 -3.6 -15.05 -3.6 -14.25 -2.8 -14.25 -2.8 -12.7 M-6.8 -12.7 L-9.15 -12.7 -9.15 -13.5 -8.4 -13.5 -8.4 -14.25 -7.55 -14.25 -7.55 -13.5 -6.8 -13.5 -6.8 -12.7 M-9.95 -13.5 L-9.95 -14.25 -9.15 -14.25 -9.15 -13.5 -9.95 -13.5 M-9.95 -18.25 L-9.15 -18.25 -9.15 -17.45 -8.4 -17.45 -8.4 -16.65 -9.15 -16.65 -9.15 -17.45 -9.95 -17.45 -9.95 -18.25 M-6.8 -22.2 L-6.8 -21.4 -7.55 -21.4 -7.55 -22.2 -6.8 -22.2 M-4.4 -23.0 L-4.4 -23.8 -3.6 -23.8 -3.6 -23.0 -4.4 -23.0 M-2.8 -23.0 L-2.8 -22.2 -3.6 -22.2 -3.6 -23.0 -2.8 -23.0 M-8.4 -19.05 L-8.4 -19.85 -7.55 -19.85 -7.55 -19.05 -8.4 -19.05 M-8.4 -20.6 L-8.4 -21.4 -7.55 -21.4 -7.55 -20.6 -8.4 -20.6 M-7.55 -20.6 L-6.8 -20.6 -6.8 -19.85 -7.55 -19.85 -7.55 -20.6 M-1.2 -15.85 L-0.45 -15.85 -0.45 -15.05 -1.2 -15.05 -1.2 -15.85" fill="#ffb800" fill-rule="evenodd" stroke="none"/>
    <path d="M0.35 -23.0 L0.35 -22.2 -0.45 -22.2 -0.45 -21.4 -2.05 -21.4 -2.05 -22.2 -1.2 -22.2 -1.2 -23.0 -0.45 -23.0 -0.45 -24.6 0.35 -24.6 0.35 -23.0 M-2.05 -21.4 L-2.05 -20.6 -2.8 -20.6 -2.8 -19.05 -3.6 -19.05 -3.6 -22.2 -4.4 -22.2 -4.4 -20.6 -5.2 -20.6 -5.2 -19.85 -6.8 -19.85 -6.8 -19.05 -7.55 -19.05 -7.55 -16.65 -8.4 -16.65 -8.4 -15.85 -7.55 -15.85 -7.55 -15.05 -6.8 -15.05 -6.8 -14.25 -7.55 -14.25 -8.4 -14.25 -8.4 -13.5 -9.15 -13.5 -9.15 -12.7 -9.95 -12.7 -9.95 -13.5 -9.15 -13.5 -9.15 -14.25 -9.95 -14.25 -10.75 -14.25 -10.75 -15.85 -9.95 -15.85 -9.95 -15.05 -9.15 -15.05 -9.15 -16.65 -9.95 -16.65 -9.95 -17.45 -10.75 -17.45 -10.75 -19.05 -9.95 -19.05 -9.95 -18.25 -9.95 -17.45 -9.15 -17.45 -9.15 -16.65 -8.4 -16.65 -8.4 -17.45 -8.4 -18.25 -9.15 -18.25 -9.15 -21.4 -8.4 -21.4 -8.4 -22.2 -7.55 -22.2 -7.55 -23.8 -8.4 -23.8 -8.4 -24.6 -7.55 -24.6 -7.55 -23.8 -6.8 -23.8 -6.8 -22.2 -7.55 -22.2 -7.55 -21.4 -6.8 -21.4 -6.0 -21.4 -6.0 -22.2 -5.2 -22.2 -5.2 -23.0 -4.4 -23.0 -3.6 -23.0 -3.6 -23.8 -4.4 -23.8 -4.4 -24.6 -5.2 -24.6 -5.2 -25.4 -4.4 -25.4 -4.4 -24.6 -3.6 -24.6 -3.6 -23.8 -2.8 -23.8 -2.8 -23.0 -3.6 -23.0 -3.6 -22.2 -2.8 -22.2 -2.8 -21.4 -2.05 -21.4 M-2.05 -15.05 L-2.05 -15.85 -1.2 -15.85 -1.2 -17.45 -2.05 -17.45 -2.05 -19.85 -1.2 -19.85 -1.2 -20.6 -0.45 -20.6 -0.45 -21.4 0.35 -21.4 0.35 -22.2 1.15 -22.2 1.15 -21.4 0.35 -21.4 0.35 -20.6 1.15 -20.6 1.15 -19.85 0.35 -19.85 0.35 -19.05 -0.45 -19.05 -0.45 -17.45 0.35 -17.45 0.35 -16.65 1.15 -16.65 1.15 -15.85 1.95 -15.85 1.95 -14.25 1.15 -14.25 1.15 -12.7 -0.45 -12.7 -0.45 -13.5 0.35 -13.5 0.35 -14.25 1.15 -14.25 1.15 -15.05 1.15 -15.85 0.35 -15.85 0.35 -15.05 0.35 -14.25 -1.2 -14.25 -1.2 -15.05 -2.05 -15.05 M0.35 -20.6 L-0.45 -20.6 -0.45 -19.85 0.35 -19.85 0.35 -20.6 M-0.45 -19.05 L-0.45 -19.85 -1.2 -19.85 -1.2 -19.05 -0.45 -19.05 M-8.4 -20.6 L-7.55 -20.6 -7.55 -21.4 -8.4 -21.4 -8.4 -20.6 M-8.4 -19.05 L-7.55 -19.05 -7.55 -19.85 -8.4 -19.85 -8.4 -19.05 M-7.55 -20.6 L-7.55 -19.85 -6.8 -19.85 -6.8 -20.6 -7.55 -20.6 M-1.2 -15.85 L-1.2 -15.05 -0.45 -15.05 -0.45 -15.85 -1.2 -15.85" fill="#ff0000" fill-rule="evenodd" stroke="none"/>
    <path d="M1.95 -25.4 L1.95 -24.6 1.15 -24.6 1.15 -25.4 1.95 -25.4 M-6.8 -14.25 L-6.0 -14.25 -6.0 -16.65 -6.8 -16.65 -6.8 -17.45 -6.0 -17.45 -6.0 -16.65 -5.2 -16.65 -5.2 -18.25 -6.0 -18.25 -6.0 -19.05 -5.2 -19.05 -5.2 -18.25 -4.4 -18.25 -4.4 -16.65 -2.8 -16.65 -2.8 -15.05 -2.05 -15.05 -2.05 -13.5 -1.2 -13.5 -1.2 -12.7 -2.8 -12.7 -2.8 -14.25 -3.6 -14.25 -3.6 -15.05 -4.4 -15.05 -4.4 -15.85 -5.2 -15.85 -5.2 -13.5 -6.0 -13.5 -6.0 -12.7 -6.8 -12.7 -6.8 -13.5 -6.8 -14.25 M-9.95 -23.0 L-10.75 -23.0 -10.75 -23.8 -9.95 -23.8 -9.95 -23.0" fill="#ffffff" fill-rule="evenodd" stroke="none"/>
  </g>
</svg>
