<?xml version="1.0" encoding="UTF-8" standalone="no"?>
<svg xmlns:ffdec="https://www.free-decompiler.com/flash" xmlns:xlink="http://www.w3.org/1999/xlink" ffdec:objectType="shape" height="8.0px" width="144.0px" xmlns="http://www.w3.org/2000/svg">
  <g transform="matrix(1.0, 0.0, 0.0, 1.0, 72.0, 0.0)">
    <path d="M10.0 2.0 L5.0 2.0 2.0 2.0 -3.0 2.0 -6.0 2.0 -11.0 2.0 -14.0 2.0 -19.0 2.0 -22.0 2.0 -27.0 2.0 -30.0 2.0 -35.0 2.0 -38.0 2.0 -43.0 2.0 -46.0 2.0 -51.0 2.0 -54.0 2.0 -59.0 2.0 -62.0 2.0 -67.0 2.0 -70.0 2.0 -72.0 2.0 -72.0 1.0 72.0 1.0 72.0 2.0 69.0 2.0 66.0 2.0 61.0 2.0 58.0 2.0 53.0 2.0 50.0 2.0 45.0 2.0 42.0 2.0 37.0 2.0 34.0 2.0 29.0 2.0 26.0 2.0 21.0 2.0 18.0 2.0 13.0 2.0 10.0 2.0 M-72.0 7.0 L72.0 7.0 72.0 8.0 -72.0 8.0 -72.0 7.0" fill="#970000" fill-rule="evenodd" stroke="none"/>
    <path d="M10.0 2.0 L10.0 3.0 9.0 3.0 9.0 4.0 8.0 4.0 8.0 5.0 7.0 5.0 7.0 4.0 6.0 4.0 6.0 3.0 5.0 3.0 5.0 2.0 10.0 2.0 M2.0 2.0 L2.0 3.0 1.0 3.0 1.0 4.0 0.0 4.0 0.0 5.0 -1.0 5.0 -1.0 4.0 -2.0 4.0 -2.0 3.0 -3.0 3.0 -3.0 2.0 2.0 2.0 M-6.0 2.0 L-6.0 3.0 -7.0 3.0 -7.0 4.0 -8.0 4.0 -8.0 5.0 -9.0 5.0 -9.0 4.0 -10.0 4.0 -10.0 3.0 -11.0 3.0 -11.0 2.0 -6.0 2.0 M-14.0 2.0 L-14.0 3.0 -15.0 3.0 -15.0 4.0 -16.0 4.0 -16.0 5.0 -17.0 5.0 -17.0 4.0 -18.0 4.0 -18.0 3.0 -19.0 3.0 -19.0 2.0 -14.0 2.0 M-22.0 2.0 L-22.0 3.0 -23.0 3.0 -23.0 4.0 -24.0 4.0 -24.0 5.0 -25.0 5.0 -25.0 4.0 -26.0 4.0 -26.0 3.0 -27.0 3.0 -27.0 2.0 -22.0 2.0 M-30.0 2.0 L-30.0 3.0 -31.0 3.0 -31.0 4.0 -32.0 4.0 -32.0 5.0 -33.0 5.0 -33.0 4.0 -34.0 4.0 -34.0 3.0 -35.0 3.0 -35.0 2.0 -30.0 2.0 M-38.0 2.0 L-38.0 3.0 -39.0 3.0 -39.0 4.0 -40.0 4.0 -40.0 5.0 -41.0 5.0 -41.0 4.0 -42.0 4.0 -42.0 3.0 -43.0 3.0 -43.0 2.0 -38.0 2.0 M-46.0 2.0 L-46.0 3.0 -47.0 3.0 -47.0 4.0 -48.0 4.0 -48.0 5.0 -49.0 5.0 -49.0 4.0 -50.0 4.0 -50.0 3.0 -51.0 3.0 -51.0 2.0 -46.0 2.0 M-54.0 2.0 L-54.0 3.0 -55.0 3.0 -55.0 4.0 -56.0 4.0 -56.0 5.0 -57.0 5.0 -57.0 4.0 -58.0 4.0 -58.0 3.0 -59.0 3.0 -59.0 2.0 -54.0 2.0 M-62.0 2.0 L-62.0 3.0 -63.0 3.0 -63.0 4.0 -64.0 4.0 -64.0 5.0 -65.0 5.0 -65.0 4.0 -66.0 4.0 -66.0 3.0 -67.0 3.0 -67.0 2.0 -62.0 2.0 M-70.0 2.0 L-70.0 3.0 -71.0 3.0 -71.0 4.0 -72.0 4.0 -72.0 2.0 -70.0 2.0 M72.0 5.0 L71.0 5.0 71.0 4.0 70.0 4.0 70.0 3.0 69.0 3.0 69.0 2.0 72.0 2.0 72.0 5.0 M66.0 2.0 L66.0 3.0 65.0 3.0 65.0 4.0 64.0 4.0 64.0 5.0 63.0 5.0 63.0 4.0 62.0 4.0 62.0 3.0 61.0 3.0 61.0 2.0 66.0 2.0 M58.0 2.0 L58.0 3.0 57.0 3.0 57.0 4.0 56.0 4.0 56.0 5.0 55.0 5.0 55.0 4.0 54.0 4.0 54.0 3.0 53.0 3.0 53.0 2.0 58.0 2.0 M50.0 2.0 L50.0 3.0 49.0 3.0 49.0 4.0 48.0 4.0 48.0 5.0 47.0 5.0 47.0 4.0 46.0 4.0 46.0 3.0 45.0 3.0 45.0 2.0 50.0 2.0 M42.0 2.0 L42.0 3.0 41.0 3.0 41.0 4.0 40.0 4.0 40.0 5.0 39.0 5.0 39.0 4.0 38.0 4.0 38.0 3.0 37.0 3.0 37.0 2.0 42.0 2.0 M34.0 2.0 L34.0 3.0 33.0 3.0 33.0 4.0 32.0 4.0 32.0 5.0 31.0 5.0 31.0 4.0 30.0 4.0 30.0 3.0 29.0 3.0 29.0 2.0 34.0 2.0 M26.0 2.0 L26.0 3.0 25.0 3.0 25.0 4.0 24.0 4.0 24.0 5.0 23.0 5.0 23.0 4.0 22.0 4.0 22.0 3.0 21.0 3.0 21.0 2.0 26.0 2.0 M18.0 2.0 L18.0 3.0 17.0 3.0 17.0 4.0 16.0 4.0 16.0 5.0 15.0 5.0 15.0 4.0 14.0 4.0 14.0 3.0 13.0 3.0 13.0 2.0 18.0 2.0 M4.0 3.0 L4.0 4.0 5.0 4.0 5.0 5.0 6.0 5.0 6.0 6.0 1.0 6.0 1.0 5.0 2.0 5.0 2.0 4.0 3.0 4.0 3.0 3.0 4.0 3.0 M12.0 3.0 L12.0 4.0 13.0 4.0 13.0 5.0 14.0 5.0 14.0 6.0 9.0 6.0 9.0 5.0 10.0 5.0 10.0 4.0 11.0 4.0 11.0 3.0 12.0 3.0 M20.0 3.0 L20.0 4.0 21.0 4.0 21.0 5.0 22.0 5.0 22.0 6.0 17.0 6.0 17.0 5.0 18.0 5.0 18.0 4.0 19.0 4.0 19.0 3.0 20.0 3.0 M28.0 3.0 L28.0 4.0 29.0 4.0 29.0 5.0 30.0 5.0 30.0 6.0 25.0 6.0 25.0 5.0 26.0 5.0 26.0 4.0 27.0 4.0 27.0 3.0 28.0 3.0 M36.0 3.0 L36.0 4.0 37.0 4.0 37.0 5.0 38.0 5.0 38.0 6.0 33.0 6.0 33.0 5.0 34.0 5.0 34.0 4.0 35.0 4.0 35.0 3.0 36.0 3.0 M44.0 3.0 L44.0 4.0 45.0 4.0 45.0 5.0 46.0 5.0 46.0 6.0 41.0 6.0 41.0 5.0 42.0 5.0 42.0 4.0 43.0 4.0 43.0 3.0 44.0 3.0 M60.0 3.0 L60.0 4.0 61.0 4.0 61.0 5.0 62.0 5.0 62.0 6.0 57.0 6.0 57.0 5.0 58.0 5.0 58.0 4.0 59.0 4.0 59.0 3.0 60.0 3.0 M52.0 3.0 L52.0 4.0 53.0 4.0 53.0 5.0 54.0 5.0 54.0 6.0 49.0 6.0 49.0 5.0 50.0 5.0 50.0 4.0 51.0 4.0 51.0 3.0 52.0 3.0 M68.0 3.0 L68.0 4.0 69.0 4.0 69.0 5.0 70.0 5.0 70.0 6.0 65.0 6.0 65.0 5.0 66.0 5.0 66.0 4.0 67.0 4.0 67.0 3.0 68.0 3.0 M-68.0 3.0 L-68.0 4.0 -67.0 4.0 -67.0 5.0 -66.0 5.0 -66.0 6.0 -71.0 6.0 -71.0 5.0 -70.0 5.0 -70.0 4.0 -69.0 4.0 -69.0 3.0 -68.0 3.0 M-52.0 3.0 L-52.0 4.0 -51.0 4.0 -51.0 5.0 -50.0 5.0 -50.0 6.0 -55.0 6.0 -55.0 5.0 -54.0 5.0 -54.0 4.0 -53.0 4.0 -53.0 3.0 -52.0 3.0 M-44.0 3.0 L-44.0 4.0 -43.0 4.0 -43.0 5.0 -42.0 5.0 -42.0 6.0 -47.0 6.0 -47.0 5.0 -46.0 5.0 -46.0 4.0 -45.0 4.0 -45.0 3.0 -44.0 3.0 M-60.0 3.0 L-60.0 4.0 -59.0 4.0 -59.0 5.0 -58.0 5.0 -58.0 6.0 -63.0 6.0 -63.0 5.0 -62.0 5.0 -62.0 4.0 -61.0 4.0 -61.0 3.0 -60.0 3.0 M-36.0 3.0 L-36.0 4.0 -35.0 4.0 -35.0 5.0 -34.0 5.0 -34.0 6.0 -39.0 6.0 -39.0 5.0 -38.0 5.0 -38.0 4.0 -37.0 4.0 -37.0 3.0 -36.0 3.0 M-28.0 3.0 L-28.0 4.0 -27.0 4.0 -27.0 5.0 -26.0 5.0 -26.0 6.0 -31.0 6.0 -31.0 5.0 -30.0 5.0 -30.0 4.0 -29.0 4.0 -29.0 3.0 -28.0 3.0 M-12.0 3.0 L-12.0 4.0 -11.0 4.0 -11.0 5.0 -10.0 5.0 -10.0 6.0 -15.0 6.0 -15.0 5.0 -14.0 5.0 -14.0 4.0 -13.0 4.0 -13.0 3.0 -12.0 3.0 M-4.0 3.0 L-4.0 4.0 -3.0 4.0 -3.0 5.0 -2.0 5.0 -2.0 6.0 -7.0 6.0 -7.0 5.0 -6.0 5.0 -6.0 4.0 -5.0 4.0 -5.0 3.0 -4.0 3.0 M-20.0 3.0 L-20.0 4.0 -19.0 4.0 -19.0 5.0 -18.0 5.0 -18.0 6.0 -23.0 6.0 -23.0 5.0 -22.0 5.0 -22.0 4.0 -21.0 4.0 -21.0 3.0 -20.0 3.0" fill="#000000" fill-rule="evenodd" stroke="none"/>
    <path d="M5.0 2.0 L5.0 3.0 6.0 3.0 6.0 4.0 7.0 4.0 7.0 5.0 8.0 5.0 8.0 4.0 9.0 4.0 9.0 3.0 10.0 3.0 10.0 2.0 13.0 2.0 13.0 3.0 14.0 3.0 14.0 4.0 15.0 4.0 15.0 5.0 16.0 5.0 16.0 4.0 17.0 4.0 17.0 3.0 18.0 3.0 18.0 2.0 21.0 2.0 21.0 3.0 22.0 3.0 22.0 4.0 23.0 4.0 23.0 5.0 24.0 5.0 24.0 4.0 25.0 4.0 25.0 3.0 26.0 3.0 26.0 2.0 29.0 2.0 29.0 3.0 30.0 3.0 30.0 4.0 31.0 4.0 31.0 5.0 32.0 5.0 32.0 4.0 33.0 4.0 33.0 3.0 34.0 3.0 34.0 2.0 37.0 2.0 37.0 3.0 38.0 3.0 38.0 4.0 39.0 4.0 39.0 5.0 40.0 5.0 40.0 4.0 41.0 4.0 41.0 3.0 42.0 3.0 42.0 2.0 45.0 2.0 45.0 3.0 46.0 3.0 46.0 4.0 47.0 4.0 47.0 5.0 48.0 5.0 48.0 4.0 49.0 4.0 49.0 3.0 50.0 3.0 50.0 2.0 53.0 2.0 53.0 3.0 54.0 3.0 54.0 4.0 55.0 4.0 55.0 5.0 56.0 5.0 56.0 4.0 57.0 4.0 57.0 3.0 58.0 3.0 58.0 2.0 61.0 2.0 61.0 3.0 62.0 3.0 62.0 4.0 63.0 4.0 63.0 5.0 64.0 5.0 64.0 4.0 65.0 4.0 65.0 3.0 66.0 3.0 66.0 2.0 69.0 2.0 69.0 3.0 70.0 3.0 70.0 4.0 71.0 4.0 71.0 5.0 72.0 5.0 72.0 7.0 -72.0 7.0 -72.0 4.0 -71.0 4.0 -71.0 3.0 -70.0 3.0 -70.0 2.0 -67.0 2.0 -67.0 3.0 -66.0 3.0 -66.0 4.0 -65.0 4.0 -65.0 5.0 -64.0 5.0 -64.0 4.0 -63.0 4.0 -63.0 3.0 -62.0 3.0 -62.0 2.0 -59.0 2.0 -59.0 3.0 -58.0 3.0 -58.0 4.0 -57.0 4.0 -57.0 5.0 -56.0 5.0 -56.0 4.0 -55.0 4.0 -55.0 3.0 -54.0 3.0 -54.0 2.0 -51.0 2.0 -51.0 3.0 -50.0 3.0 -50.0 4.0 -49.0 4.0 -49.0 5.0 -48.0 5.0 -48.0 4.0 -47.0 4.0 -47.0 3.0 -46.0 3.0 -46.0 2.0 -43.0 2.0 -43.0 3.0 -42.0 3.0 -42.0 4.0 -41.0 4.0 -41.0 5.0 -40.0 5.0 -40.0 4.0 -39.0 4.0 -39.0 3.0 -38.0 3.0 -38.0 2.0 -35.0 2.0 -35.0 3.0 -34.0 3.0 -34.0 4.0 -33.0 4.0 -33.0 5.0 -32.0 5.0 -32.0 4.0 -31.0 4.0 -31.0 3.0 -30.0 3.0 -30.0 2.0 -27.0 2.0 -27.0 3.0 -26.0 3.0 -26.0 4.0 -25.0 4.0 -25.0 5.0 -24.0 5.0 -24.0 4.0 -23.0 4.0 -23.0 3.0 -22.0 3.0 -22.0 2.0 -19.0 2.0 -19.0 3.0 -18.0 3.0 -18.0 4.0 -17.0 4.0 -17.0 5.0 -16.0 5.0 -16.0 4.0 -15.0 4.0 -15.0 3.0 -14.0 3.0 -14.0 2.0 -11.0 2.0 -11.0 3.0 -10.0 3.0 -10.0 4.0 -9.0 4.0 -9.0 5.0 -8.0 5.0 -8.0 4.0 -7.0 4.0 -7.0 3.0 -6.0 3.0 -6.0 2.0 -3.0 2.0 -3.0 3.0 -2.0 3.0 -2.0 4.0 -1.0 4.0 -1.0 5.0 0.0 5.0 0.0 4.0 1.0 4.0 1.0 3.0 2.0 3.0 2.0 2.0 5.0 2.0 M4.0 3.0 L3.0 3.0 3.0 4.0 2.0 4.0 2.0 5.0 1.0 5.0 1.0 6.0 6.0 6.0 6.0 5.0 5.0 5.0 5.0 4.0 4.0 4.0 4.0 3.0 M28.0 3.0 L27.0 3.0 27.0 4.0 26.0 4.0 26.0 5.0 25.0 5.0 25.0 6.0 30.0 6.0 30.0 5.0 29.0 5.0 29.0 4.0 28.0 4.0 28.0 3.0 M20.0 3.0 L19.0 3.0 19.0 4.0 18.0 4.0 18.0 5.0 17.0 5.0 17.0 6.0 22.0 6.0 22.0 5.0 21.0 5.0 21.0 4.0 20.0 4.0 20.0 3.0 M12.0 3.0 L11.0 3.0 11.0 4.0 10.0 4.0 10.0 5.0 9.0 5.0 9.0 6.0 14.0 6.0 14.0 5.0 13.0 5.0 13.0 4.0 12.0 4.0 12.0 3.0 M36.0 3.0 L35.0 3.0 35.0 4.0 34.0 4.0 34.0 5.0 33.0 5.0 33.0 6.0 38.0 6.0 38.0 5.0 37.0 5.0 37.0 4.0 36.0 4.0 36.0 3.0 M44.0 3.0 L43.0 3.0 43.0 4.0 42.0 4.0 42.0 5.0 41.0 5.0 41.0 6.0 46.0 6.0 46.0 5.0 45.0 5.0 45.0 4.0 44.0 4.0 44.0 3.0 M52.0 3.0 L51.0 3.0 51.0 4.0 50.0 4.0 50.0 5.0 49.0 5.0 49.0 6.0 54.0 6.0 54.0 5.0 53.0 5.0 53.0 4.0 52.0 4.0 52.0 3.0 M60.0 3.0 L59.0 3.0 59.0 4.0 58.0 4.0 58.0 5.0 57.0 5.0 57.0 6.0 62.0 6.0 62.0 5.0 61.0 5.0 61.0 4.0 60.0 4.0 60.0 3.0 M68.0 3.0 L67.0 3.0 67.0 4.0 66.0 4.0 66.0 5.0 65.0 5.0 65.0 6.0 70.0 6.0 70.0 5.0 69.0 5.0 69.0 4.0 68.0 4.0 68.0 3.0 M-72.0 1.0 L-72.0 0.0 72.0 0.0 72.0 1.0 -72.0 1.0 M-68.0 3.0 L-69.0 3.0 -69.0 4.0 -70.0 4.0 -70.0 5.0 -71.0 5.0 -71.0 6.0 -66.0 6.0 -66.0 5.0 -67.0 5.0 -67.0 4.0 -68.0 4.0 -68.0 3.0 M-44.0 3.0 L-45.0 3.0 -45.0 4.0 -46.0 4.0 -46.0 5.0 -47.0 5.0 -47.0 6.0 -42.0 6.0 -42.0 5.0 -43.0 5.0 -43.0 4.0 -44.0 4.0 -44.0 3.0 M-52.0 3.0 L-53.0 3.0 -53.0 4.0 -54.0 4.0 -54.0 5.0 -55.0 5.0 -55.0 6.0 -50.0 6.0 -50.0 5.0 -51.0 5.0 -51.0 4.0 -52.0 4.0 -52.0 3.0 M-28.0 3.0 L-29.0 3.0 -29.0 4.0 -30.0 4.0 -30.0 5.0 -31.0 5.0 -31.0 6.0 -26.0 6.0 -26.0 5.0 -27.0 5.0 -27.0 4.0 -28.0 4.0 -28.0 3.0 M-36.0 3.0 L-37.0 3.0 -37.0 4.0 -38.0 4.0 -38.0 5.0 -39.0 5.0 -39.0 6.0 -34.0 6.0 -34.0 5.0 -35.0 5.0 -35.0 4.0 -36.0 4.0 -36.0 3.0 M-60.0 3.0 L-61.0 3.0 -61.0 4.0 -62.0 4.0 -62.0 5.0 -63.0 5.0 -63.0 6.0 -58.0 6.0 -58.0 5.0 -59.0 5.0 -59.0 4.0 -60.0 4.0 -60.0 3.0 M-4.0 3.0 L-5.0 3.0 -5.0 4.0 -6.0 4.0 -6.0 5.0 -7.0 5.0 -7.0 6.0 -2.0 6.0 -2.0 5.0 -3.0 5.0 -3.0 4.0 -4.0 4.0 -4.0 3.0 M-12.0 3.0 L-13.0 3.0 -13.0 4.0 -14.0 4.0 -14.0 5.0 -15.0 5.0 -15.0 6.0 -10.0 6.0 -10.0 5.0 -11.0 5.0 -11.0 4.0 -12.0 4.0 -12.0 3.0 M-20.0 3.0 L-21.0 3.0 -21.0 4.0 -22.0 4.0 -22.0 5.0 -23.0 5.0 -23.0 6.0 -18.0 6.0 -18.0 5.0 -19.0 5.0 -19.0 4.0 -20.0 4.0 -20.0 3.0" fill="#ff2155" fill-rule="evenodd" stroke="none"/>
  </g>
</svg>
