<?xml version="1.0" encoding="UTF-8" standalone="no"?>
<svg xmlns:ffdec="https://www.free-decompiler.com/flash" xmlns:xlink="http://www.w3.org/1999/xlink" ffdec:objectType="shape" height="28.1px" width="8.0px" xmlns="http://www.w3.org/2000/svg">
  <g transform="matrix(1.0, 0.0, 0.0, 1.0, 4.0, 28.1)">
    <path d="M3.0 -13.0 L3.0 -16.0 -3.0 -16.0 -3.0 -13.0 3.0 -13.0 M-3.0 -20.0 L-3.0 -17.0 3.0 -17.0 3.0 -20.0 3.9 -20.0 4.0 -20.0 4.0 0.0 -4.0 0.0 -4.0 -20.0 -3.0 -20.0 M3.0 -9.0 L3.0 -12.0 -3.0 -12.0 -3.0 -9.0 3.0 -9.0 M3.0 -5.0 L3.0 -8.0 -3.0 -8.0 -3.0 -5.0 3.0 -5.0 M3.0 -1.0 L3.0 -4.0 -3.0 -4.0 -3.0 -1.0 3.0 -1.0" fill="#00ffff" fill-rule="evenodd" stroke="none"/>
    <path d="M3.0 -20.0 L-3.0 -20.0 -4.0 -20.0 -4.0 -28.1 3.9 -28.1 3.9 -20.0 3.0 -20.0" fill="#000000" fill-rule="evenodd" stroke="none"/>
  </g>
</svg>
