<?xml version="1.0" encoding="UTF-8" standalone="no"?>
<svg xmlns:ffdec="https://www.free-decompiler.com/flash" xmlns:xlink="http://www.w3.org/1999/xlink" ffdec:objectType="shape" height="15.0px" width="16.0px" xmlns="http://www.w3.org/2000/svg">
  <g transform="matrix(1.0, 0.0, 0.0, 1.0, 8.0, 15.0)">
    <path d="M-3.0 -14.0 L-3.0 -15.0 3.0 -15.0 3.0 -14.0 2.0 -14.0 2.0 -13.0 -2.0 -13.0 -2.0 -14.0 -3.0 -14.0 M5.0 -5.0 L5.0 -2.0 4.0 -2.0 4.0 -1.0 -4.0 -1.0 -4.0 -2.0 -5.0 -2.0 -5.0 -5.0 -5.0 -6.0 -5.0 -7.0 -4.0 -7.0 -4.0 -8.0 -3.0 -8.0 -3.0 -10.0 -2.0 -10.0 -2.0 -7.0 -1.0 -7.0 -1.0 -6.0 1.0 -6.0 1.0 -7.0 2.0 -7.0 2.0 -10.0 3.0 -10.0 3.0 -8.0 4.0 -8.0 4.0 -7.0 5.0 -7.0 5.0 -6.0 5.0 -5.0 M1.0 -2.0 L1.0 -3.0 -1.0 -3.0 -1.0 -2.0 1.0 -2.0" fill="#fb0303" fill-rule="evenodd" stroke="none"/>
    <path d="M-3.0 -14.0 L-2.0 -14.0 -2.0 -13.0 2.0 -13.0 2.0 -14.0 3.0 -14.0 3.0 -13.0 4.0 -13.0 4.0 -11.0 3.0 -11.0 -3.0 -11.0 -4.0 -11.0 -4.0 -13.0 -3.0 -13.0 -3.0 -14.0 M3.0 -10.0 L5.0 -10.0 5.0 -9.0 6.0 -9.0 6.0 -8.0 7.0 -8.0 7.0 -7.0 7.0 -6.0 5.0 -6.0 5.0 -7.0 4.0 -7.0 4.0 -8.0 3.0 -8.0 3.0 -10.0 M4.0 -1.0 L5.0 -1.0 5.0 0.0 -5.0 0.0 -5.0 -1.0 -4.0 -1.0 4.0 -1.0 M-7.0 -7.0 L-7.0 -8.0 -6.0 -8.0 -6.0 -9.0 -5.0 -9.0 -5.0 -10.0 -3.0 -10.0 -3.0 -8.0 -4.0 -8.0 -4.0 -7.0 -5.0 -7.0 -5.0 -6.0 -7.0 -6.0 -7.0 -7.0 M2.0 -10.0 L2.0 -7.0 1.0 -7.0 1.0 -6.0 -1.0 -6.0 -1.0 -7.0 -2.0 -7.0 -2.0 -10.0 2.0 -10.0" fill="#0303ab" fill-rule="evenodd" stroke="none"/>
    <path d="M3.0 -11.0 L3.0 -10.0 2.0 -10.0 -2.0 -10.0 -3.0 -10.0 -3.0 -11.0 3.0 -11.0 M7.0 -7.0 L8.0 -7.0 8.0 -5.0 5.0 -5.0 5.0 -6.0 7.0 -6.0 7.0 -7.0 M-5.0 -5.0 L-8.0 -5.0 -8.0 -7.0 -7.0 -7.0 -7.0 -6.0 -5.0 -6.0 -5.0 -5.0" fill="#fbbb53" fill-rule="evenodd" stroke="none"/>
  </g>
</svg>
