<?xml version="1.0" encoding="UTF-8" standalone="no"?>
<svg xmlns:ffdec="https://www.free-decompiler.com/flash" xmlns:xlink="http://www.w3.org/1999/xlink" ffdec:objectType="shape" height="44.0px" width="8.0px" xmlns="http://www.w3.org/2000/svg">
  <g transform="matrix(1.0, 0.0, 0.0, 1.0, 4.0, 22.0)">
    <path d="M-3.0 -22.0 L-3.0 -20.5 3.0 -20.5 3.0 -22.0 4.0 -22.0 4.0 22.0 3.0 22.0 3.0 20.5 -3.0 20.5 -3.0 22.0 -4.0 22.0 -4.0 -22.0 -3.0 -22.0 M3.0 16.5 L-3.0 16.5 -3.0 19.5 3.0 19.5 3.0 16.5 M-3.0 4.5 L-3.0 7.5 3.0 7.5 3.0 4.5 -3.0 4.5 M-3.0 12.5 L-3.0 15.5 3.0 15.5 3.0 12.5 -3.0 12.5 M-3.0 8.5 L-3.0 11.5 3.0 11.5 3.0 8.5 -3.0 8.5 M3.0 -0.5 L3.0 -3.5 -3.0 -3.5 -3.0 -0.5 3.0 -0.5 M3.0 3.5 L3.0 0.5 -3.0 0.5 -3.0 3.5 3.0 3.5 M3.0 -4.5 L3.0 -7.5 -3.0 -7.5 -3.0 -4.5 3.0 -4.5 M-3.0 -15.5 L-3.0 -12.5 3.0 -12.5 3.0 -15.5 -3.0 -15.5 M-3.0 -11.5 L-3.0 -8.5 3.0 -8.5 3.0 -11.5 -3.0 -11.5 M-3.0 -19.5 L-3.0 -16.5 3.0 -16.5 3.0 -19.5 -3.0 -19.5" fill="#00ffff" fill-rule="evenodd" stroke="none"/>
    <path d="M3.0 -22.0 L3.0 -20.5 -3.0 -20.5 -3.0 -22.0 3.0 -22.0 M-3.0 22.0 L-3.0 20.5 3.0 20.5 3.0 22.0 -3.0 22.0 M-3.0 -19.5 L3.0 -19.5 3.0 -16.5 -3.0 -16.5 -3.0 -19.5 M-3.0 -11.5 L3.0 -11.5 3.0 -8.5 -3.0 -8.5 -3.0 -11.5 M-3.0 -15.5 L3.0 -15.5 3.0 -12.5 -3.0 -12.5 -3.0 -15.5 M3.0 -4.5 L-3.0 -4.5 -3.0 -7.5 3.0 -7.5 3.0 -4.5 M3.0 3.5 L-3.0 3.5 -3.0 0.5 3.0 0.5 3.0 3.5 M3.0 -0.5 L-3.0 -0.5 -3.0 -3.5 3.0 -3.5 3.0 -0.5 M-3.0 8.5 L3.0 8.5 3.0 11.5 -3.0 11.5 -3.0 8.5 M-3.0 12.5 L3.0 12.5 3.0 15.5 -3.0 15.5 -3.0 12.5 M-3.0 4.5 L3.0 4.5 3.0 7.5 -3.0 7.5 -3.0 4.5 M3.0 16.5 L3.0 19.5 -3.0 19.5 -3.0 16.5 3.0 16.5" fill="#000000" fill-rule="evenodd" stroke="none"/>
  </g>
</svg>
