<?xml version="1.0" encoding="UTF-8" standalone="no"?>
<svg xmlns:ffdec="https://www.free-decompiler.com/flash" xmlns:xlink="http://www.w3.org/1999/xlink" ffdec:objectType="shape" height="16.0px" width="16.0px" xmlns="http://www.w3.org/2000/svg">
  <g transform="matrix(1.0, 0.0, 0.0, 1.0, 7.9, 7.8)">
    <path d="M0.1 -5.8 L-0.9 -5.8 -0.9 -6.8 -5.9 -6.8 -5.9 -5.8 -6.9 -5.8 -6.9 -4.8 -5.9 -4.8 -5.9 -3.8 -0.9 -3.8 -0.9 -4.8 0.1 -4.8 0.1 -5.8 1.1 -5.8 1.1 -4.8 0.1 -4.8 0.1 -3.8 -0.9 -3.8 -0.9 -2.8 -5.9 -2.8 -5.9 -3.8 -6.9 -3.8 -6.9 -4.8 -7.9 -4.8 -7.9 -5.8 -6.9 -5.8 -6.9 -6.8 -5.9 -6.8 -5.9 -7.8 -0.9 -7.8 -0.9 -6.8 0.1 -6.8 0.1 -5.8 M7.1 5.2 L7.1 6.2 8.1 6.2 8.1 8.2 5.1 8.2 5.1 5.2 5.1 4.2 6.1 4.2 6.1 5.2 7.1 5.2 M-5.9 3.2 L-4.9 3.2 -4.9 1.2 -3.9 1.2 -3.9 0.2 -2.9 0.2 -2.9 1.2 -2.9 4.2 -3.9 4.2 -3.9 5.2 -5.9 5.2 -5.9 3.2 M-1.9 2.2 L-0.9 2.2 -0.9 3.2 -0.9 4.2 -0.9 6.2 0.1 6.2 0.1 7.2 -1.9 7.2 -1.9 6.2 -2.9 6.2 -2.9 7.2 -4.9 7.2 -4.9 6.2 -3.9 6.2 -3.9 5.2 -1.9 5.2 -1.9 2.2 M2.1 1.2 L3.1 1.2 3.1 2.2 2.1 2.2 2.1 1.2" fill="#ffba52" fill-rule="evenodd" stroke="none"/>
    <path d="M2.1 -1.8 L1.1 -1.8 1.1 -0.8 -0.9 -0.8 -0.9 -2.8 1.1 -2.8 1.1 -3.8 5.1 -3.8 5.1 -2.8 5.1 -1.8 2.1 -1.8 M5.1 8.2 L1.1 8.2 1.1 7.2 0.1 7.2 0.1 8.2 -5.9 8.2 -5.9 5.2 -3.9 5.2 -3.9 4.2 -2.9 4.2 -2.9 1.2 -1.9 1.2 -1.9 2.2 -1.9 5.2 -3.9 5.2 -3.9 6.2 -4.9 6.2 -4.9 7.2 -2.9 7.2 -2.9 6.2 -1.9 6.2 -1.9 7.2 0.1 7.2 0.1 6.2 -0.9 6.2 -0.9 4.2 0.1 4.2 0.1 3.2 -0.9 3.2 -0.9 2.2 0.1 2.2 0.1 1.2 1.1 1.2 1.1 2.2 0.1 2.2 0.1 3.2 1.1 3.2 1.1 4.2 2.1 4.2 2.1 5.2 5.1 5.2 5.1 8.2" fill="#0000ad" fill-rule="evenodd" stroke="none"/>
    <path d="M1.1 1.2 L2.1 1.2 2.1 0.2 3.1 0.2 3.1 -0.8 2.1 -0.8 2.1 -1.8 5.1 -1.8 5.1 -2.8 6.1 -2.8 6.1 -1.8 7.1 -1.8 7.1 1.2 8.1 1.2 8.1 4.2 7.1 4.2 7.1 5.2 6.1 5.2 6.1 4.2 5.1 4.2 5.1 5.2 2.1 5.2 2.1 4.2 1.1 4.2 1.1 3.2 0.1 3.2 0.1 2.2 1.1 2.2 1.1 1.2 M1.1 8.2 L0.1 8.2 0.1 7.2 1.1 7.2 1.1 8.2 M-5.9 8.2 L-6.9 8.2 -6.9 7.2 -7.9 7.2 -7.9 3.2 -6.9 3.2 -6.9 2.2 -7.9 2.2 -7.9 1.2 -6.9 1.2 -6.9 2.2 -5.9 2.2 -5.9 3.2 -5.9 5.2 -5.9 8.2 M-0.9 4.2 L-0.9 3.2 0.1 3.2 0.1 4.2 -0.9 4.2 M2.1 1.2 L2.1 2.2 3.1 2.2 3.1 1.2 2.1 1.2" fill="#ff0000" fill-rule="evenodd" stroke="none"/>
  </g>
</svg>
