<?xml version="1.0" encoding="UTF-8" standalone="no"?>
<svg xmlns:ffdec="https://www.free-decompiler.com/flash" xmlns:xlink="http://www.w3.org/1999/xlink" ffdec:objectType="shape" height="16.0px" width="16.0px" xmlns="http://www.w3.org/2000/svg">
  <g transform="matrix(1.0, 0.0, 0.0, 1.0, 6.95, 7.85)">
    <path d="M-2.95 -5.85 L-2.95 -6.85 -1.95 -6.85 -1.95 -7.85 2.05 -7.85 2.05 -6.85 5.05 -6.85 5.05 -5.85 3.05 -5.85 1.05 -5.85 -2.95 -5.85 M4.05 1.15 L4.05 3.15 5.05 3.15 5.05 4.15 6.05 4.15 6.05 5.15 6.05 6.15 5.05 6.15 5.05 4.15 3.05 4.15 3.05 5.15 2.05 5.15 2.05 6.15 1.05 6.15 1.05 7.15 0.05 7.15 -1.95 7.15 -1.95 6.15 -2.95 6.15 -2.95 5.15 -3.95 5.15 -3.95 2.15 -3.95 1.15 -2.95 1.15 -2.95 2.15 -0.95 2.15 -0.95 1.15 0.05 1.15 0.05 0.15 -0.95 0.15 -0.95 -0.85 0.05 -0.85 0.05 0.15 2.05 0.15 2.05 1.15 4.05 1.15 M0.05 1.15 L0.05 2.15 1.05 2.15 1.05 1.15 0.05 1.15 M5.05 6.15 L5.05 7.15 4.05 7.15 4.05 6.15 5.05 6.15" fill="#fb0303" fill-rule="evenodd" stroke="none"/>
    <path d="M3.05 -5.85 L3.05 -4.85 6.05 -4.85 6.05 -3.85 7.05 -3.85 7.05 -2.85 6.05 -2.85 4.05 -2.85 4.05 -3.85 3.05 -3.85 3.05 -4.85 2.05 -4.85 2.05 -3.85 3.05 -3.85 3.05 -2.85 2.05 -2.85 2.05 -1.85 5.05 -1.85 5.05 -0.85 0.05 -0.85 -0.95 -0.85 -2.95 -0.85 -2.95 -1.85 -1.95 -1.85 -1.95 -2.85 -2.95 -2.85 -2.95 -4.85 -0.95 -4.85 -0.95 -2.85 1.05 -2.85 1.05 -3.85 0.05 -3.85 0.05 -4.85 1.05 -4.85 1.05 -5.85 3.05 -5.85 M7.05 0.15 L9.05 0.15 9.05 2.15 6.05 2.15 6.05 1.15 5.05 1.15 5.05 0.15 7.05 0.15 M-1.95 7.15 L-1.95 8.15 -2.95 8.15 -2.95 7.15 -4.95 7.15 -4.95 8.15 -6.95 8.15 -6.95 7.15 -4.95 7.15 -4.95 6.15 -5.95 6.15 -5.95 5.15 -4.95 5.15 -4.95 6.15 -2.95 6.15 -2.95 7.15 -1.95 7.15 M-3.95 2.15 L-4.95 2.15 -4.95 3.15 -5.95 3.15 -5.95 2.15 -6.95 2.15 -6.95 1.15 -4.95 1.15 -3.95 1.15 -3.95 2.15 M0.05 1.15 L1.05 1.15 1.05 2.15 0.05 2.15 0.05 1.15" fill="#fbbb53" fill-rule="evenodd" stroke="none"/>
    <path d="M6.05 -2.85 L6.05 -1.85 5.05 -1.85 2.05 -1.85 2.05 -2.85 3.05 -2.85 3.05 -3.85 2.05 -3.85 2.05 -4.85 3.05 -4.85 3.05 -3.85 4.05 -3.85 4.05 -2.85 6.05 -2.85 M5.05 -0.85 L7.05 -0.85 7.05 0.15 5.05 0.15 5.05 1.15 4.05 1.15 2.05 1.15 2.05 0.15 0.05 0.15 0.05 -0.85 5.05 -0.85 M6.05 5.15 L7.05 5.15 7.05 4.15 8.05 4.15 8.05 6.15 7.05 6.15 7.05 7.15 6.05 7.15 6.05 8.15 4.05 8.15 4.05 7.15 3.05 7.15 3.05 8.15 0.05 8.15 0.05 7.15 1.05 7.15 1.05 6.15 2.05 6.15 2.05 5.15 3.05 5.15 3.05 4.15 5.05 4.15 5.05 6.15 6.05 6.15 6.05 5.15 M-6.95 1.15 L-6.95 -0.85 -5.95 -0.85 -5.95 -1.85 -4.95 -1.85 -4.95 -2.85 -3.95 -2.85 -3.95 -4.85 -2.95 -4.85 -2.95 -5.85 1.05 -5.85 1.05 -4.85 0.05 -4.85 0.05 -3.85 1.05 -3.85 1.05 -2.85 -0.95 -2.85 -0.95 -4.85 -2.95 -4.85 -2.95 -2.85 -1.95 -2.85 -1.95 -1.85 -2.95 -1.85 -2.95 -0.85 -0.95 -0.85 -0.95 0.15 0.05 0.15 0.05 1.15 -0.95 1.15 -0.95 2.15 -2.95 2.15 -2.95 1.15 -3.95 1.15 -3.95 0.15 -4.95 0.15 -4.95 1.15 -6.95 1.15 M5.05 6.15 L4.05 6.15 4.05 7.15 5.05 7.15 5.05 6.15" fill="#0303ab" fill-rule="evenodd" stroke="none"/>
  </g>
</svg>
