<?xml version="1.0" encoding="UTF-8" standalone="no"?>
<svg xmlns:ffdec="https://www.free-decompiler.com/flash" xmlns:xlink="http://www.w3.org/1999/xlink" ffdec:objectType="shape" height="22.5px" width="22.5px" xmlns="http://www.w3.org/2000/svg">
  <g transform="matrix(1.0, 0.0, 0.0, 1.0, 12.05, 11.25)">
    <path d="M-4.55 -8.25 L-4.55 -9.75 -3.05 -9.75 -3.05 -11.25 2.95 -11.25 2.95 -9.75 7.45 -9.75 7.45 -8.25 4.45 -8.25 1.45 -8.25 -4.55 -8.25 M5.95 3.75 L5.95 6.75 4.45 6.75 4.45 8.25 2.95 8.25 -0.05 8.25 -0.05 6.75 -3.05 6.75 -3.05 8.25 -9.05 8.25 -9.05 3.75 -6.05 3.75 -6.05 2.25 -3.05 2.25 -3.05 3.75 2.95 3.75 5.95 3.75 M1.45 -0.75 L2.95 -0.75 2.95 0.75 1.45 0.75 1.45 -0.75" fill="#ff0000" fill-rule="evenodd" stroke="none"/>
    <path d="M4.45 -8.25 L4.45 -6.75 8.95 -6.75 8.95 -5.25 10.45 -5.25 10.45 -3.75 8.95 -3.75 5.95 -3.75 5.95 -5.25 4.45 -5.25 4.45 -3.75 2.95 -3.75 2.95 -2.25 7.45 -2.25 7.45 -0.75 5.95 -0.75 5.95 0.75 7.45 0.75 7.45 2.25 5.95 2.25 5.95 3.75 2.95 3.75 2.95 0.75 4.45 0.75 4.45 -0.75 2.95 -0.75 1.45 -0.75 -3.05 -0.75 -3.05 -2.25 -3.05 -3.75 -4.55 -3.75 -4.55 -6.75 -1.55 -6.75 -1.55 -3.75 1.45 -3.75 1.45 -5.25 -0.05 -5.25 -0.05 -6.75 1.45 -6.75 1.45 -8.25 4.45 -8.25 M-9.05 3.75 L-9.05 2.25 -7.55 2.25 -7.55 0.75 -6.05 0.75 -6.05 2.25 -6.05 3.75 -9.05 3.75 M2.95 -6.75 L2.95 -5.25 4.45 -5.25 4.45 -6.75 2.95 -6.75" fill="#ffb855" fill-rule="evenodd" stroke="none"/>
    <path d="M8.95 -3.75 L8.95 -2.25 7.45 -2.25 2.95 -2.25 2.95 -3.75 4.45 -3.75 4.45 -5.25 5.95 -5.25 5.95 -3.75 8.95 -3.75 M2.95 8.25 L2.95 9.75 4.45 9.75 4.45 11.25 -1.55 11.25 -1.55 8.25 -0.05 8.25 2.95 8.25 M-9.05 8.25 L-10.55 8.25 -10.55 9.75 -12.05 9.75 -12.05 3.75 -9.05 3.75 -9.05 8.25 M-6.05 0.75 L-6.05 -0.75 -3.05 -0.75 1.45 -0.75 1.45 0.75 2.95 0.75 2.95 3.75 -3.05 3.75 -3.05 2.25 -6.05 2.25 -6.05 0.75 M-3.05 -2.25 L-7.55 -2.25 -7.55 -3.75 -6.05 -3.75 -6.05 -6.75 -4.55 -6.75 -4.55 -8.25 1.45 -8.25 1.45 -6.75 -0.05 -6.75 -0.05 -5.25 1.45 -5.25 1.45 -3.75 -1.55 -3.75 -1.55 -6.75 -4.55 -6.75 -4.55 -3.75 -3.05 -3.75 -3.05 -2.25 M2.95 -6.75 L4.45 -6.75 4.45 -5.25 2.95 -5.25 2.95 -6.75" fill="#0000aa" fill-rule="evenodd" stroke="none"/>
  </g>
</svg>
