<?xml version="1.0" encoding="UTF-8" standalone="no"?>
<svg xmlns:ffdec="https://www.free-decompiler.com/flash" xmlns:xlink="http://www.w3.org/1999/xlink" ffdec:objectType="shape" height="33.0px" width="35.2px" xmlns="http://www.w3.org/2000/svg">
  <g transform="matrix(1.0, 0.0, 0.0, 1.0, 17.6, 16.5)">
    <path d="M-6.6 -12.1 L-6.6 -14.3 -4.4 -14.3 -4.4 -16.5 4.4 -16.5 4.4 -14.3 11.0 -14.3 11.0 -12.1 6.6 -12.1 2.2 -12.1 -6.6 -12.1 M8.8 3.3 L8.8 7.7 13.2 7.7 13.2 12.1 0.0 12.1 0.0 14.3 -2.2 14.3 -2.2 16.5 -6.6 16.5 -6.6 14.3 -8.8 14.3 -8.8 12.1 -8.8 9.9 -6.6 9.9 -6.6 7.7 -6.6 5.5 -2.2 5.5 -2.2 -1.1 2.2 -1.1 2.2 1.1 4.4 1.1 4.4 3.3 8.8 3.3 M2.2 5.5 L2.2 3.3 0.0 3.3 0.0 5.5 2.2 5.5" fill="#ff0000" fill-rule="evenodd" stroke="none"/>
    <path d="M6.6 -12.1 L6.6 -9.9 13.2 -9.9 13.2 -7.7 15.4 -7.7 15.4 -5.5 13.2 -5.5 8.8 -5.5 8.8 -7.7 6.6 -7.7 6.6 -9.9 4.4 -9.9 4.4 -7.7 6.6 -7.7 6.6 -5.5 4.4 -5.5 4.4 -3.3 11.0 -3.3 11.0 -1.1 6.6 -1.1 2.2 -1.1 -2.2 -1.1 -4.4 -1.1 -4.4 -3.3 -4.4 -5.5 -6.6 -5.5 -6.6 -9.9 -2.2 -9.9 -2.2 -5.5 2.2 -5.5 2.2 -7.7 0.0 -7.7 0.0 -9.9 2.2 -9.9 2.2 -12.1 6.6 -12.1 M13.2 -3.3 L17.6 -3.3 17.6 1.1 15.4 1.1 13.2 1.1 13.2 -1.1 13.2 -3.3 M-11.0 1.1 L-11.0 3.3 -13.2 3.3 -13.2 1.1 -17.6 1.1 -17.6 -1.1 -15.4 -1.1 -15.4 -3.3 -11.0 -3.3 -11.0 -1.1 -11.0 1.1 M2.2 5.5 L0.0 5.5 0.0 3.3 2.2 3.3 2.2 5.5" fill="#ffb855" fill-rule="evenodd" stroke="none"/>
    <path d="M13.2 -5.5 L13.2 -3.3 11.0 -3.3 4.4 -3.3 4.4 -5.5 6.6 -5.5 6.6 -7.7 4.4 -7.7 4.4 -9.9 6.6 -9.9 6.6 -7.7 8.8 -7.7 8.8 -5.5 13.2 -5.5 M15.4 1.1 L15.4 3.3 8.8 3.3 4.4 3.3 4.4 1.1 2.2 1.1 2.2 -1.1 6.6 -1.1 6.6 1.1 11.0 1.1 11.0 -1.1 13.2 -1.1 13.2 1.1 15.4 1.1 M13.2 7.7 L15.4 7.7 15.4 5.5 17.6 5.5 17.6 12.1 13.2 12.1 13.2 7.7 M-8.8 12.1 L-11.0 12.1 -11.0 9.9 -13.2 9.9 -13.2 12.1 -17.6 12.1 -17.6 9.9 -15.4 9.9 -15.4 7.7 -13.2 7.7 -13.2 5.5 -8.8 5.5 -8.8 7.7 -6.6 7.7 -6.6 9.9 -8.8 9.9 -8.8 12.1 M-6.6 5.5 L-6.6 3.3 -8.8 3.3 -8.8 1.1 -11.0 1.1 -11.0 -1.1 -4.4 -1.1 -2.2 -1.1 -2.2 5.5 -6.6 5.5 M-11.0 -3.3 L-11.0 -5.5 -8.8 -5.5 -8.8 -9.9 -6.6 -9.9 -6.6 -12.1 2.2 -12.1 2.2 -9.9 0.0 -9.9 0.0 -7.7 2.2 -7.7 2.2 -5.5 -2.2 -5.5 -2.2 -9.9 -6.6 -9.9 -6.6 -5.5 -4.4 -5.5 -4.4 -3.3 -11.0 -3.3" fill="#0000aa" fill-rule="evenodd" stroke="none"/>
  </g>
</svg>
