<?xml version="1.0" encoding="UTF-8" standalone="no"?>
<svg xmlns:ffdec="https://www.free-decompiler.com/flash" xmlns:xlink="http://www.w3.org/1999/xlink" ffdec:objectType="shape" height="12.0px" width="16.0px" xmlns="http://www.w3.org/2000/svg">
  <g transform="matrix(1.0, 0.0, 0.0, 1.0, 7.45, 6.35)">
    <path d="M1.55 -6.35 L1.55 -5.35 -0.45 -5.35 -0.45 -6.35 1.55 -6.35 M0.55 3.65 L1.55 3.65 1.55 2.65 4.55 2.65 4.55 3.65 4.55 4.65 3.55 4.65 3.55 5.65 0.55 5.65 0.55 4.65 -0.45 4.65 -0.45 3.65 0.55 3.65 M6.55 -0.35 L6.55 -3.35 5.55 -3.35 5.55 -4.35 6.55 -4.35 6.55 -3.35 7.55 -3.35 7.55 -1.35 8.55 -1.35 8.55 -0.35 6.55 -0.35" fill="#0303ab" fill-rule="evenodd" stroke="none"/>
    <path d="M-0.45 -6.35 L-0.45 -5.35 1.55 -5.35 1.55 -6.35 3.55 -6.35 3.55 -5.35 4.55 -5.35 4.55 -4.35 5.55 -4.35 5.55 -3.35 6.55 -3.35 6.55 -0.35 6.55 0.65 6.55 2.65 5.55 2.65 5.55 3.65 4.55 3.65 4.55 2.65 1.55 2.65 1.55 3.65 0.55 3.65 0.55 1.65 1.55 1.65 1.55 0.65 0.55 0.65 0.55 -1.35 -0.45 -1.35 -0.45 -0.35 -5.45 -0.35 -5.45 -1.35 -7.45 -1.35 -7.45 -3.35 -6.45 -3.35 -6.45 -4.35 -5.45 -4.35 -5.45 -5.35 -4.45 -5.35 -4.45 -6.35 -0.45 -6.35" fill="#fb0303" fill-rule="evenodd" stroke="none"/>
    <path d="M6.55 0.65 L6.55 -0.35 8.55 -0.35 8.55 0.65 6.55 0.65" fill="#fbbb53" fill-rule="evenodd" stroke="none"/>
  </g>
</svg>
