<?xml version="1.0" encoding="UTF-8" standalone="no"?>
<svg xmlns:ffdec="https://www.free-decompiler.com/flash" xmlns:xlink="http://www.w3.org/1999/xlink" ffdec:objectType="shape" height="8.0px" width="48.0px" xmlns="http://www.w3.org/2000/svg">
  <g transform="matrix(1.0, 0.0, 0.0, 1.0, 24.0, 0.0)">
    <path d="M5.0 2.0 L5.0 3.0 6.0 3.0 6.0 4.0 7.0 4.0 7.0 5.0 8.0 5.0 8.0 4.0 9.0 4.0 9.0 3.0 10.0 3.0 10.0 2.0 13.0 2.0 13.0 3.0 14.0 3.0 14.0 4.0 15.0 4.0 15.0 5.0 16.0 5.0 16.0 4.0 17.0 4.0 17.0 3.0 18.0 3.0 18.0 2.0 21.0 2.0 21.0 3.0 22.0 3.0 22.0 4.0 23.0 4.0 23.0 5.0 24.0 5.0 24.0 7.0 -24.0 7.0 -24.0 4.0 -23.0 4.0 -23.0 3.0 -22.0 3.0 -22.0 2.0 -19.0 2.0 -19.0 3.0 -18.0 3.0 -18.0 4.0 -17.0 4.0 -17.0 5.0 -16.0 5.0 -16.0 4.0 -15.0 4.0 -15.0 3.0 -14.0 3.0 -14.0 2.0 -11.0 2.0 -11.0 3.0 -10.0 3.0 -10.0 4.0 -9.0 4.0 -9.0 5.0 -8.0 5.0 -8.0 4.0 -7.0 4.0 -7.0 3.0 -6.0 3.0 -6.0 2.0 -3.0 2.0 -3.0 3.0 -2.0 3.0 -2.0 4.0 -1.0 4.0 -1.0 5.0 0.0 5.0 0.0 4.0 1.0 4.0 1.0 3.0 2.0 3.0 2.0 2.0 5.0 2.0 M19.0 4.0 L18.0 4.0 18.0 5.0 17.0 5.0 17.0 6.0 22.0 6.0 22.0 5.0 21.0 5.0 21.0 4.0 20.0 4.0 20.0 3.0 19.0 3.0 19.0 4.0 M10.0 5.0 L9.0 5.0 9.0 6.0 14.0 6.0 14.0 5.0 13.0 5.0 13.0 4.0 12.0 4.0 12.0 3.0 11.0 3.0 11.0 4.0 10.0 4.0 10.0 5.0 M5.0 4.0 L4.0 4.0 4.0 3.0 3.0 3.0 3.0 4.0 2.0 4.0 2.0 5.0 1.0 5.0 1.0 6.0 6.0 6.0 6.0 5.0 5.0 5.0 5.0 4.0 M-24.0 1.0 L-24.0 0.0 24.0 0.0 24.0 1.0 -24.0 1.0 M-21.0 4.0 L-22.0 4.0 -22.0 5.0 -23.0 5.0 -23.0 6.0 -18.0 6.0 -18.0 5.0 -19.0 5.0 -19.0 4.0 -20.0 4.0 -20.0 3.0 -21.0 3.0 -21.0 4.0 M-12.0 4.0 L-12.0 3.0 -13.0 3.0 -13.0 4.0 -14.0 4.0 -14.0 5.0 -15.0 5.0 -15.0 6.0 -10.0 6.0 -10.0 5.0 -11.0 5.0 -11.0 4.0 -12.0 4.0 M-7.0 5.0 L-7.0 6.0 -2.0 6.0 -2.0 5.0 -3.0 5.0 -3.0 4.0 -4.0 4.0 -4.0 3.0 -5.0 3.0 -5.0 4.0 -6.0 4.0 -6.0 5.0 -7.0 5.0" fill="#ff2155" fill-rule="evenodd" stroke="none"/>
    <path d="M10.0 2.0 L5.0 2.0 2.0 2.0 -3.0 2.0 -6.0 2.0 -11.0 2.0 -14.0 2.0 -19.0 2.0 -22.0 2.0 -24.0 2.0 -24.0 1.0 24.0 1.0 24.0 2.0 21.0 2.0 18.0 2.0 13.0 2.0 10.0 2.0 M-24.0 7.0 L24.0 7.0 24.0 8.0 -24.0 8.0 -24.0 7.0" fill="#970000" fill-rule="evenodd" stroke="none"/>
  </g>
</svg>
