<?xml version="1.0" encoding="UTF-8" standalone="no"?>
<svg xmlns:ffdec="https://www.free-decompiler.com/flash" xmlns:xlink="http://www.w3.org/1999/xlink" ffdec:objectType="shape" height="32.0px" width="20.0px" xmlns="http://www.w3.org/2000/svg">
  <g transform="matrix(1.0, 0.0, 0.0, 1.0, 10.0, 16.0)">
    <path d="M9.0 -14.0 L9.0 -13.0 10.0 -13.0 10.0 -3.0 9.0 -3.0 9.0 -2.0 8.0 -2.0 8.0 -4.0 9.0 -4.0 9.0 -12.0 8.0 -12.0 8.0 -14.0 9.0 -14.0 M8.0 -1.0 L8.0 1.0 7.0 1.0 7.0 -1.0 8.0 -1.0 M9.0 2.0 L9.0 3.0 10.0 3.0 10.0 13.0 9.0 13.0 9.0 14.0 8.0 14.0 8.0 12.0 9.0 12.0 9.0 4.0 8.0 4.0 8.0 2.0 9.0 2.0 M8.0 15.0 L8.0 16.0 7.0 16.0 7.0 15.0 8.0 15.0 M6.0 16.0 L4.0 16.0 4.0 15.0 6.0 15.0 6.0 16.0 M1.0 14.0 L1.0 13.0 -1.0 13.0 -1.0 14.0 -2.0 14.0 -2.0 12.0 -1.0 12.0 -1.0 4.0 -2.0 4.0 -2.0 2.0 -1.0 2.0 -1.0 3.0 1.0 3.0 1.0 2.0 2.0 2.0 2.0 4.0 1.0 4.0 1.0 12.0 2.0 12.0 2.0 14.0 1.0 14.0 M-2.0 15.0 L-2.0 16.0 -3.0 16.0 -3.0 15.0 -2.0 15.0 M-4.0 16.0 L-6.0 16.0 -6.0 15.0 -4.0 15.0 -4.0 16.0 M-9.0 14.0 L-9.0 13.0 -10.0 13.0 -10.0 3.0 -9.0 3.0 -9.0 2.0 -8.0 2.0 -8.0 4.0 -9.0 4.0 -9.0 12.0 -8.0 12.0 -8.0 14.0 -9.0 14.0 M-8.0 1.0 L-8.0 0.0 -7.0 0.0 -7.0 1.0 -8.0 1.0 M-9.0 -2.0 L-9.0 -3.0 -10.0 -3.0 -10.0 -13.0 -9.0 -13.0 -9.0 -14.0 -8.0 -14.0 -8.0 -12.0 -9.0 -12.0 -9.0 -4.0 -8.0 -4.0 -8.0 -2.0 -9.0 -2.0 M-8.0 -15.0 L-8.0 -16.0 -7.0 -16.0 -7.0 -15.0 -8.0 -15.0 M-6.0 -16.0 L-4.0 -16.0 -4.0 -15.0 -6.0 -15.0 -6.0 -16.0 M-3.0 -16.0 L-2.0 -16.0 -2.0 -15.0 -3.0 -15.0 -3.0 -16.0 M-1.0 -14.0 L-1.0 -13.0 1.0 -13.0 1.0 -14.0 2.0 -14.0 2.0 -12.0 1.0 -12.0 1.0 -4.0 2.0 -4.0 2.0 -2.0 1.0 -2.0 1.0 -3.0 -1.0 -3.0 -1.0 -2.0 -2.0 -2.0 -2.0 -4.0 -1.0 -4.0 -1.0 -12.0 -2.0 -12.0 -2.0 -14.0 -1.0 -14.0 M2.0 -15.0 L2.0 -16.0 3.0 -16.0 3.0 -15.0 2.0 -15.0 M4.0 -16.0 L6.0 -16.0 6.0 -15.0 4.0 -15.0 4.0 -16.0 M7.0 -16.0 L8.0 -16.0 8.0 -15.0 7.0 -15.0 7.0 -16.0 M3.0 -14.0 L7.0 -14.0 7.0 -2.0 3.0 -2.0 3.0 -14.0 M-7.0 -14.0 L-3.0 -14.0 -3.0 -2.0 -7.0 -2.0 -7.0 -14.0 M-3.0 1.0 L-3.0 -1.0 -2.0 -1.0 -2.0 1.0 -3.0 1.0 M-4.0 -1.0 L-4.0 1.0 -6.0 1.0 -6.0 -1.0 -4.0 -1.0 M2.0 1.0 L2.0 0.0 3.0 0.0 3.0 1.0 2.0 1.0 M-7.0 2.0 L-3.0 2.0 -3.0 14.0 -7.0 14.0 -7.0 2.0 M6.0 -1.0 L6.0 1.0 4.0 1.0 4.0 -1.0 6.0 -1.0 M3.0 2.0 L7.0 2.0 7.0 14.0 3.0 14.0 3.0 2.0" fill="#ff6800" fill-rule="evenodd" stroke="none"/>
    <path d="M8.0 -15.0 L9.0 -15.0 9.0 -14.0 8.0 -14.0 7.0 -14.0 3.0 -14.0 2.0 -14.0 1.0 -14.0 1.0 -15.0 2.0 -15.0 3.0 -15.0 4.0 -15.0 6.0 -15.0 7.0 -15.0 8.0 -15.0 M9.0 -2.0 L9.0 -1.0 8.0 -1.0 7.0 -1.0 6.0 -1.0 4.0 -1.0 2.0 -1.0 1.0 -1.0 1.0 -2.0 2.0 -2.0 3.0 -2.0 7.0 -2.0 8.0 -2.0 9.0 -2.0 M8.0 1.0 L9.0 1.0 9.0 2.0 8.0 2.0 7.0 2.0 3.0 2.0 2.0 2.0 1.0 2.0 1.0 1.0 2.0 1.0 3.0 1.0 4.0 1.0 6.0 1.0 7.0 1.0 8.0 1.0 M9.0 14.0 L9.0 15.0 8.0 15.0 7.0 15.0 6.0 15.0 4.0 15.0 2.0 15.0 1.0 15.0 1.0 14.0 2.0 14.0 3.0 14.0 7.0 14.0 8.0 14.0 9.0 14.0 M-1.0 14.0 L-1.0 15.0 -2.0 15.0 -3.0 15.0 -4.0 15.0 -6.0 15.0 -8.0 15.0 -9.0 15.0 -9.0 14.0 -8.0 14.0 -7.0 14.0 -3.0 14.0 -2.0 14.0 -1.0 14.0 M-9.0 2.0 L-9.0 1.0 -8.0 1.0 -7.0 1.0 -6.0 1.0 -4.0 1.0 -3.0 1.0 -2.0 1.0 -1.0 1.0 -1.0 2.0 -2.0 2.0 -3.0 2.0 -7.0 2.0 -8.0 2.0 -9.0 2.0 M-8.0 -1.0 L-9.0 -1.0 -9.0 -2.0 -8.0 -2.0 -7.0 -2.0 -3.0 -2.0 -2.0 -2.0 -1.0 -2.0 -1.0 -1.0 -2.0 -1.0 -3.0 -1.0 -4.0 -1.0 -6.0 -1.0 -8.0 -1.0 M-9.0 -14.0 L-9.0 -15.0 -8.0 -15.0 -7.0 -15.0 -6.0 -15.0 -4.0 -15.0 -3.0 -15.0 -2.0 -15.0 -1.0 -15.0 -1.0 -14.0 -2.0 -14.0 -3.0 -14.0 -7.0 -14.0 -8.0 -14.0 -9.0 -14.0" fill="#0000ff" fill-rule="evenodd" stroke="none"/>
    <path d="M7.0 16.0 L6.0 16.0 6.0 15.0 7.0 15.0 7.0 16.0 M4.0 16.0 L2.0 16.0 2.0 15.0 4.0 15.0 4.0 16.0 M-3.0 16.0 L-4.0 16.0 -4.0 15.0 -3.0 15.0 -3.0 16.0 M-6.0 16.0 L-8.0 16.0 -8.0 15.0 -6.0 15.0 -6.0 16.0 M-8.0 0.0 L-8.0 -1.0 -6.0 -1.0 -6.0 1.0 -7.0 1.0 -7.0 0.0 -8.0 0.0 M-7.0 -16.0 L-6.0 -16.0 -6.0 -15.0 -7.0 -15.0 -7.0 -16.0 M-4.0 -16.0 L-3.0 -16.0 -3.0 -15.0 -4.0 -15.0 -4.0 -16.0 M3.0 -16.0 L4.0 -16.0 4.0 -15.0 3.0 -15.0 3.0 -16.0 M6.0 -16.0 L7.0 -16.0 7.0 -15.0 6.0 -15.0 6.0 -16.0 M8.0 -14.0 L8.0 -12.0 9.0 -12.0 9.0 -4.0 8.0 -4.0 8.0 -2.0 7.0 -2.0 7.0 -14.0 8.0 -14.0 M2.0 -2.0 L2.0 -4.0 1.0 -4.0 1.0 -12.0 2.0 -12.0 2.0 -14.0 3.0 -14.0 3.0 -2.0 2.0 -2.0 M-2.0 -14.0 L-2.0 -12.0 -1.0 -12.0 -1.0 -4.0 -2.0 -4.0 -2.0 -2.0 -3.0 -2.0 -3.0 -14.0 -2.0 -14.0 M-8.0 -2.0 L-8.0 -4.0 -9.0 -4.0 -9.0 -12.0 -8.0 -12.0 -8.0 -14.0 -7.0 -14.0 -7.0 -2.0 -8.0 -2.0 M-3.0 -1.0 L-3.0 1.0 -4.0 1.0 -4.0 -1.0 -3.0 -1.0 M2.0 0.0 L2.0 -1.0 4.0 -1.0 4.0 1.0 3.0 1.0 3.0 0.0 2.0 0.0 M-8.0 2.0 L-7.0 2.0 -7.0 14.0 -8.0 14.0 -8.0 12.0 -9.0 12.0 -9.0 4.0 -8.0 4.0 -8.0 2.0 M-3.0 2.0 L-2.0 2.0 -2.0 4.0 -1.0 4.0 -1.0 12.0 -2.0 12.0 -2.0 14.0 -3.0 14.0 -3.0 2.0 M7.0 -1.0 L7.0 1.0 6.0 1.0 6.0 -1.0 7.0 -1.0 M2.0 2.0 L3.0 2.0 3.0 14.0 2.0 14.0 2.0 12.0 1.0 12.0 1.0 4.0 2.0 4.0 2.0 2.0 M7.0 2.0 L8.0 2.0 8.0 4.0 9.0 4.0 9.0 12.0 8.0 12.0 8.0 14.0 7.0 14.0 7.0 2.0" fill="#ffb855" fill-rule="evenodd" stroke="none"/>
  </g>
</svg>
