<?xml version="1.0" encoding="UTF-8" standalone="no"?>
<svg xmlns:ffdec="https://www.free-decompiler.com/flash" xmlns:xlink="http://www.w3.org/1999/xlink" ffdec:objectType="shape" height="24.0px" width="24.0px" xmlns="http://www.w3.org/2000/svg">
  <g transform="matrix(1.0, 0.0, 0.0, 1.0, 12.0, 12.0)">
    <path d="M-9.0 -12.0 L12.0 -12.0 12.0 -10.5 10.5 -10.5 10.5 -6.0 -7.5 -6.0 -7.5 -10.5 -9.0 -10.5 -9.0 -12.0 M10.5 -4.5 L10.5 3.0 -7.5 3.0 -7.5 -4.5 10.5 -4.5 M10.5 4.5 L10.5 10.5 12.0 10.5 12.0 12.0 -9.0 12.0 -9.0 10.5 -10.5 10.5 -10.5 12.0 -12.0 12.0 -12.0 10.5 -10.5 10.5 -10.5 4.5 -9.0 4.5 -9.0 10.5 -7.5 10.5 -7.5 4.5 10.5 4.5 M-10.5 3.0 L-10.5 -4.5 -9.0 -4.5 -9.0 3.0 -10.5 3.0 M-10.5 -6.0 L-10.5 -10.5 -12.0 -10.5 -12.0 -12.0 -10.5 -12.0 -10.5 -10.5 -9.0 -10.5 -9.0 -6.0 -10.5 -6.0 M7.5 -3.0 L4.5 -3.0 4.5 1.5 9.0 1.5 9.0 0.0 7.5 0.0 7.5 -3.0 M3.0 -3.0 L0.0 -3.0 0.0 1.5 3.0 1.5 3.0 -3.0 M7.5 6.0 L7.5 7.5 9.0 7.5 9.0 6.0 7.5 6.0 M1.5 7.5 L1.5 6.0 -1.5 6.0 -1.5 7.5 1.5 7.5 M3.0 6.0 L3.0 7.5 6.0 7.5 6.0 6.0 3.0 6.0 M-1.5 -3.0 L-6.0 -3.0 -6.0 1.5 -1.5 1.5 -1.5 -3.0 M-3.0 -1.5 L-3.0 0.0 -4.5 0.0 -4.5 -1.5 -3.0 -1.5 M-6.0 6.0 L-6.0 7.5 -3.0 7.5 -3.0 6.0 -6.0 6.0" fill="#0000ff" fill-rule="evenodd" stroke="none"/>
    <path d="M10.5 -6.0 L10.5 -4.5 -7.5 -4.5 -7.5 -6.0 10.5 -6.0 M10.5 3.0 L10.5 4.5 -7.5 4.5 -7.5 3.0 10.5 3.0 M-10.5 4.5 L-10.5 3.0 -9.0 3.0 -9.0 4.5 -10.5 4.5 M-10.5 -4.5 L-10.5 -6.0 -9.0 -6.0 -9.0 -4.5 -10.5 -4.5 M3.0 -3.0 L3.0 1.5 0.0 1.5 0.0 -3.0 3.0 -3.0 M7.5 -3.0 L7.5 0.0 9.0 0.0 9.0 1.5 4.5 1.5 4.5 -3.0 7.5 -3.0 M-1.5 -3.0 L-1.5 1.5 -6.0 1.5 -6.0 -3.0 -1.5 -3.0 M-3.0 -1.5 L-4.5 -1.5 -4.5 0.0 -3.0 0.0 -3.0 -1.5" fill="#00ffff" fill-rule="evenodd" stroke="none"/>
    <path d="M-9.0 12.0 L-10.5 12.0 -10.5 10.5 -9.0 10.5 -9.0 12.0 M-10.5 -12.0 L-9.0 -12.0 -9.0 -10.5 -7.5 -10.5 -7.5 -6.0 -7.5 -4.5 -7.5 3.0 -7.5 4.5 -7.5 10.5 -9.0 10.5 -9.0 4.5 -9.0 3.0 -9.0 -4.5 -9.0 -6.0 -9.0 -10.5 -10.5 -10.5 -10.5 -12.0 M3.0 6.0 L6.0 6.0 6.0 7.5 3.0 7.5 3.0 6.0 M1.5 7.5 L-1.5 7.5 -1.5 6.0 1.5 6.0 1.5 7.5 M7.5 6.0 L9.0 6.0 9.0 7.5 7.5 7.5 7.5 6.0 M-6.0 6.0 L-3.0 6.0 -3.0 7.5 -6.0 7.5 -6.0 6.0" fill="#ffffff" fill-rule="evenodd" stroke="none"/>
  </g>
</svg>
