<?xml version="1.0" encoding="UTF-8" standalone="no"?>
<svg xmlns:ffdec="https://www.free-decompiler.com/flash" xmlns:xlink="http://www.w3.org/1999/xlink" ffdec:objectType="shape" height="22.0px" width="15.0px" xmlns="http://www.w3.org/2000/svg">
  <g transform="matrix(1.0, 0.0, 0.0, 1.0, 7.5, 11.0)">
    <path d="M-1.5 -3.0 L-3.5 -3.0 -3.5 -2.0 -4.5 -2.0 -4.5 -3.0 -5.5 -3.0 -5.5 -4.0 -6.5 -4.0 -6.5 -5.0 -4.5 -5.0 -4.5 -6.0 -5.5 -6.0 -5.5 -7.0 -6.5 -7.0 -6.5 -8.0 -4.5 -8.0 -4.5 -7.0 -3.5 -7.0 -3.5 -6.0 -0.5 -6.0 -0.5 -7.0 -1.5 -7.0 -1.5 -9.0 -0.5 -9.0 -0.5 -10.0 0.5 -10.0 0.5 -11.0 6.5 -11.0 6.5 -10.0 7.5 -10.0 7.5 -9.0 6.5 -9.0 2.5 -9.0 2.5 -7.0 1.5 -7.0 1.5 -6.0 0.5 -6.0 0.5 -5.0 -1.5 -5.0 -1.5 -3.0 M5.35 -7.95 L5.35 -7.1 4.45 -7.1 4.45 -7.95 5.35 -7.95" fill="#ff6b05" fill-rule="evenodd" stroke="none"/>
    <path d="M6.5 -9.0 L6.5 -8.0 7.5 -8.0 7.5 -7.0 6.5 -7.0 6.5 -6.0 5.5 -6.0 5.5 -5.0 3.5 -5.0 3.5 -4.0 3.5 -3.0 1.5 -3.0 1.5 -4.0 0.5 -4.0 0.5 -5.0 0.5 -6.0 1.5 -6.0 1.5 -7.0 2.5 -7.0 2.5 -9.0 6.5 -9.0 M5.35 -7.95 L4.45 -7.95 4.45 -7.1 5.35 -7.1 5.35 -7.95" fill="#fff8f4" fill-rule="evenodd" stroke="none"/>
    <path d="M3.5 -4.0 L4.5 -4.0 4.5 -2.0 3.5 -2.0 3.5 -1.0 7.5 -1.0 7.5 0.0 6.5 0.0 6.5 1.0 4.5 1.0 4.5 2.0 6.5 2.0 6.5 4.0 5.5 4.0 5.5 7.0 2.5 7.0 2.5 6.0 -0.5 6.0 -0.5 5.0 -1.5 5.0 -1.5 4.0 -3.5 4.0 -3.5 3.0 -4.5 3.0 -4.5 2.0 -2.5 2.0 -2.5 1.0 2.5 1.0 2.5 0.0 -0.5 0.0 -0.5 -1.0 -1.5 -1.0 -1.5 -3.0 -1.5 -5.0 0.5 -5.0 0.5 -4.0 1.5 -4.0 1.5 -3.0 3.5 -3.0 3.5 -4.0" fill="#ff56b0" fill-rule="evenodd" stroke="none"/>
    <path d="M5.5 7.0 L5.5 8.0 1.5 8.0 1.5 7.0 -0.5 7.0 -0.5 6.0 2.5 6.0 2.5 7.0 5.5 7.0 M-5.5 3.0 L-4.5 3.0 -3.5 3.0 -3.5 4.0 -1.5 4.0 -1.5 5.0 -0.5 5.0 -0.5 6.0 -2.5 6.0 -2.5 5.0 -4.5 5.0 -4.5 4.0 -5.5 4.0 -5.5 3.0" fill="#ffffff" fill-rule="evenodd" stroke="none"/>
    <path d="M5.5 8.0 L5.5 9.0 4.5 9.0 1.5 9.0 0.5 9.0 0.5 8.0 -1.5 8.0 -1.5 7.0 -2.5 7.0 -3.5 7.0 -3.5 6.0 -5.5 6.0 -5.5 5.0 -6.5 5.0 -6.5 4.0 -7.5 4.0 -7.5 3.0 -5.5 3.0 -5.5 4.0 -4.5 4.0 -4.5 5.0 -2.5 5.0 -2.5 6.0 -0.5 6.0 -0.5 7.0 1.5 7.0 1.5 8.0 5.5 8.0" fill="#ff47aa" fill-rule="evenodd" stroke="none"/>
    <path d="M4.5 9.0 L4.5 10.0 6.5 10.0 6.5 11.0 1.5 11.0 1.5 9.0 4.5 9.0" fill="#000094" fill-rule="evenodd" stroke="none"/>
    <path d="M-2.5 7.0 L-2.5 8.0 -3.5 8.0 -3.5 9.0 -2.5 9.0 -2.5 10.0 -4.5 10.0 -4.5 9.0 -5.5 9.0 -5.5 8.0 -6.5 8.0 -6.5 7.0 -5.5 7.0 -5.5 6.0 -3.5 6.0 -3.5 7.0 -2.5 7.0" fill="#0000aa" fill-rule="evenodd" stroke="none"/>
  </g>
</svg>
