<?xml version="1.0" encoding="UTF-8" standalone="no"?>
<svg xmlns:ffdec="https://www.free-decompiler.com/flash" xmlns:xlink="http://www.w3.org/1999/xlink" ffdec:objectType="shape" height="24.15px" width="40.25px" xmlns="http://www.w3.org/2000/svg">
  <g transform="matrix(1.0, 0.0, 0.0, 1.0, 15.1, 4.15)">
    <path d="M3.0 -3.15 L5.05 -3.15 5.05 -4.15 6.05 -4.15 6.05 -0.1 5.05 -0.1 5.05 -2.15 3.0 -2.15 3.0 -1.15 1.0 -1.15 1.0 -4.15 3.0 -4.15 3.0 -3.15 M9.05 -2.15 L11.05 -2.15 11.05 -1.15 9.05 -1.15 9.05 -0.1 11.05 -0.1 11.05 0.9 8.05 0.9 8.05 -0.1 7.05 -0.1 7.05 -4.15 11.05 -4.15 11.05 -3.15 9.05 -3.15 9.05 -2.15 M14.1 -4.15 L14.1 0.9 16.1 0.9 16.1 1.9 13.1 1.9 13.1 0.9 12.1 0.9 12.1 -4.15 14.1 -4.15 M19.15 -0.1 L20.15 -0.1 20.15 -3.15 19.15 -3.15 19.15 -0.1 M20.15 -3.15 L21.15 -3.15 21.15 -0.1 20.15 -0.1 20.15 0.9 19.15 0.9 19.15 2.9 17.1 2.9 17.1 -4.15 20.15 -4.15 20.15 -3.15 M25.15 -1.15 L24.15 -1.15 24.15 0.9 23.15 0.9 23.15 1.9 22.15 1.9 22.15 -3.15 23.15 -3.15 23.15 -4.15 25.15 -4.15 25.15 -1.15 M21.15 2.9 L23.15 2.9 23.15 3.9 21.15 3.9 21.15 2.9" fill="#00ffff" fill-rule="evenodd" stroke="none"/>
    <path d="M-9.05 5.9 L-11.05 5.9 -11.05 6.9 -12.1 6.9 -12.1 5.9 -13.1 5.9 -13.1 6.9 -14.1 6.9 -14.1 5.9 -13.1 5.9 -13.1 4.9 -14.1 4.9 -14.1 3.9 -12.1 3.9 -12.1 2.9 -13.1 2.9 -13.1 1.9 -14.1 1.9 -14.1 0.9 -12.1 0.9 -12.1 1.9 -11.05 1.9 -11.05 2.9 -8.05 2.9 -8.05 1.9 -9.05 1.9 -9.05 -0.1 -8.05 -0.1 -8.05 -1.15 -7.05 -1.15 -7.05 -2.15 -1.0 -2.15 -1.0 -1.15 0.0 -1.15 0.0 -0.1 -1.0 -0.1 -5.05 -0.1 -5.05 1.9 -6.05 1.9 -6.05 0.9 -7.05 0.9 -7.05 1.9 -6.05 1.9 -6.05 2.9 -7.05 2.9 -7.05 3.9 -9.05 3.9 -9.05 5.9 M-2.0 1.9 L-3.0 1.9 -3.0 0.9 -2.0 0.9 -2.0 1.9" fill="#ff6800" fill-rule="evenodd" stroke="none"/>
    <path d="M-1.0 -0.1 L-1.0 0.9 0.0 0.9 0.0 1.9 -1.0 1.9 -1.0 2.9 -2.0 2.9 -2.0 3.9 -4.05 3.9 -4.05 4.9 -4.05 5.9 -6.05 5.9 -6.05 4.9 -7.05 4.9 -7.05 3.9 -7.05 2.9 -6.05 2.9 -6.05 1.9 -7.05 1.9 -7.05 0.9 -6.05 0.9 -6.05 1.9 -5.05 1.9 -5.05 -0.1 -1.0 -0.1 M-2.0 7.95 L0.0 7.95 0.0 8.95 -1.0 8.95 -1.0 9.95 -2.0 9.95 -2.0 7.95 M-3.0 10.95 L-1.0 10.95 -1.0 12.95 -2.0 12.95 -2.0 11.95 -3.0 11.95 -3.0 10.95 M-2.0 16.0 L-2.0 17.0 -6.05 17.0 -6.05 16.0 -8.05 16.0 -8.05 15.0 -5.05 15.0 -5.05 16.0 -2.0 16.0 M-13.1 11.95 L-12.1 11.95 -11.05 11.95 -11.05 12.95 -9.05 12.95 -9.05 13.95 -8.05 13.95 -8.05 15.0 -10.05 15.0 -10.05 13.95 -12.1 13.95 -12.1 12.95 -13.1 12.95 -13.1 11.95 M-2.0 1.9 L-2.0 0.9 -3.0 0.9 -3.0 1.9 -2.0 1.9" fill="#ffffff" fill-rule="evenodd" stroke="none"/>
    <path d="M-4.05 4.9 L-3.0 4.9 -3.0 6.9 -4.05 6.9 -4.05 7.95 -2.0 7.95 -2.0 9.95 -3.0 9.95 -3.0 10.95 -3.0 11.95 -2.0 11.95 -2.0 12.95 -2.0 16.0 -5.05 16.0 -5.05 15.0 -8.05 15.0 -8.05 16.0 -6.05 16.0 -6.05 17.0 -2.0 17.0 -2.0 18.0 -3.0 18.0 -6.05 18.0 -7.05 18.0 -7.05 17.0 -9.05 17.0 -9.05 16.0 -10.05 16.0 -11.05 16.0 -11.05 15.0 -13.1 15.0 -13.1 13.95 -14.1 13.95 -14.1 12.95 -15.1 12.95 -15.1 11.95 -13.1 11.95 -13.1 12.95 -12.1 12.95 -12.1 13.95 -10.05 13.95 -10.05 15.0 -8.05 15.0 -8.05 13.95 -9.05 13.95 -9.05 12.95 -11.05 12.95 -11.05 11.95 -12.1 11.95 -12.1 10.95 -10.05 10.95 -10.05 9.95 -8.05 9.95 -5.05 9.95 -5.05 8.95 -8.05 8.95 -8.05 7.95 -9.05 7.95 -9.05 5.9 -9.05 3.9 -7.05 3.9 -7.05 4.9 -6.05 4.9 -6.05 5.9 -4.05 5.9 -4.05 4.9" fill="#ff47aa" fill-rule="evenodd" stroke="none"/>
    <path d="M-3.0 18.0 L-3.0 19.0 -1.0 19.0 -1.0 20.0 -4.05 20.0 -4.05 19.0 -5.05 19.0 -5.05 20.0 -6.05 20.0 -6.05 18.0 -3.0 18.0 M-10.05 16.0 L-10.05 17.0 -11.05 17.0 -11.05 18.0 -10.05 18.0 -10.05 19.0 -12.1 19.0 -12.1 18.0 -13.1 18.0 -13.1 17.0 -14.1 17.0 -14.1 16.0 -13.1 16.0 -13.1 15.0 -11.05 15.0 -11.05 16.0 -10.05 16.0 M-8.05 9.95 L-8.05 8.95 -5.05 8.95 -5.05 9.95 -8.05 9.95" fill="#0000aa" fill-rule="evenodd" stroke="none"/>
  </g>
</svg>
