<?xml version="1.0" encoding="UTF-8" standalone="no"?>
<svg xmlns:ffdec="https://www.free-decompiler.com/flash" xmlns:xlink="http://www.w3.org/1999/xlink" ffdec:objectType="shape" height="24.2px" width="39.25px" xmlns="http://www.w3.org/2000/svg">
  <g transform="matrix(1.0, 0.0, 0.0, 1.0, 15.2, 4.2)">
    <path d="M19.0 -3.2 L20.0 -3.2 20.0 -0.15 19.0 -0.15 19.0 0.85 18.0 0.85 18.0 2.85 16.0 2.85 16.0 -4.2 19.0 -4.2 19.0 -3.2 18.0 -3.2 18.0 -0.15 19.0 -0.15 19.0 -3.2 M9.95 -3.2 L7.95 -3.2 7.95 -2.15 9.95 -2.15 9.95 -1.15 7.95 -1.15 7.95 -0.15 9.95 -0.15 9.95 0.85 6.95 0.85 6.95 -0.15 5.95 -0.15 5.95 -4.2 9.95 -4.2 9.95 -3.2 M12.95 -4.2 L12.95 0.85 15.0 0.85 15.0 1.85 11.95 1.85 11.95 0.85 10.95 0.85 10.95 -4.2 12.95 -4.2 M22.05 -3.2 L22.05 -4.2 24.05 -4.2 24.05 -1.15 23.05 -1.15 23.05 0.85 22.05 0.85 22.05 1.85 21.05 1.85 21.05 -3.2 22.05 -3.2 M20.0 2.85 L22.05 2.85 22.05 3.85 20.0 3.85 20.0 2.85 M4.9 -0.15 L3.9 -0.15 3.9 -2.15 1.9 -2.15 1.9 -1.15 -0.1 -1.15 -0.1 -4.2 1.9 -4.2 1.9 -3.2 3.9 -3.2 3.9 -4.2 4.9 -4.2 4.9 -0.15" fill="#00ffff" fill-rule="evenodd" stroke="none"/>
    <path d="M-10.2 5.9 L-12.2 5.9 -12.2 6.9 -13.2 6.9 -13.2 5.9 -14.2 5.9 -14.2 6.9 -15.2 6.9 -15.2 5.9 -14.2 5.9 -14.2 4.9 -15.2 4.9 -15.2 3.85 -13.2 3.85 -13.2 2.85 -14.2 2.85 -14.2 1.85 -15.2 1.85 -15.2 0.85 -13.2 0.85 -13.2 1.85 -12.2 1.85 -12.2 2.85 -9.15 2.85 -9.15 1.85 -10.2 1.85 -10.2 -0.15 -9.15 -0.15 -9.15 -1.15 -8.15 -1.15 -8.15 -2.15 -2.15 -2.15 -2.15 -1.15 -1.1 -1.15 -1.1 -0.15 -2.15 -0.15 -6.15 -0.15 -6.15 1.85 -7.15 1.85 -7.15 0.85 -8.15 0.85 -8.15 1.85 -7.15 1.85 -7.15 2.85 -8.15 2.85 -8.15 3.85 -10.2 3.85 -10.2 5.9 M-3.15 1.85 L-4.15 1.85 -4.15 0.85 -3.15 0.85 -3.15 1.85" fill="#ff6800" fill-rule="evenodd" stroke="none"/>
    <path d="M-2.15 -0.15 L-2.15 0.85 -1.1 0.85 -1.1 1.85 -2.15 1.85 -2.15 2.85 -3.15 2.85 -3.15 3.85 -5.15 3.85 -5.15 4.9 -5.15 5.9 -7.15 5.9 -7.15 4.9 -8.15 4.9 -8.15 3.85 -8.15 2.85 -7.15 2.85 -7.15 1.85 -8.15 1.85 -8.15 0.85 -7.15 0.85 -7.15 1.85 -6.15 1.85 -6.15 -0.15 -2.15 -0.15 M-2.15 9.9 L-2.15 11.9 -3.15 11.9 -3.15 10.9 -4.15 10.9 -4.15 9.9 -2.15 9.9 M-3.15 12.95 L-2.15 12.95 -2.15 13.95 -3.15 13.95 -3.15 14.95 -6.15 14.95 -6.15 15.95 -11.2 15.95 -11.2 14.95 -13.2 14.95 -13.2 13.95 -12.2 13.95 -10.2 13.95 -10.2 14.95 -7.15 14.95 -7.15 13.95 -4.15 13.95 -4.15 12.95 -3.15 12.95 M-12.2 9.9 L-12.2 10.9 -15.2 10.9 -15.2 9.9 -13.2 9.9 -12.2 9.9 M-3.15 1.85 L-3.15 0.85 -4.15 0.85 -4.15 1.85 -3.15 1.85" fill="#ffffff" fill-rule="evenodd" stroke="none"/>
    <path d="M-5.15 4.9 L-4.15 4.9 -4.15 7.9 -3.15 7.9 -3.15 8.9 -2.15 8.9 -2.15 9.9 -4.15 9.9 -4.15 10.9 -3.15 10.9 -3.15 11.9 -3.15 12.95 -4.15 12.95 -4.15 13.95 -7.15 13.95 -7.15 14.95 -10.2 14.95 -10.2 13.95 -12.2 13.95 -12.2 11.9 -11.2 11.9 -11.2 9.9 -12.2 9.9 -13.2 9.9 -13.2 8.9 -12.2 8.9 -12.2 7.9 -11.2 7.9 -11.2 6.9 -10.2 6.9 -10.2 5.9 -10.2 3.85 -8.15 3.85 -8.15 4.9 -7.15 4.9 -7.15 5.9 -5.15 5.9 -5.15 4.9 M-2.15 13.95 L-0.1 13.95 -0.1 14.95 -1.1 14.95 -2.15 14.95 -2.15 15.95 -5.15 15.95 -5.15 16.95 -9.15 16.95 -12.2 16.95 -14.2 16.95 -14.2 15.95 -13.2 15.95 -13.2 14.95 -11.2 14.95 -11.2 15.95 -6.15 15.95 -6.15 14.95 -3.15 14.95 -3.15 13.95 -2.15 13.95 M-9.15 8.9 L-5.15 8.9 -5.15 7.9 -9.15 7.9 -10.2 7.9 -10.2 8.9 -11.2 8.9 -11.2 9.9 -10.2 9.9 -10.2 8.9 -9.15 8.9" fill="#ff47aa" fill-rule="evenodd" stroke="none"/>
    <path d="M-0.1 14.95 L-0.1 15.95 -1.1 15.95 -1.1 16.95 -2.15 16.95 -2.15 17.95 -3.15 17.95 -3.15 18.95 -4.15 18.95 -4.15 17.95 -5.15 17.95 -5.15 16.95 -5.15 15.95 -2.15 15.95 -1.1 15.95 -1.1 14.95 -0.1 14.95 M-9.15 16.95 L-9.15 17.95 -10.2 17.95 -10.2 18.95 -9.15 18.95 -9.15 20.0 -12.2 20.0 -12.2 18.95 -13.2 18.95 -13.2 17.95 -12.2 17.95 -12.2 16.95 -9.15 16.95 M-9.15 7.9 L-5.15 7.9 -5.15 8.9 -9.15 8.9 -9.15 7.9" fill="#0000aa" fill-rule="evenodd" stroke="none"/>
    <path d="M-2.15 15.95 L-2.15 14.95 -1.1 14.95 -1.1 15.95 -2.15 15.95" fill="#000000" fill-rule="evenodd" stroke="none"/>
  </g>
</svg>
